<?xml version="1.0" encoding="utf-8"?>
<!-- Generator: Adobe Illustrator 27.2.0, SVG Export Plug-In . SVG Version: 6.00 Build 0)  -->
<svg version="1.1" id="f" xmlns="http://www.w3.org/2000/svg" xmlns:xlink="http://www.w3.org/1999/xlink" x="0px" y="0px"
	 viewBox="0 0 50 50" style="enable-background:new 0 0 50 50;" xml:space="preserve">
<style type="text/css">
	.st0{fill:none;stroke:#EEEEEE;stroke-width:3;stroke-miterlimit:10;}
</style>
<path class="st0" d="M33.1,1.7H25v15.5h8c4.3,0,7.8-3.5,7.8-7.8l0,0C40.8,5.2,37.3,1.7,33.1,1.7z"/>
<path class="st0" d="M17,1.7c-4.3,0-7.8,3.5-7.8,7.8l0,0c0,4.3,3.5,7.8,7.8,7.8h8V1.7H17z"/>
<path class="st0" d="M17,17.2c-4.3,0-7.8,3.5-7.8,7.8l0,0c0,4.3,3.5,7.8,7.8,7.8h8V17.2H17z"/>
<path class="st0" d="M17,32.7c-4.3,0-7.8,3.5-7.8,7.8l0,0c0,4.3,3.5,7.8,7.8,7.8l0,0c4.4,0,8-3.6,8-8v-7.6H17z"/>
<path class="st0" d="M33.2,17.4h-0.4c-4.3,0-7.8,3.5-7.8,7.8l0,0c0,4.3,3.5,7.8,7.8,7.8l0,0c4.4,0,8-3.6,8-8l0,0
	C40.8,20.8,37.4,17.4,33.2,17.4z"/>
</svg>
