<?xml version="1.0" encoding="UTF-8"?><svg id="a" xmlns="http://www.w3.org/2000/svg" viewBox="0 0 50 50"><defs><style>.b{fill:#eee;}</style></defs><g><rect class="b" x="26.28" y="-.12" width="10.78" height="23.68" rx="5.39" ry="5.39"/><path class="b" d="m44.74,13.04h0c2.9,0,5.26,2.36,5.26,5.26h0c0,2.9-2.36,5.26-5.26,5.26h-5.26v-5.26c0-2.9,2.36-5.26,5.26-5.26Z"/><rect class="b" x="6.45" y="6.35" width="10.78" height="23.68" rx="5.39" ry="5.39" transform="translate(-6.35 30.03) rotate(-90)"/><path class="b" d="m18.42-.14h0c2.9,0,5.26,2.36,5.26,5.26h0c0,2.9-2.36,5.26-5.26,5.26h-5.26v-5.26C13.16,2.22,15.52-.14,18.42-.14Z" transform="translate(13.3 23.54) rotate(-90)"/></g><rect class="b" x="12.94" y="26.44" width="10.78" height="23.68" rx="5.39" ry="5.39" transform="translate(36.65 76.56) rotate(180)"/><path class="b" d="m5.26,26.44h0c2.9,0,5.26,2.36,5.26,5.26h0c0,2.9-2.36,5.26-5.26,5.26H0v-5.26C0,28.8,2.36,26.44,5.26,26.44Z" transform="translate(10.52 63.4) rotate(180)"/><rect class="b" x="32.77" y="19.97" width="10.78" height="23.68" rx="5.39" ry="5.39" transform="translate(69.97 -6.35) rotate(90)"/><path class="b" d="m31.58,39.62h0c2.9,0,5.26,2.36,5.26,5.26h0c0,2.9-2.36,5.26-5.26,5.26h-5.26v-5.26c0-2.9,2.36-5.26,5.26-5.26Z" transform="translate(76.46 13.3) rotate(90)"/></svg>