<?xml version="1.0" encoding="utf-8"?>
<!-- Generator: Adobe Illustrator 26.5.3, SVG Export Plug-In . SVG Version: 6.00 Build 0)  -->
<svg version="1.1" id="Capa_2_00000096753351897180040600000015766676963353393583_"
	 xmlns="http://www.w3.org/2000/svg" xmlns:xlink="http://www.w3.org/1999/xlink" x="0px" y="0px" viewBox="0 0 50 50"
	 style="enable-background:new 0 0 50 50;" xml:space="preserve">
<style type="text/css">
	.st0{fill:#EEEEEE;}
</style>
<path class="st0" d="M42.7,26.8l-2.5-0.1c0-1-0.3-2.1-0.9-3.3c-0.6-1-1.2-1.8-1.9-2.4l1.4-2.1c0.1-0.1,0.1-0.3-0.1-0.4
	c-0.1-0.1-0.3-0.1-0.4,0.1l-1.4,2.1c-2.8-2.1-6.1-1.2-7.1-0.9l-1.6-3.2c0.4-0.6,0.6-1.3,0.6-2.1c0-1.7-1.1-3.1-2.6-3.7V8.1
	c0-0.7-0.6-1.3-1.3-1.3c-0.7,0-1.3,0.6-1.3,1.3v2.7c-1.5,0.5-2.6,2-2.6,3.7c0,0.8,0.2,1.5,0.6,2l-4.1,8.4c-1.4-1-2.7-2.2-3.8-3.8
	c-0.3-0.4-0.8-0.5-1.1-0.2l-2,1.4c-0.4,0.3-0.5,0.8-0.2,1.2c1.5,2.1,3.3,3.8,5.3,5.1l-3,6l-0.2,3.3c0,0.7,0.8,1.1,1.2,0.6l2.4-2.3
	l2.9-6c3.5,1.2,7.5,1.3,11.7,0l3,6.1l2.4,2.3c0.5,0.5,1.3,0.1,1.2-0.6l-0.2-3.3l-0.8-1.6c1.1-0.8,3.5-2.9,3.7-5.9l2.5,0.1l0,0
	c0.1,0,0.3-0.1,0.3-0.3C42.9,26.9,42.8,26.8,42.7,26.8z M25,12.5c1.1,0,2,0.9,2,2s-0.9,2-2,2s-2-0.9-2-2S23.9,12.5,25,12.5z
	 M20.9,26.5l4-8.1H25l0,0l3.9,8C25.9,27.2,23.3,27.2,20.9,26.5z M34.1,22.8c-0.3,0-0.6-0.3-0.6-0.6c0-0.3,0.3-0.6,0.6-0.6
	s0.6,0.3,0.6,0.6C34.7,22.5,34.5,22.8,34.1,22.8z M37.2,28.9c-0.3,0-0.6-0.3-0.6-0.6c0-0.3,0.3-0.6,0.6-0.6s0.6,0.3,0.6,0.6
	C37.8,28.7,37.5,28.9,37.2,28.9z"/>
</svg>
