<?xml version="1.0" encoding="utf-8"?>
<!-- Generator: Adobe Illustrator 26.5.3, SVG Export Plug-In . SVG Version: 6.00 Build 0)  -->
<svg version="1.1" id="Capa_2_00000083084768941513856740000001876826047197398413_"
	 xmlns="http://www.w3.org/2000/svg" xmlns:xlink="http://www.w3.org/1999/xlink" x="0px" y="0px" viewBox="0 0 50 50"
	 style="enable-background:new 0 0 50 50;" xml:space="preserve">
<style type="text/css">
	.st0{fill:#EEEEEE;}
	.st1{fill:#151515;}
</style>
<path class="st0" d="M48.7,11.7c0.1-1.4-0.4-2.5-1.6-3.3c-2.2-1.5-4.3-3-6.4-4.5c-0.9-0.7-1.8-1.3-2.7-2c-1.7-1.2-3.4-1.7-5.4-1.5
	c-1.2,0.1-2.5,0.2-3.8,0.3l-8.1,0.6c-1.7,0.1-3.3,0.2-4.9,0.4c-1.5,0.1-3,0.2-4.4,0.3C9.1,2.1,7,2.3,4.9,2.5
	C3.1,2.6,1.8,3.8,1.4,5.6C1.3,6.1,1.3,6.5,1.3,6.9v27.7c0,1.9,0.6,3.5,1.7,5c0.3,0.4,0.7,0.9,1,1.3c0.5,0.6,1,1.2,1.5,1.9
	c0.6,0.8,1.3,1.6,1.9,2.4C8,46,8.7,46.9,9.3,47.6s1.5,1.7,3.1,1.9H14l4.7-0.3c1.4-0.1,2.8-0.2,4.2-0.2c1.4-0.1,2.8-0.2,4.2-0.2
	c1.9-0.1,3.8-0.2,5.7-0.4c1.9-0.1,3.8-0.2,5.7-0.3c2.1-0.1,4.2-0.2,6.3-0.4c2.5-0.1,4-1.7,4-4.2V27.4c0-1.7,0-3.5,0-5.2
	C48.7,18.7,48.6,15.2,48.7,11.7z"/>
<g>
	<g id="XMLID_00000043420145407659757780000001312943052855054249_">
		<g>
			<path class="st1" d="M46.5,9.2c0.9,0.6,1.3,1.4,1.2,2.4c-0.1,5.3,0,10.6,0,15.8s0,10.4,0,15.7c0,0.1,0,0.3,0,0.4c0,2-1,3.1-3,3.2
				c-2.1,0.2-4.2,0.3-6.3,0.4c-3.8,0.2-7.6,0.5-11.4,0.7c-2.8,0.2-5.6,0.3-8.4,0.5c-1.6,0.1-3.1,0.2-4.7,0.3c-0.5,0-1,0-1.5,0
				c-1-0.1-1.7-0.7-2.3-1.5c-1.3-1.6-2.5-3.3-3.8-4.9C5.4,41.1,4.6,40,3.8,39c-1-1.3-1.5-2.7-1.5-4.4c0-9.2,0-18.5,0-27.7
				c0-0.4,0-0.7,0.1-1.1C2.7,4.4,3.6,3.6,5,3.5C7.1,3.3,9.2,3.1,11.3,3c3.1-0.2,6.2-0.5,9.4-0.7c2.7-0.2,5.4-0.4,8.1-0.6
				c1.3-0.1,2.6-0.2,3.8-0.3c1.7-0.2,3.2,0.2,4.7,1.3C40.4,4.9,43.4,7.1,46.5,9.2z M44.6,40.9c0-8.9,0-17.8,0-26.7
				c0-0.2,0-0.5,0-0.7c-0.1-1-0.5-1.3-1.5-1.3c-2.5,0.1-5.1,0.3-7.6,0.4c-6.3,0.4-12.7,0.7-19,1.1c-1.1,0.1-2.2,0.1-3.3,0.2
				C12.4,14,12,14.4,12,15.2c0,0.3,0,0.5,0,0.8c-0.3,4.4-0.3,8.9-0.3,13.4s0,9,0,13.5c0,1.6,0.6,2.2,2.2,2.1c0.1,0,0.1,0,0.2,0
				c2.5-0.1,4.9-0.3,7.4-0.4c6.2-0.4,12.5-0.7,18.7-1.1c1-0.1,1.9-0.1,2.9-0.2c0.8-0.1,1.3-0.6,1.4-1.4
				C44.5,41.6,44.6,41.2,44.6,40.9z M41.2,8.9c-0.1-0.1-0.1-0.3-0.2-0.4c0-0.1-0.1-0.1-0.2-0.2c-1.5-1.1-3-2.2-4.6-3.3
				c-1-0.7-2.1-1-3.3-1C30,4.3,27,4.5,24.1,4.7C19.4,5,14.7,5.4,10,5.7C9.1,5.8,8.1,5.8,7.1,6C6.9,6,6.6,6.2,6.5,6.4
				C6.4,6.5,6.6,6.9,6.8,7c1.1,0.9,2.3,1.8,3.4,2.7c0.9,0.8,1.9,1.1,3.1,1c0.3,0,0.7,0,1,0c4.6-0.3,9.3-0.6,13.9-0.8
				c4.2-0.3,8.4-0.5,12.6-0.7C40.9,9,41,9,41.2,8.9z"/>
			<path class="st0" d="M44.6,14.2c0,8.9,0,17.8,0,26.7c0,0.3-0.1,0.7-0.1,1c-0.1,0.8-0.6,1.3-1.4,1.4c-1,0.1-1.9,0.1-2.9,0.2
				c-6.2,0.4-12.5,0.7-18.7,1.1c-2.5,0.1-4.9,0.3-7.4,0.4c-0.1,0-0.1,0-0.2,0c-1.6,0.1-2.2-0.5-2.2-2.1c0-4.5,0-9,0-13.5
				s0-9,0.3-13.4c0-0.3,0-0.5,0-0.8c0-0.8,0.4-1.2,1.2-1.3c1.1-0.1,2.2-0.1,3.3-0.2c6.3-0.4,12.7-0.7,19-1.1
				c2.5-0.1,5.1-0.3,7.6-0.4c1,0,1.4,0.3,1.5,1.3C44.6,13.7,44.6,14,44.6,14.2z M39.8,17.6c0-0.3-0.1-0.4-0.4-0.4
				c-1.1,0.1-2.1,0.1-3.2,0.2c-0.8,0.1-1.7,0.1-2.6,0.2c-0.9,0.1-1.5,0.6-1.6,1.4c0,0.3,0,0.5,0.4,0.5c0.7,0,1.3,0.1,2,0.2
				c0,4.2,0,8.4,0,12.6c-0.1-0.2-0.2-0.4-0.3-0.5c-3-4.5-5.9-8.9-8.8-13.4c-0.1-0.2-0.2-0.4-0.5-0.4c-2.2,0.2-4.3,0.4-6.5,0.5
				c-0.9,0-1.6,0.7-1.6,1.7c0,0.3,0.1,0.4,0.4,0.4c0.6,0,1.1,0.1,1.6,0.1c0.3,0,0.4,0.1,0.4,0.4c0,0.6,0,1.1,0,1.6
				c0,5.3,0,10.5,0,15.7c0,0.3,0,0.5-0.4,0.6s-0.7,0.2-1.1,0.3c-0.5,0.1-0.9,0.6-0.8,1.2c0,0.2,0.1,0.3,0.3,0.3
				c0.2-0.1,0.5-0.1,0.8-0.1c1.9-0.1,3.8-0.2,5.7-0.3c1,0,1.7-0.7,1.8-1.6c-0.8-0.2-1.6-0.4-2.7-0.7c-0.3-0.1-0.4-0.2-0.4-0.5
				c0-4.2,0-8.5,0-12.8c0-0.1,0-0.2,0-0.4c0.2,0.2,0.2,0.3,0.3,0.4c2.7,4.3,5.4,8.6,8.1,12.8c0.5,0.7,1,1.4,1.6,2.1
				c0.4,0.5,1,0.7,1.6,0.7c1.1,0,2.1-0.3,3.1-0.8c0.4-0.1,0.5-0.3,0.5-0.7c0-6.4,0-12.8,0-19.2c0-0.2,0-0.3,0-0.5
				c0.4,0,0.8-0.1,1.2-0.2C39.6,18.8,39.8,18.5,39.8,17.6z"/>
			<path class="st0" d="M41,8.5c0.1,0.1,0.1,0.3,0.2,0.4C41,9,40.9,9,40.8,9.2c-4.2,0.2-8.4,0.4-12.6,0.7c-4.6,0.2-9.3,0.5-13.9,0.8
				c-0.3,0-0.7,0-1,0c-1.2,0.1-2.2-0.2-3.1-1C9.1,8.8,7.9,7.9,6.8,7C6.6,6.9,6.4,6.5,6.5,6.4C6.6,6.2,6.9,6,7.1,6
				c1-0.2,2-0.2,2.9-0.3c4.7-0.3,9.4-0.7,14.1-1C27,4.5,30,4.3,32.9,4c1.2,0,2.3,0.3,3.3,1c1.6,1.1,3.1,2.2,4.6,3.3
				C40.9,8.4,41,8.4,41,8.5z"/>
			<path class="st1" d="M39.4,17.2c0.3,0,0.4,0.1,0.4,0.4c0,0.9-0.2,1.2-1.1,1.4c-0.4,0.1-0.8,0.2-1.2,0.2c0,0.2,0,0.3,0,0.5
				c0,6.4,0,12.8,0,19.2c0,0.4-0.1,0.6-0.5,0.7c-1,0.5-2,0.8-3.1,0.8c-0.6,0-1.2-0.2-1.6-0.7c-0.6-0.7-1.1-1.4-1.6-2.1
				c-2.7-4.2-5.4-8.5-8.1-12.8c-0.1-0.1-0.1-0.2-0.3-0.4c0,0.2,0,0.3,0,0.4c0,4.3,0,8.6,0,12.8c0,0.3,0.1,0.4,0.4,0.5
				c1.1,0.3,1.9,0.5,2.7,0.7c-0.1,0.9-0.8,1.6-1.8,1.6c-1.9,0.1-3.8,0.2-5.7,0.3c-0.3,0-0.6,0-0.8,0.1c-0.2,0-0.3-0.1-0.3-0.3
				c-0.1-0.6,0.3-1.1,0.8-1.2c0.4-0.1,0.7-0.2,1.1-0.3s0.4-0.3,0.4-0.6c0-5.2,0-10.4,0-15.7c0-0.5,0-1,0-1.6c0-0.3-0.1-0.4-0.4-0.4
				c-0.5,0-1-0.1-1.6-0.1c-0.3,0-0.4-0.1-0.4-0.4c0-1,0.7-1.7,1.6-1.7c2.2-0.1,4.3-0.3,6.5-0.5c0.3,0,0.4,0.2,0.5,0.4
				c2.9,4.5,5.8,8.9,8.8,13.4c0.1,0.1,0.2,0.3,0.3,0.5c0-4.2,0-8.4,0-12.6c-0.7-0.1-1.3-0.2-2-0.2C32,19.5,32,19.3,32,19
				c0.1-0.8,0.7-1.3,1.6-1.4c0.9-0.1,1.8-0.1,2.6-0.2C37.3,17.3,38.3,17.3,39.4,17.2z"/>
		</g>
	</g>
</g>
</svg>
