<?xml version="1.0" encoding="utf-8"?>
<!-- Generator: Adobe Illustrator 26.5.3, SVG Export Plug-In . SVG Version: 6.00 Build 0)  -->
<svg version="1.1" id="f" xmlns="http://www.w3.org/2000/svg" xmlns:xlink="http://www.w3.org/1999/xlink" x="0px" y="0px"
	 viewBox="0 0 50 50" style="enable-background:new 0 0 50 50;" xml:space="preserve">
<style type="text/css">
	.st0{fill:#EEEEEE;}
</style>
<g>
	<path class="st0" d="M0.1,31.9c0-6.5,0-10.1,0-16.6c16.6,0,33.2,0,49.8,0c0,6.5,0,10.1,0,16.6c-8.3,0-24.9,0-24.9,0v2.8H14v-2.8
		C13.9,31.9,4.7,31.9,0.1,31.9z M47.1,29.1c0-3.7,0-7.4,0-11.1c-5.6,0-11.1,0-16.6,0c0,3.7,0,7.4,0,11c1.9,0,3.7,0,5.6,0
		c0-2.8,0-5.5,0-8.2c0.9,0,1.8,0,2.7,0c0,2.8,0,5.5,0,8.2c1,0,1.9,0,2.8,0c0-2.8,0-5.5,0-8.2c0.9,0,1.8,0,2.7,0c0,2.8,0,5.5,0,8.2
		C45.3,29.1,46.2,29.1,47.1,29.1z M27.8,18.1c-3.7,0-7.4,0-11.1,0c0,4.6,0,9.2,0,13.8c1.9,0,3.7,0,5.6,0c0-0.9,0-1.8,0-2.8
		c1.9,0,3.7,0,5.5,0C27.8,25.4,27.8,21.8,27.8,18.1z M13.9,18.1c-3.7,0-7.4,0-11.1,0c0,3.7,0,7.4,0,11.1c1.9,0,3.7,0,5.6,0
		c0-2.8,0-5.5,0-8.2c0.9,0,1.8,0,2.7,0c0,2.8,0,5.5,0,8.2c1,0,1.9,0,2.8,0C13.9,25.4,13.9,21.8,13.9,18.1z"/>
	<path class="st0" d="M25,26.3c-0.9,0-1.8,0-2.7,0c0-1.8,0-3.6,0-5.4c0.9,0,1.8,0,2.7,0C25,22.7,25,24.5,25,26.3z"/>
</g>
</svg>
