<?xml version="1.0" encoding="UTF-8"?><svg id="a" xmlns="http://www.w3.org/2000/svg" viewBox="0 0 50 50"><defs><style>.c{fill:#eee;}</style></defs><g id="b"><path class="c" d="m48.9,24.2s0-.1,0,0c-.1-.2-.2-.3-.2-.4-.1-.1-.2-.3-.3-.4-3.8-3.8-7.7-7.7-11.5-11.5-3.9-3.8-7.7-7.6-11.6-11.5-.1-.1-.3-.2-.4-.4l-.2.2c-.1,0-.1.1-.2.2-1.3,1.5-14.8,14.9-16.2,16.3-2.2,2.2-4.4,4.5-6.7,6.6-1,1-1,2.3,0,3.2,7.7,7.6,15.3,15.3,22.9,22.9.1.1.3.2.4.4q.1-.1.2-.2c.1,0,.1-.1.2-.2,3.6-3.6,19.3-19.4,22.9-23,.9-.6,1.1-1.4.7-2.2Zm-16.9,1.2c-.5.5-3.7,3.7-7,7.1-.1-.1-.2-.2-.2-.3-2.4-2.2-4.6-4.6-6.9-6.9-.2-.2-.2-.4,0-.6l7.1-7.1.3.3c1.2,1.1,2.3,2.3,3.5,3.4,1.1,1.2,2.3,2.3,3.4,3.5q.1.1.2.2h0l.1.1c-.3,0-.4.2-.5.3Z"/></g></svg>