<?xml version="1.0" encoding="UTF-8"?><svg id="a" xmlns="http://www.w3.org/2000/svg" viewBox="0 0 50 50"><defs><style>.b{fill:#eee;}</style></defs><g><path class="b" d="m28.43,34.48l2.49,2.35.79-.79-1.26-1.26,2.33-2.62.65-.05c.17-.01.24-.21.12-.33l-.99-.97c1.11-9.08-7.22-7.14-7.22-7.14l3.15,3.15-.66,3.4-.08-.07-3.51.69-3.15-3.15s-1.74,7.9,7.35,6.79Z"/><path class="b" d="m39.02,37.24l-.12.9-2.39,2.32-1.78-1.55-.74.79,8.77,8.3c.97.92,2.5.9,3.45-.05l.07-.07c.99-.99.96-2.6-.05-3.55l-7.21-7.08Z"/></g><polygon class="b" points="44.27 22.81 36.85 29.98 36.85 31.47 35.39 33.18 33.65 33.35 32.05 34.95 33.59 36.49 26.38 43.71 25.14 43.86 21.82 48.12 22.39 48.67 27.02 45.43 27.11 44.35 34.55 37.46 35.9 38.81 37.62 37.09 37.85 35.55 39.33 34.07 40.96 34.01 48.31 26.65 44.27 22.81"/><path class="b" d="m32.82,4.37c-4.99-6.06-23.21-5.59-28-.02-.33.38-.51.87-.51,1.37v24.94c0,.64.3,1.25.8,1.65,4.49,3.52,13.13,4.74,20.34,3.02-1.63-.21-2.91-.81-3.83-1.82-2.12-2.33-1.38-5.85-1.34-5.99.06-.29.28-.53.57-.61.29-.08.6,0,.81.21l2.84,2.84-2.69-2.69V11.22s5.2-.43,7.68-1.29v13.09s-.03,0-.05-.01c.75.23,1.49.59,2.14,1.17.87.78,1.44,1.83,1.71,3.13V5.71c0-.49-.17-.96-.48-1.34Zm-13.9,4.87c-7.03,0-12.72-1.75-12.72-3.9s5.7-3.9,12.72-3.9,12.72,1.75,12.72,3.9-5.7,3.9-12.72,3.9Z"/><g><path class="b" d="m27.19,22.68s.07,0,.11,0c-.04,0-.07,0-.11,0Z"/><path class="b" d="m26.08,22.73s-.06,0-.09,0c.03,0,.06,0,.09,0Z"/><path class="b" d="m25.32,22.84s-.03,0-.05,0c.01,0,.03,0,.05,0Z"/><path class="b" d="m28.79,22.84s-.09-.02-.13-.03c.04,0,.09.02.13.03Z"/><path class="b" d="m27.96,22.72s-.01,0-.02,0c0,0,.01,0,.02,0Z"/></g><g><rect class="b" x="38.59" width="1.9" height="1.65"/><rect class="b" x="41.76" width="1.9" height="1.65"/><rect class="b" x="44.93" width="1.9" height="1.65"/><rect class="b" x="48.1" width="1.9" height="1.65"/><rect class="b" x="48.1" y="2.97" width="1.9" height="1.65"/><rect class="b" x="48.1" y="5.93" width="1.9" height="1.65"/><rect class="b" x="48.1" y="8.9" width="1.9" height="1.65"/></g><g><rect class="b" x="9.51" y="47.75" width="1.9" height="1.65"/><rect class="b" x="6.34" y="47.75" width="1.9" height="1.65"/><rect class="b" x="3.17" y="47.75" width="1.9" height="1.65"/><rect class="b" y="47.75" width="1.9" height="1.65"/><rect class="b" y="44.78" width="1.9" height="1.65"/><rect class="b" y="41.81" width="1.9" height="1.65"/><rect class="b" y="38.85" width="1.9" height="1.65"/></g></svg>