<?xml version="1.0" encoding="utf-8"?>
<!-- Generator: Adobe Illustrator 26.5.3, SVG Export Plug-In . SVG Version: 6.00 Build 0)  -->
<svg version="1.1" id="i" xmlns="http://www.w3.org/2000/svg" xmlns:xlink="http://www.w3.org/1999/xlink" x="0px" y="0px"
	 viewBox="0 0 50 50" style="enable-background:new 0 0 50 50;" xml:space="preserve">
<style type="text/css">
	.st0{fill:#EEEEEE;}
</style>
<g>
	<path class="st0" d="M49.7,22.8C45.9,21,41.8,22,41.8,22c-0.3-4.2-3.9-5.2-3.9-5.2c-3.3,3.7-0.9,7.9-0.9,7.9S35.8,26,31.6,26
		S0.3,26,0.3,26S-1,41,17.9,41S41,26.8,41,26.8C49.9,26.4,49.7,22.8,49.7,22.8z"/>
	<rect x="21.1" y="9" class="st0" width="5.5" height="4.2"/>
	<rect x="21.1" y="14.8" class="st0" width="5.5" height="4.2"/>
	<rect x="21.1" y="20.5" class="st0" width="5.5" height="4.2"/>
	<rect x="14.2" y="14.8" class="st0" width="5.5" height="4.2"/>
	<rect x="14.2" y="20.5" class="st0" width="5.5" height="4.2"/>
	<rect x="7.4" y="14.8" class="st0" width="5.5" height="4.2"/>
	<rect x="7.4" y="20.5" class="st0" width="5.5" height="4.2"/>
	<rect x="0.5" y="20.5" class="st0" width="5.5" height="4.2"/>
	<rect x="27.9" y="20.5" class="st0" width="5.5" height="4.2"/>
</g>
</svg>
