<?xml version="1.0" encoding="utf-8"?>
<!-- Generator: Adobe Illustrator 26.5.3, SVG Export Plug-In . SVG Version: 6.00 Build 0)  -->
<svg version="1.1" id="f" xmlns="http://www.w3.org/2000/svg" xmlns:xlink="http://www.w3.org/1999/xlink" x="0px" y="0px"
	 viewBox="0 0 50 50" style="enable-background:new 0 0 50 50;" xml:space="preserve">
<style type="text/css">
	.st0{fill:#EEEEEE;}
</style>
<path class="st0" d="M42.2,28.5v-6.7c2.9-0.4,5.1-2.9,5.1-5.9c0-3.3-2.7-5.9-5.9-5.9c-1.8,0-3.5,0.8-4.6,2.2l-6.2-3.6
	c0.3-0.7,0.5-1.5,0.5-2.3c0-3.3-2.7-5.9-5.9-5.9c-3.3,0-5.9,2.7-5.9,5.9c0,0.9,0.2,1.7,0.5,2.4l-6.3,3.6c-1.1-1.4-2.8-2.3-4.7-2.3
	c-3.3,0-5.9,2.7-5.9,5.9c0,3.1,2.4,5.7,5.5,5.9v6.6c-3.1,0.2-5.5,2.8-5.5,5.9c0,3.3,2.7,5.9,5.9,5.9c1.9,0,3.7-0.9,4.7-2.4l6.2,3.6
	c-0.3,0.7-0.4,1.4-0.4,2.2c0,3.3,2.7,5.9,5.9,5.9c3.3,0,5.9-2.7,5.9-5.9c0-0.8-0.1-1.5-0.4-2.2l6.1-3.5c1.1,1.3,2.7,2.2,4.6,2.2
	c3.3,0,5.9-2.7,5.9-5.9C47.3,31.4,45.1,28.9,42.2,28.5z M10,28.5v-6.9c2.7-0.6,4.6-3,4.6-5.8c0-0.7-0.1-1.4-0.4-2.1l6.4-3.7
	c0.2,0.3,0.5,0.5,0.7,0.7l-10.4,18C10.6,28.7,10.3,28.6,10,28.5z M29.8,40.1c-1.1-1.4-2.8-2.3-4.7-2.3c-1.9,0-3.5,0.9-4.6,2.2
	l-6.3-3.6c0.1-0.3,0.2-0.7,0.3-1l21-0.1c0.1,0.5,0.2,0.9,0.4,1.3L29.8,40.1z M35.5,33.5l-20.9,0.1c-0.2-1.6-1-2.9-2.1-3.9l10.4-18
	c0.7,0.3,1.5,0.5,2.3,0.5c0.9,0,1.7-0.2,2.4-0.5l10.3,17.8C36.6,30.5,35.7,31.9,35.5,33.5z M40.5,28.5c-0.4,0.1-0.7,0.1-1.1,0.3
	L29,10.8c0.2-0.2,0.5-0.4,0.7-0.7l6.2,3.6c-0.3,0.7-0.5,1.5-0.5,2.3c0,3,2.2,5.4,5.1,5.9V28.5z"/>
</svg>
