<?xml version="1.0" encoding="utf-8"?>
<!-- Generator: Adobe Illustrator 27.2.0, SVG Export Plug-In . SVG Version: 6.00 Build 0)  -->
<svg version="1.1" id="f" xmlns="http://www.w3.org/2000/svg" xmlns:xlink="http://www.w3.org/1999/xlink" x="0px" y="0px"
	 viewBox="0 0 50 50" style="enable-background:new 0 0 50 50;" xml:space="preserve">
<style type="text/css">
	.st0{fill:#EEEEEE;}
</style>
<path class="st0" d="M48.1,5.9L37.2,0.6c-0.9-0.4-1.9-0.3-2.6,0.4L14.7,19.1l-8.9-6.8c-0.4-0.3-1.1-0.3-1.5,0L1,15.2
	c-0.4,0.3-0.6,0.8-0.6,1.3l0,0l0.1,16.9c0.1,0.3,0.2,0.5,0.4,0.7L3.5,37c0.7,0.8,1.9,0.9,2.8,0.2l8.5-6.5l19.7,18
	c1,0.9,2.5,1.2,3.8,0.5l9.6-4.8c1.1-0.6,1.8-1.7,1.8-3V8.6C49.7,7.5,49.1,6.4,48.1,5.9z M6.7,26.4v-3.2l1.7,1.6L6.7,26.4z
	 M37.5,36.5L22.3,25l15.1-11.6L37.5,36.5L37.5,36.5z"/>
</svg>
