<?xml version="1.0" encoding="UTF-8"?><svg id="e" xmlns="http://www.w3.org/2000/svg" viewBox="0 0 50 50"><defs><style>.cls-1{fill:#cd6799;}</style></defs><path class="cls-1" d="M0,21.4c.04-.24,.07-.47,.11-.71,.24-1.26,.79-2.38,1.49-3.43,1.11-1.67,2.51-3.05,4.07-4.29,2.08-1.65,4.36-2.96,6.76-4.06,1.56-.72,3.15-1.37,4.8-1.85,1.08-.32,2.18-.53,3.3-.66,.99-.12,1.99-.15,2.98-.1,1.86,.1,3.67,.45,5.29,1.43,1.32,.79,2.25,1.88,2.54,3.44,.24,1.23,.12,2.43-.27,3.62-.57,1.76-1.59,3.25-2.9,4.55-1.71,1.7-3.75,2.8-6.06,3.44-1,.28-2.01,.5-3.03,.61-1.44,.15-2.87,.18-4.28-.18-1.13-.29-2.11-.86-2.83-1.81-.19-.25-.29-.56-.42-.85-.03-.07-.03-.15-.02-.23,.02-.19,.21-.26,.36-.15,.05,.04,.1,.08,.14,.13,.71,.81,1.64,1.19,2.66,1.41,1.08,.23,2.16,.17,3.24,0,1.73-.26,3.38-.77,4.94-1.57,1.8-.93,3.37-2.14,4.58-3.79,.62-.84,1.1-1.76,1.3-2.79,.17-.88,.13-1.74-.38-2.52-.37-.56-.93-.89-1.53-1.15-.77-.33-1.58-.49-2.42-.58-1.98-.2-3.9,.08-5.81,.57-2.15,.55-4.17,1.42-6.12,2.47-1.68,.9-3.31,1.89-4.81,3.09-1.18,.95-2.25,2-3.04,3.31-.58,.95-.92,1.98-.96,3.09-.03,.97,.26,1.85,.77,2.66,.61,.95,1.41,1.73,2.27,2.43,1.04,.85,2.11,1.65,3.15,2.5,.54,.44,1.04,.94,1.56,1.42,.1,.1,.17,.12,.3,.05,1.57-.87,3.15-1.73,4.73-2.59,.09-.05,.17-.14,.23-.23,.84-1.09,1.85-1.98,3.11-2.55,.45-.2,.91-.32,1.42-.26,.72,.08,1.14,.57,1.29,1.27,.13,.61,.08,1.22-.02,1.82,0,.03,0,.06-.02,.14,.09-.06,.15-.1,.2-.15,.4-.3,1.02-.23,1.36,.14,.19,.21,.16,.45,.09,.7-.29,1.09-.58,2.18-.85,3.28-.16,.63-.29,1.27-.4,1.91-.06,.37-.07,.76,.05,1.21,.11-.11,.19-.18,.24-.27,.29-.54,.6-1.08,.85-1.65,.97-2.14,1.94-4.28,2.89-6.43,.34-.77,.65-1.56,.95-2.35,.11-.3,.18-.61,.25-.92,.04-.19,.15-.31,.32-.36,.28-.08,.56-.16,.85-.19,.46-.06,.93-.1,1.4,.02,.11,.03,.21,.07,.3,.13,.2,.13,.24,.25,.17,.48-.17,.58-.36,1.15-.5,1.74-.15,.63-.07,1.27,0,1.9,.08,.7,.4,1.31,.71,1.93,.01,.02,.03,.04,.06,.07,.04-.04,.07-.08,.1-.12,.97-1.61,1.93-3.23,2.69-4.96,.22-.5,.33-1.05,.49-1.58,.06-.19,.12-.37,.17-.56,.05-.2,.18-.31,.36-.37,.71-.23,1.44-.27,2.18-.16,.1,.02,.2,.06,.29,.11,.24,.13,.28,.27,.21,.53-.17,.57-.35,1.13-.49,1.7-.16,.64-.08,1.29,0,1.94,.12,.97,.65,1.76,1.06,2.62,.06-.02,.11-.02,.16-.05,1.05-.49,2.15-.8,3.31-.93,1.53-.16,3.03-.04,4.46,.56,1.39,.58,2.5,1.5,3.14,2.9,.44,.95,.59,1.94,.23,2.96-.34,.98-1.05,1.63-2,2.02-.12,.05-.27,.06-.4,.06-.05,0-.13-.05-.15-.09-.02-.06,0-.15,.04-.19,.09-.09,.19-.15,.3-.22,.61-.4,1.09-.91,1.31-1.62,.23-.74,.05-1.43-.29-2.09-.51-.99-1.34-1.62-2.34-2.06-.78-.34-1.6-.54-2.45-.6-.58-.04-1.16-.08-1.73-.07-.98,.02-1.93,.21-2.86,.56-.15,.06-.2,.12-.13,.28,.23,.63,.38,1.27,.35,1.94-.04,.7-.34,1.29-.79,1.81-.71,.82-1.58,1.42-2.6,1.77-.35,.12-.71,.24-1.08,.32-.62,.12-1.19-.3-1.3-.92-.11-.66,.07-1.28,.33-1.87,.48-1.11,1.26-2.02,2.14-2.83,.14-.13,.35-.24,.38-.39,.03-.14-.12-.33-.21-.49-.56-1.03-.85-2.15-1.08-3.29,0-.04-.02-.08-.02-.11,0-.03-.02-.06-.04-.13-.05,.08-.09,.14-.12,.19-.84,1.66-1.76,3.27-2.82,4.79-.08,.11-.07,.21-.02,.33,.25,.57,.44,1.16,.49,1.78,.11,1.19-.23,2.24-1.14,3.04-.91,.81-2,1.28-3.2,1.46-.42,.07-.86,.08-1.28,.04-.73-.08-1.01-.67-.63-1.3,.17-.28,.37-.54,.58-.79,.79-.96,1.58-1.92,2.37-2.88,.17-.21,.32-.44,.49-.66,.09-.11,.08-.2,.02-.32-.23-.47-.47-.94-.68-1.43-.37-.84-.57-1.74-.75-2.64,0-.03-.02-.06-.04-.15-.05,.1-.09,.16-.11,.22-.77,1.89-1.56,3.76-2.5,5.57-.6,1.17-1.23,2.32-1.86,3.48-.28,.5-.65,.95-1.1,1.31-.53,.42-1.1,.46-1.53,.09-.34-.28-.48-.68-.55-1.09-.15-.78-.11-1.57-.02-2.35,.01-.1,.02-.2,0-.32-.03,.06-.06,.12-.09,.18-.5,1.08-1,2.16-1.52,3.23-.15,.3-.38,.58-.61,.83-.58,.64-1.96,.61-2.52-.17-.57-.8-.9-1.68-1.11-2.62-.14-.63-.2-1.27-.15-1.92,.08-1.06,.23-2.12,.58-3.13,.02-.06,.04-.13,.05-.2-.01-.02-.03-.03-.04-.05-.93,.53-1.87,1.07-2.8,1.6,0,.05,0,.07,.02,.09,.44,.91,.6,1.88,.61,2.88,.03,1.98-.48,3.8-1.72,5.37-1.29,1.63-2.94,2.68-5,3.06-1.01,.18-2.02,.13-3.01-.15-.45-.13-.78-.44-1.05-.81-.63-.86-.82-1.84-.71-2.88,.16-1.47,.86-2.65,1.91-3.66,1.1-1.06,2.35-1.94,3.67-2.71,.78-.46,1.58-.87,2.38-1.31,.06-.03,.12-.07,.22-.13-.12-.1-.21-.2-.32-.27-1.13-.81-2.27-1.62-3.4-2.43-1.38-.98-2.73-1.99-3.88-3.23-.88-.94-1.62-1.98-2-3.22-.09-.29-.13-.59-.2-.89,0-.04-.03-.08-.05-.13,0-.13,0-.26,0-.39Zm11.04,11.58c-.08,.03-.12,.04-.16,.06-1.24,.72-2.45,1.49-3.57,2.39-.74,.6-1.46,1.22-1.95,2.06-.42,.7-.71,1.45-.69,2.28,.02,.65,.32,1.04,.91,1.16,.46,.09,.91,.02,1.35-.12,1.35-.43,2.39-1.28,3.2-2.42,.96-1.34,1.31-2.84,1.1-4.47-.04-.31-.12-.62-.19-.95Zm6.17,1.1c.05,.4,.07,.8,.14,1.2,.04,.23,.13,.47,.23,.68,.15,.28,.35,.3,.58,.08,.09-.09,.18-.19,.24-.3,.12-.19,.24-.39,.34-.59,.93-2.06,1.75-4.17,2.37-6.35,.1-.34,.16-.7,.23-1.05,.09-.47-.15-.68-.6-.54-.21,.07-.42,.17-.61,.29-.58,.37-.97,.91-1.33,1.49-.97,1.56-1.56,3.24-1.59,5.09Zm20.09-3.01s-.06,0-.07,0c-.03,.02-.05,.04-.08,.06-.87,.78-1.46,1.74-1.8,2.85-.04,.15-.05,.31-.06,.46,0,.14,.07,.18,.21,.13,1.37-.53,2.02-1.55,1.93-2.92-.01-.2-.08-.4-.13-.59Zm-9.15,5.15s.03,.06,.05,.08c.14-.04,.3-.05,.43-.13,.75-.44,1.4-.98,1.8-1.76,.17-.34,.28-.71,.22-1.11-.84,.98-1.67,1.95-2.5,2.92Z"/></svg>