<?xml version="1.0" encoding="utf-8"?>
<!-- Generator: Adobe Illustrator 27.2.0, SVG Export Plug-In . SVG Version: 6.00 Build 0)  -->
<svg version="1.1" id="e" xmlns="http://www.w3.org/2000/svg" xmlns:xlink="http://www.w3.org/1999/xlink" x="0px" y="0px"
	 viewBox="0 0 50 50" style="enable-background:new 0 0 50 50;" xml:space="preserve">
<style type="text/css">
	.st0{fill:#40C4FF;}
	.st1{fill:#02589B;}
	.st2{fill:#01579B;}
</style>
<g>
	<g>
		<path class="st0" d="M8.4,8.4l16.3-7.9c2.2-1.1,4.8-0.6,6.5,1.1L50,20.5v20.4L41,41L8.4,8.4z"/>
		<path class="st1" d="M8.4,8.4h27.7c1.2,0,2.3,0.5,3.1,1.3L50,20.5v20.4L41,41L8.4,8.4z"/>
	</g>
	<g>
		<path class="st2" d="M8.5,8.4L0.6,24.7c-1.1,2.2-0.6,4.8,1.1,6.5L20.6,50H41l0.1-9L8.5,8.4z"/>
		<path class="st0" d="M8.5,8.4v27.7c0,1.2,0.5,2.3,1.3,3.1L20.6,50H41l0.1-9L8.5,8.4z"/>
	</g>
</g>
</svg>
