<?xml version="1.0" encoding="UTF-8"?><svg id="j" xmlns="http://www.w3.org/2000/svg" viewBox="0 0 50 50"><defs><style>.k{fill:#f7df1e;}</style></defs><rect class="k" width="50" height="50"/><g><path d="m29.77,41.26c1.27-.74,2.53-1.47,3.81-2.22.06.09.12.16.17.24.62.96,1.37,1.79,2.46,2.22,1.26.5,2.55.57,3.82.02,1.16-.49,1.64-1.62,1.23-2.75-.17-.45-.46-.82-.87-1.06-.69-.4-1.4-.76-2.11-1.11-1.13-.55-2.29-1.04-3.41-1.61-.79-.4-1.49-.96-2.09-1.62-.98-1.08-1.47-2.35-1.58-3.79-.09-1.13.03-2.23.5-3.26.73-1.62,1.98-2.69,3.65-3.23,2.17-.69,4.33-.64,6.42.33,1.22.57,2.44,1.84,2.99,3.02-1.21.78-2.43,1.56-3.66,2.35-.11-.17-.21-.34-.32-.5-.47-.7-1.05-1.25-1.9-1.43-.53-.11-1.06-.13-1.59.02-1.76.5-1.74,2.55-.9,3.38.49.48,1.08.78,1.68,1.06,1.31.6,2.63,1.17,3.91,1.81,1,.5,1.91,1.15,2.66,2,.93,1.06,1.38,2.32,1.48,3.71.08,1.09-.02,2.14-.43,3.16-.71,1.76-2.04,2.86-3.79,3.49-1.48.54-3,.67-4.56.54-1.53-.12-2.98-.51-4.3-1.28-1.35-.79-2.4-1.88-3.15-3.26-.03-.06-.06-.12-.09-.17,0-.01,0-.03-.02-.09Z"/><path d="m13.15,41.78c1.29-.78,2.55-1.54,3.84-2.32.06.09.1.17.16.25.33.46.62.96.99,1.38.52.6,1.22.8,2,.78.19,0,.39-.02.58-.06,1.05-.2,1.61-.82,1.73-1.97.04-.38.06-.76.06-1.14,0-5.13,0-10.27,0-15.4q0-.36.37-.36c1.37,0,2.73,0,4.1,0,.21,0,.28.05.28.27,0,5.28,0,10.56,0,15.84,0,1.11-.15,2.2-.57,3.24-.63,1.58-1.73,2.7-3.32,3.26-2.25.8-4.5.77-6.7-.19-1.63-.71-2.74-1.97-3.52-3.59Z"/></g></svg>