<?xml version="1.0" encoding="UTF-8"?><svg id="a" xmlns="http://www.w3.org/2000/svg" viewBox="0 0 50 50"><defs><style>.b{fill:#db7533;}.c{fill:#eee;}</style></defs><path class="c" d="m18.45,21.69c.18.05.44.25.45.39.04.78.02,1.57.02,2.36-.78-.2-1.47-.39-2.17-.55-.17-.04-.39-.09-.53-.02-.3.16-.56.38-.83.58.19.25.34.58.6.73.68.39,1.43.67,2.11,1.07,1.18.71,1.61,1.82,1.35,3.14-.24,1.18-1.03,1.96-2.17,2.32-1.55.48-3.11.45-4.68-.01-.43-.12-.64-.33-.62-.81.03-.74,0-1.47,0-2.26.85.31,1.56.58,2.28.84.04.02.08.03.13.04.71.17,1.45-.01,1.48-.42.06-.65-.5-.84-.98-1.03-1-.39-1.99-.78-2.58-1.77-1.05-1.79-.23-4.15,2.37-4.72,1.25-.28,2.52-.24,3.76.12Z"/><path class="c" d="m34.21,21.54c.52-.02.67.19.67.68-.02,2.09.02,4.18-.02,6.27-.02.67.2.88.85.83s1.32.01,1.97-.02c.49-.03.65.17.61.63-.03.45-.03.91,0,1.36.02.43-.11.61-.57.61-1.84-.02-3.68-.03-5.52,0-.51.01-.6-.22-.59-.66.01-1.49,0-2.99,0-4.49s.02-3-.01-4.5c0-.53.17-.74.71-.71.63.03,1.27.03,1.9,0Z"/><path class="c" d="m26.55,25.04c-.57-1.12-2.1-1.11-2.7.01-.28.52-.36,1.15-.51,1.65.12.51.19.92.31,1.3.24.8.76,1.27,1.49,1.26.69-.01,1.2-.39,1.5-1.01.51-1.08.44-2.19-.09-3.21Zm1.16,6.47c1.07.92,2.12,1.82,3.17,2.73-.03.08-.05.15-.08.23-.64,0-1.29-.08-1.91.02-1.37.2-2.41-.22-3.18-1.37-.52-.76-1.26-1.13-2.17-1.35-2.06-.49-3.47-2.41-3.53-4.53-.05-2,.47-3.73,2.19-4.91,2.78-1.91,7.43-.92,8.06,3.3.37,2.49-.41,4.44-2.55,5.88Z"/><path class="c" d="m37.18,4.91c1.77.98,1.7,2.63-.05,3.68-1.42.85-2.99,1.28-4.58,1.62-3.35.72-6.74.81-10.14.65-2.41-.11-4.82-.42-7.12-1.22-1.01-.35-2-.83-2.89-1.42-1.28-.86-1.27-2.3.09-3.08,1.23-.72,2.6-1.28,3.97-1.67,1.4-.4,2.88-.57,4.34-.72,1.43-.15,2.88-.15,4.33-.22,2.84-.06,5.66.23,8.41.93,1.25.32,2.5.82,3.64,1.45Z"/><path class="b" d="m26.55,25.04c.53,1.02.6,2.13.09,3.21-.3.62-.81,1-1.5,1.01-.73.01-1.25-.46-1.49-1.26-.12-.38-.19-.79-.31-1.3.15-.5.23-1.13.51-1.65.6-1.12,2.13-1.13,2.7-.01Z"/><path class="b" d="m34.21,21.54c-.63.03-1.27.03-1.9,0-.54-.03-.71.18-.71.71.03,1.5.01,3,.01,4.5s.01,3,0,4.49c-.01.44.08.67.59.66,1.84-.03,3.68-.02,5.52,0,.46,0,.59-.18.57-.61-.03-.45-.03-.91,0-1.36.04-.46-.12-.66-.61-.63-.65.03-1.32-.03-1.97.02s-.87-.16-.85-.83c.04-2.09,0-4.18.02-6.27,0-.49-.15-.7-.67-.68ZM15.98.98c2.16-.42,4.38-.61,6.58-.85,1.03-.11,2.08-.15,3.12-.12,2.99.07,5.95.4,8.86,1.14,2.43.62,4.76,1.45,6.83,2.89,1.08.75,2.02,1.63,2.3,2.99.06.29.07.59.07.88.01,5.75.01,11.49.01,17.24s-.08,11.04.04,16.56c.04,2.25-1.02,3.64-2.75,4.7-2.84,1.76-6,2.68-9.28,3.07-2.53.3-5.09.48-7.64.52-2.97.04-5.9-.38-8.79-1.12-2.25-.58-4.41-1.35-6.38-2.6-1.73-1.1-2.75-2.51-2.73-4.73.06-11.06.06-22.12-.01-33.18-.01-2.05.87-3.4,2.42-4.48,2.22-1.53,4.74-2.39,7.35-2.91Zm4.03,26.26c.06,2.12,1.47,4.04,3.53,4.53.91.22,1.65.59,2.17,1.35.77,1.15,1.81,1.57,3.18,1.37.62-.1,1.27-.02,1.91-.02.03-.08.05-.15.08-.23-1.05-.91-2.1-1.81-3.17-2.73,2.14-1.44,2.92-3.39,2.55-5.88-.63-4.22-5.28-5.21-8.06-3.3-1.72,1.18-2.24,2.91-2.19,4.91Zm-7.69-.95c.59.99,1.58,1.38,2.58,1.77.48.19,1.04.38.98,1.03-.03.41-.77.59-1.48.42-.05-.01-.09-.02-.13-.04-.72-.26-1.43-.53-2.28-.84,0,.79.02,1.52,0,2.26-.02.48.19.69.62.81,1.57.46,3.13.49,4.68.01,1.14-.36,1.93-1.14,2.17-2.32.26-1.32-.17-2.43-1.35-3.14-.68-.4-1.43-.68-2.11-1.07-.26-.15-.41-.48-.6-.73.27-.2.53-.42.83-.58.14-.07.36-.02.53.02.7.16,1.39.35,2.17.55,0-.79.02-1.58-.02-2.36-.01-.14-.27-.34-.45-.39-1.24-.36-2.51-.4-3.76-.12-2.6.57-3.42,2.93-2.37,4.72ZM16.46,3.47c-1.37.39-2.74.95-3.97,1.67-1.36.78-1.37,2.22-.09,3.08.89.59,1.88,1.07,2.89,1.42,2.3.8,4.71,1.11,7.12,1.22,3.4.16,6.79.07,10.14-.65,1.59-.34,3.16-.77,4.58-1.62,1.75-1.05,1.82-2.7.05-3.68-1.14-.63-2.39-1.13-3.64-1.45-2.75-.7-5.57-.99-8.41-.93-1.45.07-2.9.07-4.33.22-1.46.15-2.94.32-4.34.72Z"/></svg>