<?xml version="1.0" encoding="UTF-8"?><svg id="e" xmlns="http://www.w3.org/2000/svg" viewBox="0 0 50 50"><defs><style>.k{fill:#fff;}.l{fill:#3178c6;}</style></defs><rect class="l" y="0" width="50" height="50"/><g><path class="k" d="m30.9,40.84c2.32.52,4.39,1.14,6.51,1.4,1.24.15,2.67-.23,3.06-1.71.41-1.55-.83-2.28-1.95-2.89-1.31-.71-2.73-1.22-4.05-1.93-2.72-1.47-3.97-3.8-3.59-6.5.36-2.61,2.35-4.73,5.33-5.14,2.19-.3,4.45-.12,6.68-.07,1.34.03,2.13.62,1.88,2.17-.13.82-.02,1.68-.02,2.34-1.88-.34-3.6-.74-5.34-.94-.7-.08-1.5.16-2.16.46-1.49.69-1.71,2.12-.46,3.18.73.62,1.66,1.01,2.51,1.48,1.4.78,2.94,1.38,4.2,2.35,3.52,2.73,2.85,8.34-1.22,10.13-3.42,1.51-6.97,1.27-10.46.12-.4-.13-.83-.77-.88-1.22-.12-1.18-.04-2.38-.04-3.24Z"/><path class="k" d="m22.83,45.74h-5.04v-17.68h-6.22v-3.91h17.43v3.84h-6.16v17.75Z"/></g></svg>