<?xml version="1.0" encoding="UTF-8"?><svg id="b" xmlns="http://www.w3.org/2000/svg" viewBox="0 0 50 50"><defs><style>.k{fill:#fff;}.l{fill:#822c98;}.m{fill:#68217a;}.n{fill:#953dac;}</style></defs><path class="n" d="m45.28,11.64L26.43.75c-.89-.51-1.98-.51-2.86,0L4.72,11.64c-.89.51-1.43,1.46-1.43,2.48v21.77c0,1.02.55,1.97,1.43,2.48l18.85,10.88c.89.51,1.98.51,2.86,0l18.85-10.88c.89-.51,1.43-1.46,1.43-2.48V14.12c0-1.02-.55-1.97-1.43-2.48Z"/><path class="m" d="m25.07,24.97L3.69,37.35c.25.41.6.77,1.03,1.02l18.85,10.88c.89.51,1.98.51,2.86,0l18.85-10.88c.47-.27.84-.66,1.09-1.12l-21.3-12.27Z"/><path class="l" d="m46.33,12.68l-21.26,12.3,21.3,12.27c.22-.41.34-.87.34-1.36V14.12c0-.52-.14-1.01-.39-1.44Z"/><path class="k" d="m31.17,28.52c-1.24,2.08-3.51,3.47-6.1,3.47-3.93,0-7.11-3.18-7.11-7.11s3.18-7.11,7.11-7.11c2.67,0,4.99,1.47,6.2,3.64l6.33-3.63c-2.48-4.36-7.16-7.3-12.53-7.3-7.95,0-14.4,6.45-14.4,14.4s6.45,14.4,14.4,14.4c5.29,0,9.9-2.85,12.41-7.09l-6.3-3.67Z"/><path class="k" d="m43.14,23.32v-1.33h-1.03l.3-1.83h-1.24l-.3,1.83h-2.02l.3-1.83h-1.24l-.3,1.83h-1.45v1.33h1.23l-.32,1.97h-1.24v1.19h1.05l-.31,1.93h1.24l.31-1.93h2.02l-.31,1.93h1.24l.31-1.93h1.43v-1.19h-1.24l.32-1.97h1.24Zm-2.8,1.97h-2.02l.32-1.97h2.02l-.32,1.97Z"/></svg>