<?xml version="1.0" encoding="utf-8"?>
<!-- Generator: Adobe Illustrator 27.2.0, SVG Export Plug-In . SVG Version: 6.00 Build 0)  -->
<svg version="1.1" id="a" xmlns="http://www.w3.org/2000/svg" xmlns:xlink="http://www.w3.org/1999/xlink" x="0px" y="0px"
	 viewBox="0 0 285.4 87.5" style="enable-background:new 0 0 285.4 87.5;" xml:space="preserve">
<style type="text/css">
	.st0{fill:#212121;}
</style>
<g>
	<polygon class="st0" points="135,0 124.2,30.1 154.5,30.1 105.6,85.7 121.8,39.1 91.5,39.1 105,0 79,0 79,87.5 166.6,87.5 
		166.6,27.4 179.1,27.4 179.1,87.5 206.5,87.5 206.5,0 206,0 	"/>
	<path class="st0" d="M0,87.5h27.4V49.3c4.6,0.7,10.8,2.8,17.3,8.8V39.4c0,0-8-1.4-17.3,3.6V27.5h39.4V0H0V87.5L0,87.5z"/>
	<path class="st0" d="M245.8,49.3c4.6,0.7,10.8,2.8,17.3,8.8V39.4c0,0-8-1.4-17.3,3.6V27.5h39.4V0h-66.8v87.5h67V60.1h-39.6V49.3
		L245.8,49.3z"/>
</g>
</svg>
