<?xml version="1.0" encoding="utf-8"?>
<!-- Generator: Adobe Illustrator 26.5.3, SVG Export Plug-In . SVG Version: 6.00 Build 0)  -->
<svg version="1.1" id="a" xmlns="http://www.w3.org/2000/svg" xmlns:xlink="http://www.w3.org/1999/xlink" x="0px" y="0px"
	 viewBox="0 0 90 28" style="enable-background:new 0 0 90 28;" xml:space="preserve">
<style type="text/css">
	.st0{fill:#212121;}
</style>
<g>
	<polygon class="st0" points="42.6,0.2 39.2,9.7 48.7,9.7 33.3,27.2 38.4,12.5 28.9,12.5 33.1,0.2 24.9,0.2 24.9,27.8 52.5,27.8 
		52.5,8.8 56.5,8.8 56.5,27.8 65.1,27.8 65.1,0.2 65,0.2 	"/>
	<path class="st0" d="M0,27.8h8.6v-12c1.5,0.2,3.4,0.9,5.5,2.8v-5.9c0,0-2.5-0.4-5.5,1.1V8.9h12.4V0.2H0V27.8L0,27.8z"/>
	<path class="st0" d="M77.5,15.8c1.5,0.2,3.4,0.9,5.5,2.8v-5.9c0,0-2.5-0.4-5.5,1.1V8.9h12.4V0.2H68.9v27.6H90v-8.6H77.5L77.5,15.8
		L77.5,15.8z"/>
</g>
</svg>
