<?xml version="1.0" encoding="UTF-8"?><svg id="a" xmlns="http://www.w3.org/2000/svg" viewBox="0 0 300 300"><defs><style>.b{fill:#f9f9f9;}</style></defs><path class="b" d="m210.77,61.55c1.19,2.75,2.38,6.14,3.39,10.18,3.21,12.56,5.32,34.29-2.38,67.11,8.34,4.49,15.77,9.53,21.82,14.85,1.47.64,4.49,2.02,5.96,2.75,2.29,1.1,4.49,2.2,6.69,3.3,2.38-10.18,6.33-29.98,4.68-38.41-5.23-27.14-22.46-46.57-40.15-59.77Z"/><path class="b" d="m130.37,111.97c1.19-.09,2.93-1.01,4.58-7.61,1.01-4.22.28-8.16-1.01-9.44-3.3-3.39-13.94-6.51-28.33-8.43-13.29-1.83-25.03-1.93-28.97-1.01-1.19,5.5-4.4,13.29-5.96,17.05,1.28.09,2.93.18,4.58.18,4.95.18,12.38.46,21.45,1.65,11.28,1.56,19.25,3.94,25.12,5.59,3.85,1.19,6.88,2.11,8.53,2.02Zm-49.32-16.59c-1.19-.09-2.11-1.1-2.02-2.29,0-1.19,1.1-2.11,2.29-2.11,1.19.09,2.11,1.1,2.02,2.29-.09,1.19-1.1,2.11-2.29,2.11Zm13.2.55c-1.19-.09-2.11-1.1-2.11-2.29.09-1.19,1.1-2.11,2.29-2.02,1.19,0,2.11,1.01,2.02,2.2,0,1.19-1.01,2.11-2.2,2.11Zm13.11,1.83c-1.19-.09-2.11-1.1-2.11-2.29.09-1.19,1.1-2.11,2.29-2.02,1.19,0,2.11,1.01,2.02,2.2,0,1.19-1.01,2.2-2.2,2.11Zm10.91,1.1c.09-1.19,1.1-2.11,2.29-2.11,1.19.09,2.11,1.1,2.02,2.29,0,1.19-1.01,2.11-2.2,2.11-1.19-.09-2.11-1.1-2.11-2.29Z"/><path class="b" d="m284.2,178.16l-.18-.18c-6.88-5.96-14.94-11.46-25.21-17.14,2.48-11,6.51-31.26,4.4-41.99-7.43-38.5-35.66-62.8-58.95-76.64-.27-4.22-2.29-10.73-12.19-14.3-6.6-2.38-11.55-.83-14.76,1.1-19.99-7.98-38.6-11.83-48.5-12.01-25.67-.64-64.45,9.26-76.83,19.71-11.37,9.44-22.28,40.06-25.67,50.33-4.13,5.59-10.63,15.31-11.73,20.9-1.56,7.98,1.56,16.32,7.88,21.54-1.38,6.14-2.57,12.65-3.39,19.53-.18.37-.46.82-.64,1.28-.64,1.19-1.28,2.38-1.83,3.58C7.98,170.18-.64,194.94,6.88,219.96v.18c4.4,13.11,14.39,25.67,28.79,36.3,12.1,8.89,26.77,16.14,41.35,20.35,14.21,4.13,28.88,6.23,43.36,6.23,10.08,0,20.17-1.01,29.98-3.03,14.3-1.38,26.86-4.49,37.4-9.44,13.66-4.13,24.85-13.48,32.73-27.23,4.31.09,8.53-.46,12.56-1.74,7.79-2.48,18.34-8.71,25.85-24.11,7.33.92,13.48.82,19.16-.28,9.53-1.74,18.79-8.53,17.88-19.71v-.09c-.92-8.53-6.51-14.39-11.73-19.25Zm-109.19-13.02c-.09,1.38-.73,3.21-1.1,4.49-.64,2.66-2.66,9.81-3.48,12.56-.92,3.03-2.48,9.9-3.94,12.74-3.67,7.33-12.38,11.92-20.81,11-6.51-.46-13.66-4.4-14.67-10.91,3.58,2.48,6.88,4.86,11,6.23,7.79,2.38,15.77-.92,19.53-7.24-2.02,1.1-4.4,1.65-6.88,1.38-.64-.09-1.28-.18-1.92-.37-2.93-.73-5.41-2.57-6.97-5.13-1.56-2.57-2.02-5.5-1.19-8.34l4.03-14.67c.83-2.84,2.66-5.13,5.41-6.6,2.66-1.47,5.78-1.83,8.71-1.1,3.02.83,5.5,2.66,7.06,5.23.09.09.09.27.18.37.46-2.57.18-5.23-.73-7.7-3.76-10.18-17.69-13.94-26.31-6.78-2.57,2.02-4.49,4.86-5.68,7.98l-.73,2.02c-.92,2.57-3.48,9.53-4.4,12.19-.09-2.93.27-5.78.64-8.71.55-2.93,1.01-5.87,2.02-8.62,4.86-13.11,22.46-16.87,33.28-7.61,5.13,4.31,7.88,11.09,6.97,17.6Zm-118.91,11.55c-.55-.09-1.19-.18-1.74-.37-2.84-.73-5.13-2.57-6.6-5.04-1.38-2.48-1.74-5.41-1.01-8.16l3.85-14.39c.73-2.75,2.57-5.04,5.04-6.51,2.48-1.47,5.41-1.83,8.16-1.1,2.75.82,5.13,2.57,6.51,5.04.09.18.18.27.27.46.37-2.57.18-5.13-.73-7.52-3.48-10.08-16.41-13.66-24.48-6.69-2.38,2.11-4.22,4.86-5.32,7.88l-.73,2.02c-.92,2.48-3.21,9.35-4.13,12.01,0-2.84.27-5.68.64-8.53.46-2.93.92-5.78,1.83-8.53,4.58-12.84,21.09-16.69,31.17-7.61,4.77,4.22,7.24,10.91,6.42,17.24-.18,1.38-.73,3.12-1.01,4.49-.73,2.57-2.66,9.53-3.3,12.19-1.01,3.03-2.48,9.81-3.85,12.56-3.48,7.24-11.55,11.73-19.44,10.91-6.05-.46-12.74-4.22-13.66-10.63,3.3,2.48,6.42,4.77,10.27,6.05,7.24,2.29,14.76-1.01,18.24-7.24-1.93,1.1-4.13,1.65-6.42,1.47Zm41.25,32.45l-19.99-3.94-12.65-4.86,22.46-21.82-7.7,24.02,17.88,6.6Zm-9.72-30.25c4.95,7.79,9.53,20.26,9.99,29.52l-.09-.09-9.9-29.43Zm-31.08,27.23l7.06,1.38c-1.74,8.89,5.13,16.87,16.78,19.44,7.61,1.65,16.23.27,22-3.58,2.11-1.38,4.86-3.76,5.5-7.15l7.06,1.38c-.92,4.58-3.94,8.71-8.62,11.83-5.32,3.48-12.28,5.32-19.34,5.32-2.75,0-5.5-.28-8.16-.83-15.4-3.39-24.75-15.04-22.28-27.78Zm39.42-96.54c-8.8-1.19-15.77-1.47-20.9-1.56-6.51-.27-8.98-.37-10.08-2.48-.55-.92-.55-2.02,0-3.03.55-1.28,5.13-11.92,6.51-18.34.37-1.47,1.19-2.57,2.48-3.3-1.83-1.28-5.5-3.12-12.74-4.49,0,0,6.51-5.32,14.94-4.03-1.1-3.48-11.83-24.39-16.5-24.75,0,0,25.4-7.15,35.75,11.73.73-7.61,4.4-13.84,4.4-13.84-.37,6.51,8.07,16.69,12.38,21.36,13.48,3.67,20.26,12.38,23.29,22.64.83.55,1.56,1.1,2.2,1.65,3.21,3.3,3.48,9.81,2.38,14.48-.73,3.03-2.75,11.09-9.44,11.55h-.55c-2.48,0-5.41-.92-9.81-2.2-5.68-1.65-13.48-3.94-24.3-5.41Zm180.33,102.86c-6.51,1.19-13.02.92-19.53,0-.46-.09-.92-.18-1.38-.27-6.78,16.04-16.78,22.28-24.39,24.66-3.85,1.19-7.33,1.56-10.18,1.56-1.38,0-2.57-.09-3.58-.18-7.06,13.57-18.52,24.48-34.2,28.14,18.98-13.29,28.88-29.15,35.94-50.97,2.29-6.78,4.13-13.84,6.33-20.99.46,3.76.46,7.43.37,11.18-.27,8.98-2.2,18.15-5.68,26.59,7.61.28,23.19-2.48,31.45-27.04,3.67-10.73,3.39-20.17-.64-27.96-2.29-4.4-5.5-7.79-8.8-10.36-2.02-1.1-3.94-2.11-5.96-3.12-1.19-.55-3.21-1.56-4.77-2.29-2.75,20.26-11.46,38.14-15.13,37.86-1.83-.09,1.1-23.01,1.1-23.01-12.19-12.65-11.92-26.77-11.18-32.45-18.98-10.91-39.6-18.89-60.42-25.76,20.54,2.2,44.1,9.44,63.44,19.44,7.43-31.72,5.41-52.62,2.29-64.82-1.65-6.69-3.85-11.46-5.59-14.58-4.22-2.84-8.43-5.41-12.38-7.61-26.68-14.67-54-20.63-64.91-20.9-22.55-.55-58.4,8.25-68.58,16.87-8.34,6.88-18.98,35.48-22.37,45.93l-.18.55-.27.46c-4.03,5.41-9.9,14.3-10.45,17.24-.18.92-.18,1.83-.09,2.75,3.67-3.3,13.2-9.63,32-9.63,0,.09-8.34,1.19-17.51,7.24-5.5,16.14-10.08,32.55-13.57,49.23-.92,4.22-2.75,12.65-3.58,16.87-.37-3.03-.55-6.14-.64-9.35-5.41,13.11-8.53,27.41-6.23,41.53.37,2.29.92,4.68,1.56,7.06,2.2,6.88,6.42,12.93,11.18,18.43,20.35,22.46,50.51,34.38,80.31,37.4,13.94,1.28,28.05.73,41.99-.92,6.33-.73,12.65-1.74,19.07-2.75-4.77,1.93-9.72,3.48-14.76,4.77-25.39,6.69-52.62,5.87-77.83-1.47-25.76-7.43-57.67-26.68-66.65-53.45-6.33-20.99-.64-43.46,9.35-62.34.92-1.83,1.92-3.76,2.84-5.59.92-7.52,2.2-15.13,4.03-22.55-6.33-3.76-9.9-11.46-8.53-18.61,1.1-5.32,9.08-16.41,11.37-19.62,2.02-6.05,13.38-39.51,24.29-48.68,11.46-9.63,49.14-19.16,73.43-18.52,8.89.18,27.96,3.94,48.77,12.56,2.2-1.83,6.42-4.22,12.65-1.93,9.44,3.3,9.44,9.72,8.98,12.47,23.29,13.29,51.61,36.85,58.86,74.44,2.2,11.37-3.57,36.4-5.13,43.18,9.63,5.13,18.89,10.91,27.23,18.15,4.68,4.4,9.63,9.53,10.36,16.41.64,8.53-6.78,13.48-14.12,14.76Zm-41.16-21.45l-1.01-1.19s.55.09,1.28.37c.55-2.11,1.65-3.67,2.93-4.49,1.38-.92,3.21-1.38,5.59-.37,7.24,2.66,4.22,11.28,4.22,11.28,0,0-.46-6.6-3.58-7.24.09,2.66-1.01,6.14-1.65,10.18-.92,5.68-3.85,12.38-7.98,13.2.46.46,1.38.64,2.48,1.01,1.74.46,3.58-.92,4.13-1.28-.46.92-2.75,4.22-7.52,3.12-2.57-.64-3.3-2.48-3.3-4.31,0-2.11.92-4.13.92-4.13-.92,0-1.65-.18-1.65-.18l2.02-.92s5.04-1.65,5.96-6.23c.83-4.68-2.84-8.8-2.84-8.8Zm-55.04-78.05c-2.09,2.85-3.08,4.27-4.97,7.26,4.2-2.95,6.63-4.29,11.52-6.97-2.28-.67-3.48-1.01-5.66-1.7,1.39-1.84,2.11-2.75,3.53-4.62,5.24,1.68,8,2.37,12.68,3.97l.09.03c-1.52,6.19-2.36,8.95-4.26,15.26-1.95-.72-2.93-1.06-4.92-1.72,1.31-4.26,1.97-6.23,3.2-10.32-.89-.28-1.34-.42-2.26-.7-1.27,4.08-1.94,6.04-3.24,10.29-6.46-1.97-9.29-2.79-15.1-4.56,1.32-6.33,1.92-9.26,3.52-15.65,1.92.62,2.87.94,4.78,1.58-1.76,2.48-2.63,3.68-4.25,6.14,2.13.68,3.19,1.03,5.35,1.71Zm25.11,8.3c-.28,1.31-.42,1.96-.74,3.29-.89-1.46-1.88-2.23-2.66-2.64-.18.76-.28,1.14-.47,1.91,2.78,1.01,4.17,1.53,7.05,2.48-.44,1.94-.68,2.92-1.24,4.98-4.91-1.51-7.25-2.53-12.01-4.32,1.89-6.37,2.67-9.16,4.09-15.36,4.35,1.56,6.43,2.43,11.02,4.46-.27,1.83-.41,2.74-.74,4.59-2.79-1.05-4.13-1.58-6.8-2.58-.24,1.08-.36,1.62-.61,2.71,1.8-.28,3.13.48,3.13.48Zm-34.37-13.48c-2.86-.87-4.3-1.29-7.27-2-.21,1.14-.32,1.71-.52,2.84,1.9-.5,3.32.15,3.32.15-.25,1.36-.37,2.04-.61,3.39-.98-1.38-2.07-2.05-2.91-2.37-.48,2.8-.7,4.19-1.21,7.01-2.08-.43-3.17-.63-5.49-.96,1.38-6.52,1.72-9.7,3.33-16.3,4.97.96,7.52,1.71,12.49,3.26-.48,2.01-.7,3-1.13,4.97Z"/></svg>