<?xml version="1.0" encoding="utf-8"?>
<!-- Generator: Adobe Illustrator 26.5.3, SVG Export Plug-In . SVG Version: 6.00 Build 0)  -->
<svg version="1.1" id="a" xmlns="http://www.w3.org/2000/svg" xmlns:xlink="http://www.w3.org/1999/xlink" x="0px" y="0px"
	 viewBox="0 0 43 43" style="enable-background:new 0 0 43 43;" xml:space="preserve">
<style type="text/css">
	.st0{fill:#212121;}
	.st1{fill:#F9F9F9;}
</style>
<g>
	<circle class="st0" cx="21.5" cy="21.5" r="21.5"/>
	<g>
		<g>
			<g>
				<path class="st1" d="M30,11c0.1,0.3,0.3,0.7,0.4,1.2c0.4,1.5,0.6,4.1-0.3,8c1,0.5,1.9,1.1,2.6,1.8c0.2,0.1,0.5,0.2,0.7,0.3
					c0.3,0.1,0.5,0.3,0.8,0.4c0.3-1.2,0.8-3.6,0.6-4.6C34.1,14.9,32.1,12.6,30,11z"/>
				<path class="st1" d="M20.5,17c0.1,0,0.4-0.1,0.5-0.9c0.1-0.5,0-1-0.1-1.1c-0.4-0.4-1.7-0.8-3.4-1c-1.6-0.2-3-0.2-3.4-0.1
					c-0.1,0.7-0.5,1.6-0.7,2c0.2,0,0.4,0,0.5,0c0.6,0,1.5,0.1,2.5,0.2c1.3,0.2,2.3,0.5,3,0.7C19.9,16.9,20.3,17,20.5,17z M14.6,15
					c-0.1,0-0.2-0.1-0.2-0.3c0-0.1,0.1-0.2,0.3-0.2c0.1,0,0.2,0.1,0.2,0.3C14.9,14.9,14.8,15,14.6,15z M16.2,15.1
					c-0.1,0-0.2-0.1-0.2-0.3c0-0.1,0.1-0.2,0.3-0.2c0.1,0,0.2,0.1,0.2,0.3C16.4,15,16.3,15.1,16.2,15.1z M17.7,15.3
					c-0.1,0-0.2-0.1-0.2-0.3c0-0.1,0.1-0.2,0.3-0.2c0.1,0,0.2,0.1,0.2,0.3C18,15.2,17.9,15.3,17.7,15.3z M19,15.4
					c0-0.1,0.1-0.2,0.3-0.2c0.1,0,0.2,0.1,0.2,0.3c0,0.1-0.1,0.2-0.3,0.2C19.1,15.7,19,15.6,19,15.4z"/>
				<path class="st1" d="M38.7,24.8C38.7,24.8,38.7,24.8,38.7,24.8c-0.8-0.7-1.8-1.4-3-2.1c0.3-1.3,0.8-3.7,0.5-5
					c-0.9-4.6-4.2-7.4-7-9.1c0-0.5-0.3-1.3-1.4-1.7C27,6.7,26.4,6.9,26,7.1c-2.4-1-4.6-1.4-5.7-1.4c-3-0.1-7.6,1.1-9.1,2.3
					c-1.3,1.1-2.6,4.8-3,6c-0.5,0.7-1.3,1.8-1.4,2.5c-0.2,1,0.2,1.9,0.9,2.6c-0.2,0.7-0.3,1.5-0.4,2.3c0,0-0.1,0.1-0.1,0.2
					C7.1,21.7,7,21.8,7,21.9c-1,1.9-2,4.9-1.1,7.8c0,0,0,0,0,0c0.5,1.6,1.7,3,3.4,4.3c1.4,1.1,3.2,1.9,4.9,2.4
					c1.7,0.5,3.4,0.7,5.1,0.7c1.2,0,2.4-0.1,3.6-0.4c1.7-0.2,3.2-0.5,4.4-1.1c1.6-0.5,2.9-1.6,3.9-3.2c0.5,0,1-0.1,1.5-0.2
					c0.9-0.3,2.2-1,3.1-2.9c0.9,0.1,1.6,0.1,2.3,0c1.1-0.2,2.2-1,2.1-2.3v0C40,26.1,39.3,25.4,38.7,24.8z M25.8,23.3
					c0,0.2-0.1,0.4-0.1,0.5c-0.1,0.3-0.3,1.2-0.4,1.5c-0.1,0.4-0.3,1.2-0.5,1.5c-0.4,0.9-1.5,1.4-2.5,1.3c-0.8-0.1-1.6-0.5-1.7-1.3
					c0.4,0.3,0.8,0.6,1.3,0.7c0.9,0.3,1.9-0.1,2.3-0.9c-0.2,0.1-0.5,0.2-0.8,0.2c-0.1,0-0.2,0-0.2,0c-0.4-0.1-0.6-0.3-0.8-0.6
					c-0.2-0.3-0.2-0.7-0.1-1l0.5-1.7c0.1-0.3,0.3-0.6,0.6-0.8c0.3-0.2,0.7-0.2,1-0.1c0.4,0.1,0.7,0.3,0.8,0.6c0,0,0,0,0,0
					c0.1-0.3,0-0.6-0.1-0.9c-0.4-1.2-2.1-1.7-3.1-0.8c-0.3,0.2-0.5,0.6-0.7,1l-0.1,0.2c-0.1,0.3-0.4,1.1-0.5,1.4c0-0.4,0-0.7,0.1-1
					c0.1-0.4,0.1-0.7,0.2-1c0.6-1.6,2.7-2,4-0.9C25.5,21.7,25.9,22.5,25.8,23.3z M11.6,24.7c-0.1,0-0.1,0-0.2,0
					c-0.3-0.1-0.6-0.3-0.8-0.6c-0.2-0.3-0.2-0.6-0.1-1l0.5-1.7c0.1-0.3,0.3-0.6,0.6-0.8s0.6-0.2,1-0.1c0.3,0.1,0.6,0.3,0.8,0.6
					c0,0,0,0,0,0.1c0-0.3,0-0.6-0.1-0.9c-0.4-1.2-1.9-1.6-2.9-0.8c-0.3,0.2-0.5,0.6-0.6,0.9l-0.1,0.2c-0.1,0.3-0.4,1.1-0.5,1.4
					c0-0.3,0-0.7,0.1-1c0.1-0.4,0.1-0.7,0.2-1c0.5-1.5,2.5-2,3.7-0.9c0.6,0.5,0.9,1.3,0.8,2c0,0.2-0.1,0.4-0.1,0.5
					c-0.1,0.3-0.3,1.1-0.4,1.4c-0.1,0.4-0.3,1.2-0.5,1.5c-0.4,0.9-1.4,1.4-2.3,1.3c-0.7-0.1-1.5-0.5-1.6-1.3
					c0.4,0.3,0.8,0.6,1.2,0.7c0.9,0.3,1.7-0.1,2.2-0.9C12.2,24.6,11.9,24.7,11.6,24.7z M16.6,28.5L14.2,28l-1.5-0.6l2.7-2.6
					l-0.9,2.9L16.6,28.5z M15.4,24.9c0.6,0.9,1.1,2.4,1.2,3.5v0L15.4,24.9z M11.7,28.2l0.8,0.2c-0.2,1.1,0.6,2,2,2.3
					c0.9,0.2,1.9,0,2.6-0.4c0.2-0.2,0.6-0.4,0.7-0.8l0.8,0.2c-0.1,0.5-0.5,1-1,1.4c-0.6,0.4-1.5,0.6-2.3,0.6c-0.3,0-0.7,0-1-0.1
					C12.5,31,11.4,29.7,11.7,28.2z M16.4,16.7c-1-0.1-1.9-0.2-2.5-0.2c-0.8,0-1.1,0-1.2-0.3c-0.1-0.1-0.1-0.2,0-0.4
					c0.1-0.2,0.6-1.4,0.8-2.2c0-0.2,0.1-0.3,0.3-0.4c-0.2-0.2-0.7-0.4-1.5-0.5c0,0,0.8-0.6,1.8-0.5c-0.1-0.4-1.4-2.9-2-2.9
					c0,0,3-0.8,4.2,1.4c0.1-0.9,0.5-1.6,0.5-1.6c0,0.8,1,2,1.5,2.5c1.6,0.4,2.4,1.5,2.8,2.7c0.1,0.1,0.2,0.1,0.3,0.2
					c0.4,0.4,0.4,1.2,0.3,1.7c-0.1,0.4-0.3,1.3-1.1,1.4c0,0,0,0-0.1,0c-0.3,0-0.6-0.1-1.2-0.3C18.6,17.1,17.7,16.9,16.4,16.7z
					 M37.8,28.9c-0.8,0.1-1.5,0.1-2.3,0c-0.1,0-0.1,0-0.2,0c-0.8,1.9-2,2.6-2.9,2.9c-0.5,0.1-0.9,0.2-1.2,0.2c-0.2,0-0.3,0-0.4,0
					c-0.8,1.6-2.2,2.9-4.1,3.3c2.3-1.6,3.4-3.5,4.3-6c0.3-0.8,0.5-1.6,0.8-2.5c0.1,0.4,0.1,0.9,0,1.3c0,1.1-0.3,2.2-0.7,3.2
					c0.9,0,2.8-0.3,3.7-3.2c0.4-1.3,0.4-2.4-0.1-3.3c-0.3-0.5-0.7-0.9-1-1.2c-0.2-0.1-0.5-0.2-0.7-0.4c-0.1-0.1-0.4-0.2-0.6-0.3
					c-0.3,2.4-1.4,4.5-1.8,4.5c-0.2,0,0.1-2.7,0.1-2.7c-1.4-1.5-1.4-3.2-1.3-3.8c-2.3-1.3-4.7-2.2-7.2-3.1c2.4,0.3,5.2,1.1,7.5,2.3
					c0.9-3.8,0.6-6.2,0.3-7.7c-0.2-0.8-0.5-1.4-0.7-1.7c-0.5-0.3-1-0.6-1.5-0.9c-3.2-1.7-6.4-2.5-7.7-2.5c-2.7-0.1-6.9,1-8.1,2
					c-1,0.8-2.3,4.2-2.7,5.4l0,0.1l0,0.1c-0.5,0.6-1.2,1.7-1.2,2c0,0.1,0,0.2,0,0.3C8.6,16.8,9.7,16,12,16c0,0-1,0.1-2.1,0.9
					c-0.7,1.9-1.2,3.9-1.6,5.8c-0.1,0.5-0.3,1.5-0.4,2c0-0.4-0.1-0.7-0.1-1.1c-0.6,1.6-1,3.2-0.7,4.9c0,0.3,0.1,0.6,0.2,0.8
					c0.3,0.8,0.8,1.5,1.3,2.2c2.4,2.7,6,4.1,9.5,4.4c1.7,0.2,3.3,0.1,5-0.1c0.8-0.1,1.5-0.2,2.3-0.3c-0.6,0.2-1.1,0.4-1.7,0.6
					c-3,0.8-6.2,0.7-9.2-0.2c-3.1-0.9-6.8-3.2-7.9-6.3c-0.8-2.5-0.1-5.1,1.1-7.4c0.1-0.2,0.2-0.4,0.3-0.7c0.1-0.9,0.3-1.8,0.5-2.7
					c-0.8-0.4-1.2-1.4-1-2.2c0.1-0.6,1.1-1.9,1.3-2.3c0.2-0.7,1.6-4.7,2.9-5.8c1.3-1.2,5.8-2.3,8.7-2.2c1.1,0,3.3,0.5,5.8,1.5
					c0.3-0.2,0.8-0.5,1.5-0.2c1.1,0.4,1.1,1.1,1.1,1.5c2.8,1.6,6.1,4.4,7,8.8c0.3,1.3-0.4,4.3-0.6,5.1c1.1,0.6,2.2,1.3,3.2,2.2
					c0.6,0.5,1.1,1.1,1.2,1.9C39.5,28.2,38.6,28.8,37.8,28.9z M32.9,26.4l-0.1-0.1C32.8,26.2,32.8,26.2,32.9,26.4
					c0.1-0.3,0.2-0.5,0.4-0.6c0.2-0.1,0.4-0.2,0.7,0c0.9,0.3,0.5,1.3,0.5,1.3s-0.1-0.8-0.4-0.9c0,0.3-0.1,0.7-0.2,1.2
					c-0.1,0.7-0.5,1.5-1,1.6c0.1,0.1,0.2,0.1,0.3,0.1c0.2,0.1,0.4-0.1,0.5-0.2c-0.1,0.1-0.3,0.5-0.9,0.4c-0.3-0.1-0.4-0.3-0.4-0.5
					c0-0.2,0.1-0.5,0.1-0.5c-0.1,0-0.2,0-0.2,0l0.2-0.1c0,0,0.6-0.2,0.7-0.7C33.3,26.8,32.9,26.4,32.9,26.4z M26.4,17.1
					c-0.2,0.3-0.4,0.5-0.6,0.9c0.5-0.4,0.8-0.5,1.4-0.8c-0.3-0.1-0.4-0.1-0.7-0.2c0.2-0.2,0.2-0.3,0.4-0.6c0.6,0.2,1,0.3,1.5,0.5h0
					c-0.2,0.7-0.3,1.1-0.5,1.8c-0.2-0.1-0.4-0.1-0.6-0.2c0.2-0.5,0.2-0.7,0.4-1.2c-0.1,0-0.2,0-0.3-0.1c-0.2,0.5-0.2,0.7-0.4,1.2
					c-0.8-0.2-1.1-0.3-1.8-0.5c0.2-0.8,0.2-1.1,0.4-1.9c0.2,0.1,0.3,0.1,0.6,0.2c-0.2,0.3-0.3,0.4-0.5,0.7C26,17,26.1,17,26.4,17.1z
					 M29.3,18.1c0,0.2,0,0.2-0.1,0.4c-0.1-0.2-0.2-0.3-0.3-0.3c0,0.1,0,0.1-0.1,0.2c0.3,0.1,0.5,0.2,0.8,0.3c0,0.2-0.1,0.4-0.2,0.6
					c-0.6-0.2-0.9-0.3-1.4-0.5c0.2-0.8,0.3-1.1,0.5-1.8c0.5,0.2,0.8,0.3,1.3,0.5c0,0.2,0,0.3-0.1,0.5c-0.3-0.1-0.5-0.2-0.8-0.3
					c0,0.1,0,0.2-0.1,0.3C29.2,18,29.3,18.1,29.3,18.1z M25.3,16.5c-0.3-0.1-0.5-0.2-0.9-0.2c0,0.1,0,0.2-0.1,0.3
					c0.2-0.1,0.4,0,0.4,0c0,0.2,0,0.2-0.1,0.4c-0.1-0.2-0.2-0.2-0.3-0.3c-0.1,0.3-0.1,0.5-0.1,0.8c-0.2,0-0.4-0.1-0.7-0.1
					c0.2-0.8,0.2-1.1,0.4-1.9c0.6,0.1,0.9,0.2,1.5,0.4C25.3,16.1,25.3,16.3,25.3,16.5z"/>
			</g>
		</g>
	</g>
</g>
</svg>
