<?xml version="1.0" encoding="UTF-8"?><svg id="a" xmlns="http://www.w3.org/2000/svg" viewBox="0 0 292 266.08"><defs><style>.b{fill:#f9f9f9;}</style></defs><polygon class="b" points="138.29 89.28 127.54 119.45 157.84 119.45 108.86 174.99 125.08 128.42 94.79 128.42 108.3 89.28 82.34 89.28 82.34 176.8 169.85 176.8 169.85 116.68 182.43 116.68 182.43 176.8 209.84 176.8 209.84 89.28 209.29 89.28 138.29 89.28"/><path class="b" d="m3.35,176.8h27.4v-38.21c4.61.67,10.82,2.82,17.26,8.75v-18.73s-8-1.37-17.26,3.57v-15.49h39.44v-27.4H3.35v87.51Z"/><path class="b" d="m249.07,138.59c4.61.67,10.82,2.82,17.26,8.75v-18.73s-8-1.37-17.26,3.57v-15.49h39.44v-27.4h-66.84v87.51h66.98v-27.4h-39.58v-10.81Z"/></svg>