<?xml version="1.0" encoding="utf-8"?>
<!-- Generator: Adobe Illustrator 27.2.0, SVG Export Plug-In . SVG Version: 6.00 Build 0)  -->
<svg version="1.1" id="a" xmlns="http://www.w3.org/2000/svg" xmlns:xlink="http://www.w3.org/1999/xlink" x="0px" y="0px"
	 viewBox="0 0 366.6 366.6" style="enable-background:new 0 0 366.6 366.6;" xml:space="preserve">
<style type="text/css">
	.st0{fill:#212121;}
	.st1{fill:#F9F9F9;}
</style>
<circle class="st0" cx="183.3" cy="183.3" r="183.3"/>
<g>
	<g>
		<g>
			<path class="st1" d="M255.8,93.8c1.2,2.8,2.4,6.2,3.4,10.3c3.2,12.7,5.4,34.7-2.4,67.9c8.4,4.5,15.9,9.6,22.1,15
				c1.5,0.6,4.5,2,6,2.8c2.3,1.1,4.5,2.2,6.8,3.3c2.4-10.3,6.4-30.3,4.7-38.8C291.1,126.9,273.6,107.2,255.8,93.8z"/>
			<path class="st1" d="M174.4,144.8c1.2-0.1,3-1,4.6-7.7c1-4.3,0.3-8.3-1-9.5c-3.3-3.4-14.1-6.6-28.6-8.5
				c-13.4-1.9-25.3-1.9-29.3-1c-1.2,5.6-4.5,13.4-6,17.2c1.3,0.1,3,0.2,4.6,0.2c5,0.2,12.5,0.5,21.7,1.7c11.4,1.6,19.5,4,25.4,5.7
				C169.7,144,172.8,144.9,174.4,144.8z M124.6,128.1c-1.2-0.1-2.1-1.1-2-2.3c0-1.2,1.1-2.1,2.3-2.1c1.2,0.1,2.1,1.1,2,2.3
				C126.8,127.1,125.8,128.1,124.6,128.1z M137.9,128.6c-1.2-0.1-2.1-1.1-2.1-2.3c0.1-1.2,1.1-2.1,2.3-2c1.2,0,2.1,1,2,2.2
				C140.1,127.7,139.1,128.6,137.9,128.6z M151.2,130.5c-1.2-0.1-2.1-1.1-2.1-2.3c0.1-1.2,1.1-2.1,2.3-2c1.2,0,2.1,1,2,2.2
				C153.4,129.5,152.4,130.6,151.2,130.5z M162.2,131.6c0.1-1.2,1.1-2.1,2.3-2.1c1.2,0.1,2.1,1.1,2,2.3c0,1.2-1,2.1-2.2,2.1
				C163.1,133.8,162.2,132.8,162.2,131.6z"/>
			<path class="st1" d="M330,211.8c-0.1-0.1-0.1-0.1-0.2-0.2c-7-6-15.1-11.6-25.5-17.3c2.5-11.1,6.6-31.6,4.5-42.5
				c-7.5-38.9-36.1-63.5-59.6-77.5c-0.3-4.3-2.3-10.8-12.3-14.5c-6.7-2.4-11.7-0.8-14.9,1.1c-20.2-8.1-39-12-49-12.1
				c-26-0.6-65.2,9.4-77.7,19.9c-11.5,9.5-22.5,40.5-26,50.9c-4.2,5.7-10.8,15.5-11.9,21.1c-1.6,8.1,1.6,16.5,8,21.8
				c-1.4,6.2-2.6,12.8-3.4,19.7c-0.2,0.4-0.5,0.8-0.6,1.3c-0.6,1.2-1.3,2.4-1.9,3.6c-8.7,16.5-17.4,41.5-9.8,66.8c0,0.1,0,0.1,0,0.2
				c4.5,13.3,14.6,26,29.1,36.7c12.2,9,27.1,16.3,41.8,20.6c14.4,4.2,29.2,6.3,43.9,6.3c10.2,0,20.4-1,30.3-3.1
				c14.5-1.4,27.2-4.5,37.8-9.5c13.8-4.2,25.1-13.6,33.1-27.5c4.4,0.1,8.6-0.5,12.7-1.8c7.9-2.5,18.5-8.8,26.1-24.4
				c7.4,0.9,13.6,0.8,19.4-0.3c9.6-1.8,19-8.6,18.1-19.9v-0.1C341,222.6,335.3,216.7,330,211.8z M219.6,198.6
				c-0.1,1.4-0.7,3.2-1.1,4.5c-0.6,2.7-2.7,9.9-3.5,12.7c-0.9,3.1-2.5,10-4,12.9c-3.7,7.4-12.5,12.1-21,11.1
				c-6.6-0.5-13.8-4.5-14.8-11c3.6,2.5,7,4.9,11.1,6.3c7.9,2.4,15.9-0.9,19.7-7.3c-2,1.1-4.5,1.7-7,1.4c-0.6-0.1-1.3-0.2-1.9-0.4
				c-3-0.7-5.5-2.6-7-5.2c-1.6-2.6-2-5.6-1.2-8.4l4.1-14.8c0.8-2.9,2.7-5.2,5.5-6.7c2.7-1.5,5.8-1.9,8.8-1.1
				c3.1,0.8,5.6,2.7,7.1,5.3c0.1,0.1,0.1,0.3,0.2,0.4c0.5-2.6,0.2-5.3-0.7-7.8c-3.8-10.3-17.9-14.1-26.6-6.9c-2.6,2-4.5,4.9-5.7,8.1
				l-0.7,2c-0.9,2.6-3.5,9.6-4.5,12.3c-0.1-3,0.3-5.8,0.6-8.8c0.6-3,1-5.9,2-8.7c4.9-13.3,22.7-17.1,33.7-7.7
				C217.7,185.2,220.5,192,219.6,198.6z M99.3,210.3c-0.6-0.1-1.2-0.2-1.8-0.4c-2.9-0.7-5.2-2.6-6.7-5.1c-1.4-2.5-1.8-5.5-1-8.3
				l3.9-14.6c0.7-2.8,2.6-5.1,5.1-6.6s5.5-1.9,8.3-1.1c2.8,0.8,5.2,2.6,6.6,5.1c0.1,0.2,0.2,0.3,0.3,0.5c0.4-2.6,0.2-5.2-0.7-7.6
				c-3.5-10.2-16.6-13.8-24.8-6.8c-2.4,2.1-4.3,4.9-5.4,8l-0.7,2c-0.9,2.5-3.2,9.5-4.2,12.1c0-2.9,0.3-5.7,0.6-8.6
				c0.5-3,0.9-5.8,1.9-8.6c4.6-13,21.3-16.9,31.5-7.7c4.8,4.3,7.3,11,6.5,17.4c-0.2,1.4-0.7,3.2-1,4.5c-0.7,2.6-2.7,9.6-3.3,12.3
				c-1,3.1-2.5,9.9-3.9,12.7c-3.5,7.3-11.7,11.9-19.7,11c-6.1-0.5-12.9-4.3-13.8-10.8c3.3,2.5,6.5,4.8,10.4,6.1
				c7.3,2.3,14.9-1,18.4-7.3C103.9,209.9,101.7,210.5,99.3,210.3z M141.1,243.1l-20.2-4l-12.8-4.9l22.7-22.1l-7.8,24.3L141.1,243.1z
				 M131.2,212.5c5,7.9,9.6,20.5,10.1,29.9v-0.1L131.2,212.5z M99.8,240.1l7.1,1.4c-1.8,9,5.2,17.1,17,19.7
				c7.7,1.7,16.4,0.3,22.3-3.6c2.1-1.4,4.9-3.8,5.6-7.2l7.1,1.4c-0.9,4.6-4,8.8-8.7,12c-5.4,3.5-12.4,5.4-19.6,5.4
				c-2.8,0-5.6-0.3-8.3-0.8C106.8,264.7,97.3,252.9,99.8,240.1z M139.7,142.4c-8.9-1.2-15.9-1.5-21.1-1.6c-6.6-0.3-9.1-0.4-10.2-2.5
				c-0.6-0.9-0.6-2,0-3.1c0.6-1.3,5.2-12.1,6.6-18.5c0.4-1.5,1.2-2.6,2.5-3.3c-1.9-1.3-5.6-3.2-12.9-4.5c0,0,6.6-5.4,15.1-4.1
				c-1.1-3.5-12-24.7-16.7-25c0,0,25.7-7.2,36.2,11.9c0.7-7.7,4.5-14,4.5-14c-0.4,6.6,8.2,16.9,12.5,21.6
				c13.6,3.7,20.5,12.5,23.5,22.9c0.8,0.6,1.6,1.1,2.2,1.7c3.2,3.3,3.5,9.9,2.4,14.6c-0.7,3.1-2.8,11.2-9.5,11.7c-0.2,0-0.4,0-0.6,0
				c-2.5,0-5.5-0.9-9.9-2.2C158.5,146.2,150.6,143.9,139.7,142.4z M322,246.5c-6.6,1.2-13.2,0.9-19.7,0c-0.5-0.1-0.9-0.2-1.4-0.3
				c-6.9,16.2-17,22.5-24.7,24.9c-3.9,1.2-7.4,1.6-10.3,1.6c-1.4,0-2.6-0.1-3.6-0.2c-7.1,13.7-18.7,24.8-34.6,28.5
				c19.2-13.4,29.2-29.5,36.3-51.5c2.3-6.9,4.2-14,6.4-21.2c0.5,3.8,0.5,7.5,0.4,11.3c-0.3,9.1-2.2,18.4-5.7,26.9
				c7.7,0.3,23.5-2.5,31.8-27.3c3.7-10.8,3.4-20.4-0.6-28.3c-2.3-4.5-5.6-7.9-8.9-10.5c-2-1.1-4-2.1-6-3.2c-1.2-0.6-3.2-1.6-4.8-2.3
				c-2.8,20.5-11.6,38.6-15.3,38.3c-1.9-0.1,1.1-23.3,1.1-23.3c-12.3-12.8-12.1-27.1-11.3-32.8C231.9,166.1,211,158,190,151
				c20.8,2.2,44.6,9.5,64.2,19.7c7.5-32.1,5.5-53.2,2.3-65.5c-1.7-6.8-3.9-11.6-5.7-14.7c-4.3-2.9-8.5-5.5-12.5-7.7
				c-27-14.8-54.6-20.9-65.6-21.1c-22.8-0.6-59.1,8.3-69.3,17.1c-8.4,7-19.2,35.9-22.6,46.4l-0.2,0.6l-0.3,0.5
				c-4.1,5.5-10,14.5-10.6,17.4c-0.2,0.9-0.2,1.9-0.1,2.8c3.7-3.3,13.4-9.7,32.4-9.7c0,0.1-8.4,1.2-17.7,7.3
				c-5.6,16.3-10.2,32.9-13.7,49.8c-0.9,4.3-2.8,12.8-3.6,17.1c-0.4-3.1-0.6-6.2-0.6-9.5c-5.5,13.3-8.6,27.7-6.3,42
				c0.4,2.3,0.9,4.7,1.6,7.1c2.2,7,6.5,13.1,11.3,18.6c20.6,22.7,51.1,34.8,81.2,37.8c14.1,1.3,28.4,0.7,42.5-0.9
				c6.4-0.7,12.8-1.8,19.3-2.8c-4.8,1.9-9.8,3.5-14.9,4.8c-25.7,6.8-53.2,5.9-78.7-1.5c-26.1-7.5-58.3-27-67.4-54.1
				c-6.4-21.2-0.6-43.9,9.5-63c0.9-1.9,1.9-3.8,2.9-5.7c0.9-7.6,2.2-15.3,4.1-22.8c-6.4-3.8-10-11.6-8.6-18.8
				c1.1-5.4,9.2-16.6,11.5-19.8c2-6.1,13.5-40,24.6-49.2c11.1-9.9,49.2-19.6,73.8-18.9c9,0.2,28.3,4,49.3,12.7
				c2.2-1.9,6.5-4.3,12.8-1.9c9.5,3.3,9.5,9.8,9.1,12.6c23.5,13.4,52.2,37.3,59.5,75.3c2.2,11.5-3.6,36.8-5.2,43.7
				c9.7,5.2,19.1,11,27.5,18.4c4.7,4.5,9.7,9.6,10.5,16.6C337,240.1,329.5,245.2,322,246.5z M280.4,224.8l-1-1.2
				c0,0,0.6,0.1,1.3,0.4c0.6-2.1,1.7-3.7,3-4.5c1.4-0.9,3.2-1.4,5.7-0.4c7.3,2.7,4.3,11.4,4.3,11.4s-0.5-6.7-3.6-7.3
				c0.1,2.7-1,6.2-1.7,10.3c-0.9,5.7-3.9,12.5-8.1,13.4c0.5,0.5,1.4,0.6,2.5,1c1.8,0.5,3.6-0.9,4.2-1.3c-0.5,0.9-2.8,4.3-7.6,3.2
				c-2.6-0.6-3.3-2.5-3.3-4.4c0-2.1,0.9-4.2,0.9-4.2c-0.9,0-1.7-0.2-1.7-0.2l2-0.9c0,0,5.1-1.7,6-6.3
				C284.1,228.9,280.4,224.8,280.4,224.8z M224.8,145.8c-2.1,2.9-3.1,4.3-5,7.3c4.2-3,6.7-4.3,11.7-7.1c-2.3-0.7-3.5-1-5.7-1.7
				c1.4-1.9,2.1-2.8,3.6-4.7c5.3,1.7,8.1,2.4,12.8,4h0.1c-1.5,6.3-2.4,9-4.3,15.4c-2-0.7-3-1.1-5-1.7c1.3-4.3,2-6.3,3.2-10.4
				c-0.9-0.3-1.4-0.4-2.3-0.7c-1.3,4.1-2,6.1-3.3,10.4c-6.5-2-9.4-2.8-15.3-4.6c1.3-6.4,1.9-9.4,3.6-15.8c1.9,0.6,2.9,1,4.8,1.6
				c-1.8,2.5-2.7,3.7-4.3,6.2C221.5,144.8,222.6,145.1,224.8,145.8z M250.1,154.2c-0.3,1.3-0.4,2-0.7,3.3c-0.9-1.5-1.9-2.3-2.7-2.7
				c-0.2,0.8-0.3,1.2-0.5,1.9c2.8,1,4.2,1.6,7.1,2.5c-0.4,2-0.7,3-1.3,5c-5-1.5-7.3-2.6-12.1-4.4c1.9-6.4,2.7-9.3,4.1-15.5
				c4.4,1.6,6.5,2.5,11.1,4.5c-0.3,1.9-0.4,2.8-0.8,4.6c-2.8-1.1-4.2-1.6-6.9-2.6c-0.2,1.1-0.4,1.6-0.6,2.7
				C248.8,153.5,250.1,154.2,250.1,154.2z M215.4,140.6c-2.9-0.9-4.4-1.3-7.4-2c-0.2,1.2-0.3,1.7-0.5,2.9c1.9-0.5,3.4,0.2,3.4,0.2
				c-0.3,1.4-0.4,2.1-0.6,3.4c-1-1.4-2.1-2.1-2.9-2.4c-0.5,2.8-0.7,4.2-1.2,7.1c-2.1-0.4-3.2-0.6-5.6-1c1.4-6.6,1.7-9.8,3.4-16.5
				c5,1,7.6,1.7,12.6,3.3C216,137.6,215.8,138.6,215.4,140.6z"/>
		</g>
	</g>
</g>
</svg>
