<?xml version="1.0" encoding="utf-8"?>
<!-- Generator: Adobe Illustrator 27.2.0, SVG Export Plug-In . SVG Version: 6.00 Build 0)  -->
<svg version="1.1" id="e" xmlns="http://www.w3.org/2000/svg" xmlns:xlink="http://www.w3.org/1999/xlink" x="0px" y="0px"
	 viewBox="0 0 50 50" style="enable-background:new 0 0 50 50;" xml:space="preserve">
<style type="text/css">
	.st0{fill:#212121;}
</style>
<path class="st0" d="M48.9,22.3L27.7,1.1c-1.5-1.5-3.9-1.5-5.4,0l-4,4l5.4,5.8c0.4-0.1,0.9-0.2,1.3-0.2c2.2,0,4.1,1.8,4.1,4.1
	c0,0.5-0.1,0.9-0.2,1.4l5.3,5.1c0.5-0.2,1-0.3,1.5-0.3c2.2,0,4.1,1.8,4.1,4.1c0,2.2-1.8,4.1-4.1,4.1c-2.2,0-4.1-1.8-4.1-4.1
	c0-0.5,0.1-0.9,0.2-1.4l-5.1-4.9v13.1c1.4,0.6,2.4,2.1,2.4,3.7c0,2.2-1.8,4.1-4.1,4.1s-4.1-1.8-4.1-4.1c0-1.6,1-3.1,2.4-3.7V18.4
	c-1.4-0.6-2.4-2.1-2.4-3.7c0-0.5,0.1-1.1,0.3-1.5l-5.4-5.7L1.1,22.3c-1.5,1.5-1.5,3.9,0,5.4l21.2,21.2c1.5,1.5,3.9,1.5,5.4,0
	l21.2-21.2C50.4,26.2,50.4,23.8,48.9,22.3z"/>
</svg>
