<?xml version="1.0" encoding="utf-8"?>
<!-- Generator: Adobe Illustrator 27.2.0, SVG Export Plug-In . SVG Version: 6.00 Build 0)  -->
<svg version="1.1" id="a" xmlns="http://www.w3.org/2000/svg" xmlns:xlink="http://www.w3.org/1999/xlink" x="0px" y="0px"
	 viewBox="0 0 50 50" style="enable-background:new 0 0 50 50;" xml:space="preserve">
<style type="text/css">
	.st0{fill:#212121;}
</style>
<polygon class="st0" points="27.1,20.6 27.8,19.6 27.8,9 21.9,9 21.9,19.6 22.6,20.6 "/>
<polygon class="st0" points="20.2,25.5 21.5,21.2 20.8,20.3 10.6,17.2 8.9,22.8 19,25.9 "/>
<polygon class="st0" points="24.1,29.3 20.4,26.8 19.3,27.2 13.4,36 18.2,39.3 24.1,30.5 "/>
<polygon class="st0" points="30.7,25.9 40.8,22.8 39.1,17.2 29,20.3 28.3,21.2 29.6,25.5 "/>
<polygon class="st0" points="29.3,26.8 25.6,29.3 25.6,30.5 31.5,39.3 36.4,36 30.4,27.2 "/>
<rect x="28.3" y="14.1" transform="matrix(0.6136 -0.7896 0.7896 0.6136 0.7593 31.0967)" class="st0" width="7.7" height="1.4"/>
<rect x="17.1" y="10.7" transform="matrix(0.8176 -0.5757 0.5757 0.8176 -5.1407 12.8603)" class="st0" width="1.4" height="7.7"/>
<rect x="9.4" y="27.6" transform="matrix(0.9502 -0.3115 0.3115 0.9502 -8.1456 5.5465)" class="st0" width="7.7" height="1.4"/>
<rect x="24.2" y="33" transform="matrix(0.9998 -2.006994e-02 2.006994e-02 0.9998 -0.7355 0.5063)" class="st0" width="1.4" height="7.7"/>
<rect x="35.8" y="24.4" transform="matrix(0.3178 -0.9482 0.9482 0.3178 -1.9133 53.8749)" class="st0" width="1.4" height="7.7"/>
<path class="st0" d="M25,0C11.2,0,0,11.2,0,25s11.2,25,25,25s25-11.2,25-25S38.8,0,25,0z M25,45C14,45,5,36,5,25S14,5,25,5
	s20,9,20,20S36,45,25,45z"/>
</svg>
