<?xml version="1.0" encoding="utf-8"?>
<!-- Generator: Adobe Illustrator 27.2.0, SVG Export Plug-In . SVG Version: 6.00 Build 0)  -->
<svg version="1.1" id="a" xmlns="http://www.w3.org/2000/svg" xmlns:xlink="http://www.w3.org/1999/xlink" x="0px" y="0px"
	 viewBox="0 0 50 50" style="enable-background:new 0 0 50 50;" xml:space="preserve">
<style type="text/css">
	.st0{fill:#212121;}
</style>
<g>
	<path class="st0" d="M28.4,34.5l2.5,2.3l0.8-0.8l-1.3-1.3l2.3-2.6l0.7,0c0.2,0,0.2-0.2,0.1-0.3l-1-1c1.1-9.1-7.2-7.1-7.2-7.1
		l3.1,3.1l-0.7,3.4l-0.1-0.1l-3.5,0.7l-3.1-3.1C21.1,27.7,19.3,35.6,28.4,34.5L28.4,34.5z"/>
	<path class="st0" d="M39,37.2l-0.1,0.9l-2.4,2.3l-1.8-1.5L34,39.7l8.8,8.3c1,0.9,2.5,0.9,3.5,0l0.1-0.1c1-1,1-2.6,0-3.5L39,37.2
		L39,37.2z"/>
</g>
<polygon class="st0" points="44.3,22.8 36.8,30 36.8,31.5 35.4,33.2 33.7,33.3 32,35 33.6,36.5 26.4,43.7 25.1,43.9 21.8,48.1 
	22.4,48.7 27,45.4 27.1,44.3 34.5,37.5 35.9,38.8 37.6,37.1 37.8,35.5 39.3,34.1 41,34 48.3,26.6 "/>
<path class="st0" d="M32.8,4.4c-5-6.1-23.2-5.6-28,0C4.5,4.7,4.3,5.2,4.3,5.7v24.9c0,0.6,0.3,1.2,0.8,1.7c4.5,3.5,13.1,4.7,20.3,3
	c-1.6-0.2-2.9-0.8-3.8-1.8c-2.1-2.3-1.4-5.9-1.3-6c0.1-0.3,0.3-0.5,0.6-0.6c0.3-0.1,0.6,0,0.8,0.2l2.8,2.8l-2.7-2.7v-16
	c0,0,5.2-0.4,7.7-1.3V23c0,0,0,0,0,0c0.8,0.2,1.5,0.6,2.1,1.2c0.9,0.8,1.4,1.8,1.7,3.1V5.7C33.3,5.2,33.1,4.8,32.8,4.4L32.8,4.4z
	 M18.9,9.2c-7,0-12.7-1.8-12.7-3.9s5.7-3.9,12.7-3.9s12.7,1.8,12.7,3.9S25.9,9.2,18.9,9.2z"/>
<g>
	<path class="st0" d="M27.2,22.7c0,0,0.1,0,0.1,0C27.3,22.7,27.2,22.7,27.2,22.7z"/>
	<path class="st0" d="M26.1,22.7C26.1,22.7,26,22.7,26.1,22.7C26,22.7,26,22.7,26.1,22.7z"/>
	<path class="st0" d="M25.3,22.8C25.3,22.8,25.3,22.8,25.3,22.8C25.3,22.8,25.3,22.8,25.3,22.8z"/>
	<path class="st0" d="M28.8,22.8c0,0-0.1,0-0.1,0C28.7,22.8,28.8,22.8,28.8,22.8z"/>
	<path class="st0" d="M28,22.7C28,22.7,27.9,22.7,28,22.7C27.9,22.7,27.9,22.7,28,22.7z"/>
</g>
<g>
	<rect x="38.6" class="st0" width="1.9" height="1.6"/>
	<rect x="41.8" class="st0" width="1.9" height="1.6"/>
	<rect x="44.9" class="st0" width="1.9" height="1.6"/>
	<rect x="48.1" class="st0" width="1.9" height="1.6"/>
	<rect x="48.1" y="3" class="st0" width="1.9" height="1.6"/>
	<rect x="48.1" y="5.9" class="st0" width="1.9" height="1.7"/>
	<rect x="48.1" y="8.9" class="st0" width="1.9" height="1.6"/>
</g>
<g>
	<rect x="9.5" y="47.8" class="st0" width="1.9" height="1.7"/>
	<rect x="6.3" y="47.8" class="st0" width="1.9" height="1.7"/>
	<rect x="3.2" y="47.8" class="st0" width="1.9" height="1.7"/>
	<rect y="47.8" class="st0" width="1.9" height="1.7"/>
	<rect y="44.8" class="st0" width="1.9" height="1.7"/>
	<rect y="41.8" class="st0" width="1.9" height="1.7"/>
	<rect y="38.8" class="st0" width="1.9" height="1.7"/>
</g>
</svg>
