<?xml version="1.0" encoding="utf-8"?>
<!-- Generator: Adobe Illustrator 26.5.3, SVG Export Plug-In . SVG Version: 6.00 Build 0)  -->
<svg version="1.1" id="f" xmlns="http://www.w3.org/2000/svg" xmlns:xlink="http://www.w3.org/1999/xlink" x="0px" y="0px"
	 viewBox="0 0 50 50" style="enable-background:new 0 0 50 50;" xml:space="preserve">
<style type="text/css">
	.st0{fill:#212121;}
	.st1{fill:#FFFFFF;}
</style>
<path class="st0" d="M0.1,31.9V15.3h49.8v16.6H25v2.8h-11v-2.8C13.9,31.9,0.1,31.9,0.1,31.9z M47.2,29.1V18.1H30.6v11h5.6v-8.2h2.7
	v8.2h2.8v-8.2h2.7v8.2C44.4,29.1,47.1,29.1,47.2,29.1z M27.8,18.1H16.7v13.8h5.6v-2.8h5.5V18.1z M13.9,18.1H2.9v11.1h5.6v-8.2h2.7
	v8.2h2.8L13.9,18.1L13.9,18.1z"/>
<path class="st1" d="M47.2,29.1h-2.8v-8.2h-2.7v8.2h-2.8v-8.2h-2.7v8.2h-5.6V18.1h16.6C47.2,18.1,47.2,29.1,47.2,29.1z"/>
<path class="st1" d="M27.8,18.1v11.1h-5.5v2.8h-5.6V18.1H27.8z M25,26.3v-5.4h-2.7v5.4H25z"/>
<path class="st1" d="M13.9,18.1v11.1h-2.8v-8.2H8.4v8.2H2.9V18.1C2.9,18.1,13.9,18.1,13.9,18.1z"/>
<path class="st0" d="M25,26.3h-2.7v-5.4H25V26.3z"/>
</svg>
