<?xml version="1.0" encoding="utf-8"?>
<!-- Generator: Adobe Illustrator 27.2.0, SVG Export Plug-In . SVG Version: 6.00 Build 0)  -->
<svg version="1.1" id="f" xmlns="http://www.w3.org/2000/svg" xmlns:xlink="http://www.w3.org/1999/xlink" x="0px" y="0px"
	 viewBox="0 0 50 50" style="enable-background:new 0 0 50 50;" xml:space="preserve">
<style type="text/css">
	.st0{fill:#212121;}
</style>
<path class="st0" d="M48.3,5.7l-11-5.4c-0.9-0.4-1.9-0.3-2.7,0.4L14.5,19.1l-9-6.9c-0.4-0.3-1.1-0.3-1.5,0L0.7,15
	c-0.9,0.7-0.9,2.1-0.1,2.8l7.6,6.9l-7.6,6.9c-0.7,0.6-0.7,1.7-0.1,2.4l2.8,3c0.7,0.8,2,0.9,2.8,0.2l8.6-6.6L34.6,49
	c1,1,2.6,1.2,3.8,0.5l9.7-4.8c1.1-0.6,1.9-1.7,1.9-3V8.4C50,7.3,49.4,6.2,48.3,5.7z M37.6,36.6L22.3,25l15.3-11.8V36.6z"/>
</svg>
