<?xml version="1.0" encoding="utf-8"?>
<!-- Generator: Adobe Illustrator 27.2.0, SVG Export Plug-In . SVG Version: 6.00 Build 0)  -->
<svg version="1.1" id="a" xmlns="http://www.w3.org/2000/svg" xmlns:xlink="http://www.w3.org/1999/xlink" x="0px" y="0px"
	 viewBox="0 0 50 50" style="enable-background:new 0 0 50 50;" xml:space="preserve">
<style type="text/css">
	.st0{fill:#212121;}
</style>
<g>
	<path class="st0" d="M31.7-0.1L31.7-0.1c3,0,5.4,2.4,5.4,5.4v12.9c0,3-2.4,5.4-5.4,5.4h0c-3,0-5.4-2.4-5.4-5.4V5.3
		C26.3,2.3,28.7-0.1,31.7-0.1z"/>
	<path class="st0" d="M44.7,13L44.7,13c2.9,0,5.3,2.4,5.3,5.3l0,0c0,2.9-2.4,5.3-5.3,5.3h-5.3v-5.3C39.5,15.4,41.8,13,44.7,13z"/>
	<path class="st0" d="M0,18.2L0,18.2c0-3,2.4-5.4,5.4-5.4h12.9c3,0,5.4,2.4,5.4,5.4l0,0c0,3-2.4,5.4-5.4,5.4H5.4
		C2.4,23.6,0,21.2,0,18.2z"/>
	<path class="st0" d="M13.2,5.1L13.2,5.1c0-2.9,2.4-5.3,5.3-5.3l0,0c2.9,0,5.3,2.4,5.3,5.3v5.3h-5.3C15.5,10.4,13.2,8,13.2,5.1z"/>
</g>
<path class="st0" d="M18.3,50.1L18.3,50.1c-3,0-5.4-2.4-5.4-5.4V31.8c0-3,2.4-5.4,5.4-5.4l0,0c3,0,5.4,2.4,5.4,5.4v12.9
	C23.7,47.7,21.3,50.1,18.3,50.1z"/>
<path class="st0" d="M5.3,37L5.3,37C2.4,37,0,34.6,0,31.7l0,0c0-2.9,2.4-5.3,5.3-5.3h5.3v5.3C10.5,34.6,8.2,37,5.3,37z"/>
<path class="st0" d="M50,31.8L50,31.8c0,3-2.4,5.4-5.4,5.4H31.7c-3,0-5.4-2.4-5.4-5.4l0,0c0-3,2.4-5.4,5.4-5.4h12.9
	C47.6,26.4,50,28.8,50,31.8z"/>
<path class="st0" d="M36.8,44.9L36.8,44.9c0,2.9-2.4,5.3-5.3,5.3l0,0c-2.9,0-5.3-2.4-5.3-5.3v-5.3h5.3C34.5,39.6,36.8,42,36.8,44.9z
	"/>
</svg>
