<?xml version="1.0" encoding="utf-8"?>
<!-- Generator: Adobe Illustrator 26.5.3, SVG Export Plug-In . SVG Version: 6.00 Build 0)  -->
<svg version="1.1" id="i" xmlns="http://www.w3.org/2000/svg" xmlns:xlink="http://www.w3.org/1999/xlink" x="0px" y="0px"
	 viewBox="0 0 50 50" style="enable-background:new 0 0 50 50;" xml:space="preserve">
<style type="text/css">
	.st0{fill:#212121;}
</style>
<g>
	<path class="st0" d="M28.7,49.3c-3.6-0.7-4.6-3.4-5.1-6.5c-0.3-1.9-0.4-3.9-0.5-5.8c-2.9,0.9-5.6,0.8-7.9-0.9
		c-1.3,0.3-2.4,0.7-3.6,0.7c-1.8-0.1-3-1.3-4-2.8c-2.2-3.2-3.4-6.9-4.3-10.7C2.5,20.2,2,17,1.4,13.9c0-0.6,0-1.1,0-1.7
		c0.1-0.5,0.2-0.9,0.2-1.4c0.4-5.1,3.8-8.7,9-9.3c3-0.4,5.8,0.2,8.7,1c0.4,0.1,0.9,0.2,1.2,0c2.4-1.3,5-1.5,7.7-1.1
		c2,0.3,3.8-0.5,5.7-0.7c1.1,0,2.1,0,3.2,0c0.2,0.1,0.5,0.2,0.7,0.2c2.3,0.3,4.5,1.1,6.4,2.4c3.2,2.1,4.7,5.1,4.1,9
		c-0.5,3.6-1.4,7-2.8,10.3c-0.9,2-1.9,4-2.9,6.1c0.9-0.1,1.7-0.3,2.5-0.4c1.7-0.3,2.7,0.1,3.5,1.6c0,0.4,0,0.9,0,1.3
		c-2.1,3.9-5.9,4.3-9.7,4.5c-0.3,2.2-0.4,4.2-0.8,6.3c-0.7,3.8-2.7,6.3-6.7,7.1c-0.4,0.1-0.8,0.2-1.2,0.3
		C29.7,49.3,29.2,49.3,28.7,49.3z M40.3,29.5c0.2-0.4,0.4-0.7,0.6-1c3.1-5.2,5.4-10.8,6.1-16.9c0.3-2.7-0.4-4.9-2.6-6.6
		c-0.5-0.4-0.9-0.8-1.5-1.1c-4-2.4-8.2-2.4-12.6-1.3c-0.5,0.1-1.1,0.2-1.7,0.1c-2.7-0.4-5.2-0.4-7.7,1C20.5,4,20,4,19.4,3.8
		c-2.6-0.9-5.2-1.3-7.9-1.2c-3.9,0.2-7,2.2-8,5.8c-0.5,1.9-0.9,4-0.6,6c0.6,4,1.6,8,2.7,12c0.7,2.7,1.8,5.2,3.5,7.4
		c1.8,2.2,3.8,2.3,5.6,0.1c1.1-1.2,2.1-2.5,3.2-3.7c0.2-0.2,0.5-0.4,0.8-0.4c0.7,0.2,1.5,0.4,2.2,0.7c-0.5,0.9-1.2,1.5-2.2,1.7
		c-0.8,0.2-1.5,0.3-2.2,0.6c-1.2,0.5-1.3,1.7-0.2,2.3c0.8,0.4,1.7,0.7,2.6,0.8c1.9,0.3,3.6-0.2,5.3-1.3c0.1,2.5,0.1,5,0.2,7.4
		s0.9,4.6,3.4,5.6c3.4,1.4,7.9-1,8.7-4.6c0.2-0.9,0.3-1.9,0.5-2.8c0.3-2,0.5-4.1,0.8-6.1c0.7,0,1.3,0,2,0c2.2,0,4.3-0.5,6.1-1.9
		c0.7-0.6,1.7-1.1,1.2-2.2s-1.5-0.6-2.4-0.5C43.3,29.8,41.8,30.2,40.3,29.5z"/>
	<path class="st0" d="M38.2,29.3c-1.4,0.6-1.7,1.8-1.8,3.2c-0.4,3.4-0.7,6.9-1.3,10.3c-0.5,2.7-4,4.5-6.6,3.5
		c-1.8-0.7-2.4-2.3-2.5-4c-0.2-3.3-0.2-6.5-0.2-9.8c0-1.9-0.9-3-3-3.4c0.3-0.9,0.6-1.9,1-2.7c1.7-3.4,1.5-6.9,0.6-10.4
		c-0.4-2-2.4-3-4.7-2.5c-1,0.2-1.9,0.6-2.8,0.9C16.6,9.2,20,4.5,24.9,4c4.3-0.4,8,1.2,10.9,4.4c1.2,1.4,2.2,2.9,2.8,4.7
		c-1,0.1-1.9,0.1-2.8,0.3c-2.1,0.5-3.3,2.3-2.8,4.4c0.5,1.8,1.1,3.6,1.8,5.3C35.9,25.2,37.1,27.2,38.2,29.3z"/>
	<path class="st0" d="M18.8,5.2c-3.1,3.7-3.8,7.9-3.7,12.4c0,1.8-0.1,3.5-0.2,5.3c-0.1,2.3,0.7,4.3,2.3,6c-1.3,1.5-2.6,3.1-4,4.5
		c-0.6,0.7-1.5,0.7-2.2,0c-0.6-0.6-1.2-1.2-1.5-1.9c-3-6-4.8-12.4-5.2-19.1c-0.1-1,0.2-2.3,0.6-3.4c0.9-3,3.3-4.7,6.4-4.8
		C13.8,4,16.2,4.3,18.8,5.2z"/>
	<path class="st0" d="M32.4,3.7c4-0.6,7.7-0.2,10.9,2.4c1.8,1.4,2.4,3.2,2.1,5.3c-0.7,5.9-2.9,11.3-6,16.3c1.2-2.3,0.8-4.7,0.6-7.1
		c-0.1-1.5,0.1-3.1,0.3-4.7c0.2-1.3,0.1-2.5-0.4-3.7c-1.5-3.5-3.8-6.2-7.1-8.1c-0.2-0.1-0.3-0.2-0.4-0.3C32.5,3.9,32.5,3.8,32.4,3.7
		z"/>
	<path class="st0" d="M21.2,29c-3.5-0.7-5.2-3.2-4.7-6.6c0.2-1.6,0.1-3.3,0.1-5c0-0.7,0.2-1.2,0.8-1.4c1.1-0.3,2.2-0.8,3.3-0.9
		c1.4-0.2,2,0.5,2.3,1.8c0.7,3.3,0.7,6.5-0.9,9.5C21.8,27.2,21.5,28.1,21.2,29z M21.1,15.2c-0.5,0.4-0.8,0.7-1.1,1
		c0.5,0.4,0.9,0.9,1.5,1.1c0.3,0.1,0.8-0.6,1.2-0.9C22.1,16.1,21.7,15.7,21.1,15.2z"/>
	<path class="st0" d="M39.2,14.8c-1.5,3.8,0.2,7.7-0.8,11.4c-1.5-2.6-3.1-5.1-3.7-8.1c-0.4-2.2,0.4-3.3,2.7-3.3
		C37.9,14.8,38.3,14.8,39.2,14.8z M36.6,17.1c0.5-0.6,0.9-1,1.2-1.4c-0.3-0.2-0.7-0.6-1-0.5c-0.5,0.1-0.9,0.5-1.4,0.8
		C35.7,16.3,36.1,16.6,36.6,17.1z"/>
	<path class="st0" d="M17.5,34.1c0.8-0.2,1.3-0.4,1.9-0.5c1.2-0.3,2-1.1,2.7-2c0.4-0.5,0.8-1.2,1.5-0.5c0.7,0.6,0.6,1.3,0,1.9
		C22.3,34.6,19.9,35.1,17.5,34.1z"/>
	<path class="st0" d="M45,31.1c-2,1.6-4.2,1.7-6.5,1.5c-0.8-0.1-0.5-0.6-0.4-1c0.2-0.7,0.7-1.1,1.4-0.8C41.3,31.6,43,31.4,45,31.1z"
		/>
</g>
</svg>
