<?xml version="1.0" encoding="utf-8"?>
<!-- Generator: Adobe Illustrator 27.2.0, SVG Export Plug-In . SVG Version: 6.00 Build 0)  -->
<svg version="1.1" id="a" xmlns="http://www.w3.org/2000/svg" xmlns:xlink="http://www.w3.org/1999/xlink" x="0px" y="0px"
	 viewBox="0 0 366.6 366.6" style="enable-background:new 0 0 366.6 366.6;" xml:space="preserve">
<style type="text/css">
	.st0{fill:#212121;}
	.st1{fill:#F9F9F9;}
</style>
<g>
	<path class="st0" d="M337.5,228.4L337.5,228.4c-0.9-8.5-6.4-14.1-11.5-19l0,0l-0.2-0.2c-6.8-5.8-14.6-11.2-24.7-16.7
		c2.4-10.8,6.4-30.5,4.3-41c-7.3-37.7-34.9-61.4-57.7-75c-0.3-4.1-2.2-10.5-11.9-14c-6.5-2.3-11.3-0.8-14.4,1.1
		c-19.6-7.8-37.8-11.6-47.5-11.7c-25.1-0.6-63,9.1-75.1,19.3c-11.1,9.3-21.8,39.2-25.1,49.2c-4,5.4-10.4,15-11.5,20.5
		c-1.5,7.8,1.5,15.9,7.7,21.1c-1.3,6-2.5,12.4-3.3,19.1c-0.2,0.4-0.4,0.8-0.6,1.2c-0.6,1.2-1.2,2.3-1.8,3.5
		c-8.5,15.9-16.8,40.2-9.5,64.6v0.2c4.3,12.8,14.1,25.1,28.1,35.5c11.8,8.7,26.2,15.8,40.4,19.9c13.9,4,28.2,6,42.4,6
		c9.9,0,19.8-1,29.3-2.9c14-1.3,26.3-4.4,36.6-9.3c13.4-4,24.3-13.2,32.1-26.6c4.2,0.1,8.4-0.4,12.3-1.7c7.7-2.4,17.9-8.6,25.3-23.6
		c7.2,0.9,13.2,0.8,18.8-0.3C329.3,245.9,338.4,239.3,337.5,228.4z"/>
	<path class="st1" d="M256,92.7c1.2,2.8,2.4,6.1,3.4,10.3c3.2,12.7,5.3,34.6-2.4,67.6c8.4,4.5,15.9,9.6,22,15c1.5,0.6,4.5,2,6,2.8
		c2.3,1.1,4.5,2.2,6.8,3.3c2.4-10.3,6.4-30.2,4.7-38.7C291.2,125.6,273.8,106.1,256,92.7L256,92.7z"/>
	<path class="st1" d="M174.9,143.6c1.2-0.1,2.9-1,4.6-7.7c1-4.2,0.3-8.3-1-9.5c-3.3-3.4-14-6.6-28.5-8.5c-13.4-1.8-25.2-1.9-29.2-1
		c-1.2,5.5-4.4,13.4-6,17.2c1.3,0.1,2.9,0.2,4.6,0.2c4.9,0.2,12.5,0.5,21.7,1.7c11.4,1.6,19.4,3.9,25.3,5.6
		C170.2,142.7,173.2,143.7,174.9,143.6L174.9,143.6z M125.1,126.8c-1.2-0.1-2.1-1.1-2-2.3c0-1.2,1.1-2.1,2.3-2.1
		c1.2,0.1,2.1,1.1,2,2.3C127.4,125.9,126.3,126.8,125.1,126.8z M138.4,127.4c-1.2-0.1-2.1-1.1-2.1-2.3c0.1-1.2,1.1-2.1,2.3-2
		c1.2,0,2.1,1,2,2.2C140.7,126.4,139.7,127.4,138.4,127.4z M151.8,129.3c-1.2-0.1-2.1-1.1-2.1-2.3c0.1-1.2,1.1-2.1,2.3-2
		c1.2,0,2.1,1,2,2.2C154,128.3,152.9,129.4,151.8,129.3z M162.7,130.4c0.1-1.2,1.1-2.1,2.3-2.1c1.2,0.1,2.1,1.1,2,2.3
		c0,1.2-1,2.1-2.2,2.1C163.7,132.6,162.7,131.6,162.7,130.4z"/>
	<path class="st1" d="M330,210.3l-0.2-0.2c-7-6-15-11.6-25.4-17.2c2.5-11.1,6.6-31.6,4.4-42.3c-7.5-38.8-36-63.3-59.4-77.2
		c-0.3-4.3-2.3-10.9-12.3-14.5c-6.7-2.4-11.7-0.8-14.9,1.1c-20.2-8.1-38.9-11.9-48.9-12.1c-25.9-0.6-64.9,9.4-77.4,19.9
		c-11.5,9.6-22.5,40.4-25.9,50.7c-4.1,5.6-10.7,15.4-11.8,21.1c-1.6,8.1,1.6,16.4,8,21.7c-1.4,6.1-2.6,12.7-3.4,19.7
		c-0.2,0.4-0.5,0.8-0.6,1.3c-0.6,1.2-1.3,2.4-1.8,3.6c-8.8,16.5-17.4,41.4-9.9,66.7v0.2c4.4,13.2,14.5,25.9,29,36.6
		c12.2,9,27,16.2,41.7,20.6c14.3,4.1,29.1,6.3,43.8,6.3c10.2,0,20.4-1,30.2-3c14.4-1.4,27.1-4.5,37.7-9.5
		c13.8-4.1,25.1-13.6,33-27.4c4.3,0.1,8.6-0.5,12.7-1.7c7.9-2.5,18.4-8.8,26-24.3c7.4,0.9,13.6,0.8,19.4-0.3c9.6-1.7,19-8.6,18-19.9
		v-0.1C340.9,221.1,335.2,215.2,330,210.3L330,210.3z M219.9,197.1c-0.1,1.4-0.7,3.2-1.1,4.5c-0.6,2.7-2.7,9.9-3.5,12.7
		c-0.9,3-2.5,10-3.9,12.8c-3.7,7.4-12.5,12-21,11.1c-6.6-0.5-13.8-4.4-14.8-11c3.6,2.5,7,4.9,11.1,6.3c7.9,2.4,15.9-0.9,19.7-7.3
		c-2,1.1-4.4,1.6-7,1.4c-0.6-0.1-1.3-0.2-1.9-0.4c-2.9-0.7-5.4-2.6-7.1-5.1c-1.6-2.6-2-5.5-1.2-8.4l4-14.8c0.8-2.8,2.7-5.1,5.4-6.7
		c2.7-1.5,5.8-1.8,8.8-1.1c3,0.8,5.5,2.7,7.2,5.2c0.1,0.1,0.1,0.3,0.2,0.4c0.5-2.6,0.2-5.2-0.7-7.8c-3.8-10.3-17.8-14-26.5-6.9
		c-2.6,2-4.5,4.9-5.7,8.1l-0.7,2c-0.9,2.6-3.5,9.6-4.4,12.3c-0.1-2.9,0.3-5.8,0.6-8.8c0.6-2.9,1-5.9,2-8.7
		c4.9-13.2,22.7-17,33.6-7.7C218.1,183.8,220.8,190.6,219.9,197.1L219.9,197.1z M100,208.8c-0.5-0.1-1.2-0.2-1.7-0.4
		c-2.8-0.7-5.1-2.6-6.7-5c-1.4-2.5-1.7-5.4-1-8.3l3.8-14.5c0.7-2.8,2.6-5,5-6.6c2.5-1.5,5.4-1.8,8.3-1.1c2.7,0.8,5.1,2.6,6.6,5
		c0.1,0.2,0.2,0.3,0.3,0.5c0.4-2.6,0.2-5.1-0.7-7.6c-3.5-10.2-16.5-13.8-24.7-6.8c-2.4,2.1-4.2,4.9-5.3,8l-0.7,2
		c-0.9,2.5-3.2,9.5-4.1,12.1c0-2.8,0.3-5.7,0.6-8.6c0.5-2.9,0.9-5.8,1.8-8.6c4.6-12.9,21.3-16.8,31.5-7.7c4.8,4.2,7.3,11,6.5,17.3
		c-0.2,1.4-0.7,3.1-1,4.5c-0.7,2.6-2.7,9.6-3.3,12.3c-1,3-2.5,9.9-3.8,12.7c-3.5,7.3-11.6,11.8-19.6,11c-6-0.5-12.8-4.2-13.8-10.7
		c3.3,2.5,6.5,4.8,10.4,6.1c7.3,2.3,14.9-1,18.3-7.3C104.6,208.4,102.4,209,100,208.8L100,208.8z M141.7,241.5l-20.2-3.9l-12.8-4.9
		l22.7-22l-7.8,24.2L141.7,241.5z M131.8,211c4.9,7.9,9.6,20.5,10.1,29.7l-0.1-0.1L131.8,211L131.8,211z M100.5,238.5l7.2,1.4
		c-1.7,9,5.1,17,16.9,19.6c7.7,1.6,16.3,0.3,22.2-3.6c2.1-1.4,4.9-3.8,5.5-7.2l7.2,1.4c-0.9,4.6-3.9,8.8-8.7,11.9
		c-5.3,3.5-12.4,5.3-19.5,5.3c-2.8,0-5.5-0.3-8.3-0.8C107.4,263.1,98,251.4,100.5,238.5L100.5,238.5z M140.3,141.2
		c-8.9-1.2-15.9-1.5-21.1-1.6c-6.6-0.3-9.1-0.4-10.2-2.5c-0.6-0.9-0.6-2,0-3c0.6-1.3,5.1-12,6.6-18.4c0.4-1.5,1.2-2.6,2.5-3.3
		c-1.8-1.3-5.5-3.1-12.8-4.5c0,0,6.6-5.3,15-4c-1.1-3.5-11.9-24.6-16.6-25c0,0,25.6-7.3,36.1,11.8c0.7-7.7,4.4-13.9,4.4-13.9
		c-0.4,6.6,8.2,16.8,12.5,21.6c13.6,3.7,20.5,12.5,23.5,22.8c0.8,0.6,1.6,1.1,2.2,1.7c3.2,3.3,3.5,9.9,2.4,14.6
		c-0.7,3-2.8,11.2-9.5,11.7h-0.6c-2.5,0-5.4-0.9-9.9-2.2C159,144.9,151.1,142.6,140.3,141.2L140.3,141.2z M322,244.8
		c-6.6,1.2-13.1,0.9-19.7,0c-0.5-0.1-0.9-0.2-1.4-0.3c-6.9,16.1-16.9,22.5-24.6,24.9c-3.9,1.2-7.4,1.6-10.3,1.6
		c-1.4,0-2.6-0.1-3.6-0.2c-7.2,13.7-18.7,24.7-34.5,28.3c19.2-13.4,29.1-29.3,36.2-51.4c2.3-6.9,4.1-13.9,6.4-21.2
		c0.5,3.8,0.5,7.5,0.4,11.3c-0.3,9.1-2.2,18.2-5.7,26.8c7.7,0.3,23.4-2.5,31.7-27.2c3.7-10.8,3.4-20.4-0.6-28.2
		c-2.3-4.4-5.5-7.9-8.9-10.5c-2-1.1-3.9-2.1-6-3.1c-1.2-0.6-3.2-1.6-4.8-2.3c-2.8,20.5-11.6,38.4-15.2,38.2
		c-1.8-0.1,1.1-23.2,1.1-23.2c-12.3-12.7-12-27-11.3-32.7c-19.2-11-39.9-19.1-60.9-26c20.7,2.2,44.5,9.5,63.9,19.6
		c7.5-32,5.4-53,2.3-65.3c-1.6-6.8-3.9-11.6-5.6-14.7c-4.2-2.8-8.5-5.4-12.5-7.7c-26.9-14.8-54.4-20.8-65.4-21.1
		c-22.8-0.5-58.9,8.3-69.2,17c-8.4,7-19.2,35.8-22.6,46.3l-0.2,0.6l-0.3,0.5c-4,5.4-10,14.4-10.6,17.3c-0.2,0.9-0.2,1.8-0.1,2.8
		c3.7-3.3,13.3-9.7,32.3-9.7c0,0.1-8.4,1.2-17.6,7.3c-5.5,16.2-10.2,32.9-13.7,49.6c-0.9,4.2-2.8,12.7-3.6,17
		c-0.4-3-0.5-6.1-0.6-9.5c-5.4,13.2-8.6,27.6-6.3,41.8c0.4,2.3,0.9,4.7,1.6,7.2c2.2,7,6.5,13,11.3,18.6c20.5,22.7,50.9,34.7,81,37.7
		c14,1.3,28.2,0.7,42.3-0.9c6.4-0.7,12.7-1.7,19.3-2.8c-4.8,1.9-9.8,3.5-14.9,4.8c-25.6,6.8-53,5.9-78.4-1.5
		c-26-7.5-58.2-26.9-67.2-53.8c-6.4-21.2-0.6-43.9,9.5-62.8c0.9-1.8,1.9-3.8,2.8-5.6c0.9-7.6,2.2-15.2,4-22.8
		c-6.4-3.8-10-11.6-8.6-18.8c1.1-5.3,9.2-16.5,11.5-19.8c2-6.1,13.5-39.8,24.5-49.1c11.6-9.7,49.5-19.4,74-18.7
		c9,0.2,28.2,3.9,49.2,12.7c2.2-1.8,6.5-4.2,12.7-1.9c9.5,3.3,9.5,9.8,9.1,12.6c23.5,13.4,52,37.1,59.4,75
		c2.2,11.5-3.6,36.7-5.1,43.6c9.7,5.1,19.1,11,27.4,18.2c4.7,4.4,9.7,9.6,10.5,16.5C336.9,238.6,329.4,243.6,322,244.8L322,244.8z
		 M280.5,223.2l-1-1.2c0,0,0.6,0.1,1.3,0.4c0.6-2.1,1.6-3.7,2.9-4.5c1.4-0.9,3.2-1.4,5.6-0.4c7.3,2.7,4.2,11.4,4.2,11.4
		s-0.5-6.7-3.6-7.3c0.1,2.7-1,6.1-1.6,10.3c-0.9,5.7-3.9,12.5-8.1,13.3c0.5,0.5,1.4,0.6,2.5,1c1.7,0.5,3.6-0.9,4.1-1.3
		c-0.5,0.9-2.8,4.2-7.6,3.1c-2.6-0.6-3.3-2.5-3.3-4.3c0-2.1,0.9-4.1,0.9-4.1c-0.9,0-1.6-0.2-1.6-0.2l2-0.9c0,0,5-1.6,6-6.3
		C284.2,227.4,280.5,223.2,280.5,223.2L280.5,223.2z M225,144.5c-2.1,2.8-3.1,4.3-5,7.4c4.2-2.9,6.7-4.3,11.6-7.1
		c-2.3-0.7-3.5-1-5.7-1.7c1.4-1.8,2.1-2.8,3.5-4.6c5.2,1.7,8.1,2.4,12.8,4h0.1c-1.5,6.3-2.4,9-4.3,15.4c-1.9-0.7-2.9-1.1-4.9-1.7
		c1.3-4.3,2-6.3,3.2-10.4c-0.9-0.3-1.3-0.4-2.3-0.7c-1.3,4.1-1.9,6-3.2,10.4c-6.6-2-9.4-2.8-15.2-4.6c1.3-6.4,1.9-9.4,3.5-15.8
		c1.9,0.6,2.9,0.9,4.8,1.6c-1.8,2.5-2.6,3.7-4.2,6.1C221.8,143.5,222.8,143.9,225,144.5L225,144.5z M250.4,152.9
		c-0.3,1.3-0.4,2-0.7,3.3c-0.9-1.5-1.9-2.2-2.7-2.6c-0.2,0.8-0.3,1.1-0.5,1.9c2.8,1,4.2,1.5,7.2,2.5c-0.4,1.9-0.7,2.9-1.2,5
		c-4.9-1.5-7.3-2.5-12.1-4.3c1.9-6.5,2.7-9.3,4.1-15.5c4.4,1.6,6.5,2.4,11.1,4.5c-0.3,1.8-0.4,2.7-0.7,4.6c-2.8-1.1-4.1-1.6-6.9-2.6
		c-0.2,1.1-0.4,1.6-0.6,2.7C249,152.2,250.4,152.9,250.4,152.9L250.4,152.9z M215.7,139.4c-2.9-0.9-4.3-1.3-7.4-2
		c-0.2,1.1-0.3,1.7-0.5,2.8c1.9-0.5,3.3,0.2,3.3,0.2c-0.2,1.4-0.4,2-0.6,3.4c-1-1.4-2.1-2.1-2.9-2.4c-0.5,2.8-0.7,4.2-1.2,7.1
		c-2.1-0.4-3.2-0.6-5.5-1c1.4-6.6,1.7-9.8,3.3-16.4c5,1,7.6,1.7,12.6,3.3C216.4,136.3,216.2,137.3,215.7,139.4L215.7,139.4z"/>
</g>
</svg>
