<?xml version="1.0" encoding="utf-8"?>
<!-- Generator: Adobe Illustrator 26.5.3, SVG Export Plug-In . SVG Version: 6.00 Build 0)  -->
<svg version="1.1" id="a" xmlns="http://www.w3.org/2000/svg" xmlns:xlink="http://www.w3.org/1999/xlink" x="0px" y="0px"
	 viewBox="0 0 43 43" style="enable-background:new 0 0 43 43;" xml:space="preserve">
<style type="text/css">
	.st0{fill:#212121;}
	.st1{fill:#F9F9F9;}
</style>
<g>
	<path class="st0" d="M42.3,28.3L42.3,28.3c-0.1-1.2-0.9-2.1-1.7-2.8l0,0l0,0c-1-0.8-2.1-1.6-3.6-2.4c0.4-1.6,0.9-4.5,0.6-6
		c-1.1-5.5-5.1-9-8.4-11c0-0.6-0.3-1.5-1.7-2c-0.9-0.3-1.7-0.1-2.1,0.2c-2.9-1.1-5.5-1.7-6.9-1.7c-3.7-0.1-9.2,1.3-11,2.8
		C5.9,6.7,4.3,11,3.8,12.5c-0.6,0.8-1.5,2.2-1.7,3c-0.2,1.1,0.2,2.3,1.1,3.1c-0.2,0.9-0.4,1.8-0.5,2.8c0,0.1-0.1,0.1-0.1,0.2
		c-0.1,0.2-0.2,0.3-0.3,0.5C1.2,24.4,0,27.9,1,31.5v0c0.6,1.9,2.1,3.7,4.1,5.2C6.9,38,9,39,11,39.6c2,0.6,4.1,0.9,6.2,0.9
		c1.4,0,2.9-0.1,4.3-0.4c2-0.2,3.8-0.6,5.3-1.4c2-0.6,3.5-1.9,4.7-3.9c0.6,0,1.2-0.1,1.8-0.2c1.1-0.4,2.6-1.3,3.7-3.4
		c1.1,0.1,1.9,0.1,2.7,0C41.1,30.8,42.5,29.9,42.3,28.3z"/>
	<path class="st1" d="M30.4,8.4c0.2,0.4,0.4,0.9,0.5,1.5c0.5,1.9,0.8,5.1-0.4,9.9c1.2,0.7,2.3,1.4,3.2,2.2c0.2,0.1,0.7,0.3,0.9,0.4
		c0.3,0.2,0.7,0.3,1,0.5c0.4-1.5,0.9-4.4,0.7-5.7C35.6,13.3,33,10.4,30.4,8.4L30.4,8.4z"/>
	<path class="st1" d="M18.6,15.9c0.2,0,0.4-0.1,0.7-1.1c0.1-0.6,0-1.2-0.1-1.4c-0.5-0.5-2-1-4.2-1.2c-2-0.3-3.7-0.3-4.3-0.1
		c-0.2,0.8-0.6,2-0.9,2.5c0.2,0,0.4,0,0.7,0c0.7,0,1.8,0.1,3.2,0.2c1.7,0.2,2.8,0.6,3.7,0.8C17.9,15.7,18.3,15.9,18.6,15.9
		L18.6,15.9z M11.3,13.4c-0.2,0-0.3-0.2-0.3-0.3c0-0.2,0.2-0.3,0.3-0.3c0.2,0,0.3,0.2,0.3,0.3C11.6,13.3,11.5,13.4,11.3,13.4z
		 M13.3,13.5c-0.2,0-0.3-0.2-0.3-0.3c0-0.2,0.2-0.3,0.3-0.3c0.2,0,0.3,0.1,0.3,0.3C13.6,13.4,13.4,13.5,13.3,13.5z M15.2,13.8
		c-0.2,0-0.3-0.2-0.3-0.3c0-0.2,0.2-0.3,0.3-0.3c0.2,0,0.3,0.1,0.3,0.3C15.5,13.6,15.4,13.8,15.2,13.8z M16.8,14
		c0-0.2,0.2-0.3,0.3-0.3c0.2,0,0.3,0.2,0.3,0.3c0,0.2-0.1,0.3-0.3,0.3C17,14.3,16.8,14.1,16.8,14z"/>
	<path class="st1" d="M41.2,25.6L41.2,25.6c-1.1-0.9-2.2-1.7-3.7-2.5c0.4-1.6,1-4.6,0.6-6.2c-1.1-5.7-5.3-9.2-8.7-11.3
		c0-0.6-0.3-1.6-1.8-2.1c-1-0.4-1.7-0.1-2.2,0.2c-3-1.2-5.7-1.7-7.1-1.8C14.6,1.8,8.9,3.3,7,4.8c-1.7,1.4-3.3,5.9-3.8,7.4
		c-0.6,0.8-1.6,2.2-1.7,3.1c-0.2,1.2,0.2,2.4,1.2,3.2c-0.2,0.9-0.4,1.9-0.5,2.9c0,0.1-0.1,0.1-0.1,0.2c-0.1,0.2-0.2,0.4-0.3,0.5
		c-1.3,2.4-2.5,6-1.4,9.7v0c0.6,1.9,2.1,3.8,4.2,5.3c1.8,1.3,3.9,2.4,6.1,3c2.1,0.6,4.2,0.9,6.4,0.9c1.5,0,3-0.1,4.4-0.4
		c2.1-0.2,4-0.7,5.5-1.4c2-0.6,3.7-2,4.8-4c0.6,0,1.3-0.1,1.9-0.2c1.2-0.4,2.7-1.3,3.8-3.5c1.1,0.1,2,0.1,2.8,0
		c1.4-0.2,2.8-1.3,2.6-2.9v0C42.8,27.2,42,26.3,41.2,25.6L41.2,25.6z M25.2,23.7c0,0.2-0.1,0.5-0.2,0.7c-0.1,0.4-0.4,1.4-0.5,1.9
		c-0.1,0.4-0.4,1.5-0.6,1.9c-0.5,1.1-1.8,1.8-3.1,1.6c-1-0.1-2-0.6-2.2-1.6c0.5,0.4,1,0.7,1.6,0.9c1.2,0.4,2.3-0.1,2.9-1.1
		c-0.3,0.2-0.6,0.2-1,0.2c-0.1,0-0.2,0-0.3-0.1c-0.4-0.1-0.8-0.4-1-0.7c-0.2-0.4-0.3-0.8-0.2-1.2l0.6-2.2c0.1-0.4,0.4-0.7,0.8-1
		c0.4-0.2,0.8-0.3,1.3-0.2c0.4,0.1,0.8,0.4,1.1,0.8c0,0,0,0,0,0.1c0.1-0.4,0-0.8-0.1-1.1c-0.6-1.5-2.6-2-3.9-1
		c-0.4,0.3-0.7,0.7-0.8,1.2L19.5,23c-0.1,0.4-0.5,1.4-0.6,1.8c0-0.4,0-0.8,0.1-1.3c0.1-0.4,0.1-0.9,0.3-1.3c0.7-1.9,3.3-2.5,4.9-1.1
		C24.9,21.8,25.3,22.7,25.2,23.7L25.2,23.7z M7.6,25.4c-0.1,0-0.2,0-0.2-0.1c-0.4-0.1-0.7-0.4-1-0.7c-0.2-0.4-0.2-0.8-0.1-1.2
		l0.6-2.1c0.1-0.4,0.4-0.7,0.7-1c0.4-0.2,0.8-0.3,1.2-0.2c0.4,0.1,0.7,0.4,1,0.7c0,0,0,0,0,0.1c0.1-0.4,0-0.7-0.1-1.1
		c-0.5-1.5-2.4-2-3.6-1c-0.4,0.3-0.6,0.7-0.8,1.2l-0.1,0.3c-0.1,0.4-0.5,1.4-0.6,1.8c0-0.4,0-0.8,0.1-1.3c0.1-0.4,0.1-0.8,0.3-1.3
		c0.7-1.9,3.1-2.5,4.6-1.1c0.7,0.6,1.1,1.6,0.9,2.5c0,0.2-0.1,0.5-0.1,0.7C10.2,22,10,23,9.9,23.4c-0.1,0.4-0.4,1.4-0.6,1.9
		c-0.5,1.1-1.7,1.7-2.9,1.6c-0.9-0.1-1.9-0.6-2-1.6C4.9,25.7,5.4,26,6,26.2c1.1,0.3,2.2-0.1,2.7-1.1C8.3,25.3,8,25.4,7.6,25.4
		L7.6,25.4z M13.7,30.2l-3-0.6l-1.9-0.7l3.3-3.2l-1.1,3.5L13.7,30.2z M12.3,25.7c0.7,1.2,1.4,3,1.5,4.3l0,0L12.3,25.7L12.3,25.7z
		 M7.7,29.7l1.1,0.2c-0.2,1.3,0.7,2.5,2.5,2.9c1.1,0.2,2.4,0,3.2-0.5c0.3-0.2,0.7-0.6,0.8-1.1l1.1,0.2c-0.1,0.7-0.6,1.3-1.3,1.7
		c-0.8,0.5-1.8,0.8-2.8,0.8c-0.4,0-0.8,0-1.2-0.1C8.7,33.3,7.4,31.6,7.7,29.7L7.7,29.7z M13.5,15.5c-1.3-0.2-2.3-0.2-3.1-0.2
		c-1,0-1.3-0.1-1.5-0.4c-0.1-0.1-0.1-0.3,0-0.4c0.1-0.2,0.7-1.8,1-2.7c0.1-0.2,0.2-0.4,0.4-0.5c-0.3-0.2-0.8-0.5-1.9-0.7
		c0,0,1-0.8,2.2-0.6c-0.2-0.5-1.7-3.6-2.4-3.7c0,0,3.7-1.1,5.3,1.7c0.1-1.1,0.6-2,0.6-2c-0.1,1,1.2,2.5,1.8,3.2c2,0.5,3,1.8,3.4,3.3
		c0.1,0.1,0.2,0.2,0.3,0.2c0.5,0.5,0.5,1.4,0.4,2.1c-0.1,0.4-0.4,1.6-1.4,1.7h-0.1c-0.4,0-0.8-0.1-1.4-0.3
		C16.3,16.1,15.1,15.7,13.5,15.5L13.5,15.5z M40.1,30.7c-1,0.2-1.9,0.1-2.9,0c-0.1,0-0.1,0-0.2,0c-1,2.4-2.5,3.3-3.6,3.6
		c-0.6,0.2-1.1,0.2-1.5,0.2c-0.2,0-0.4,0-0.5,0c-1.1,2-2.7,3.6-5,4.1c2.8-2,4.2-4.3,5.3-7.5c0.3-1,0.6-2,0.9-3.1
		c0.1,0.6,0.1,1.1,0.1,1.7c0,1.3-0.3,2.7-0.8,3.9c1.1,0,3.4-0.4,4.6-4c0.5-1.6,0.5-3-0.1-4.1c-0.3-0.6-0.8-1.2-1.3-1.5
		c-0.3-0.2-0.6-0.3-0.9-0.5c-0.2-0.1-0.5-0.2-0.7-0.3c-0.4,3-1.7,5.6-2.2,5.6c-0.3,0,0.2-3.4,0.2-3.4c-1.8-1.9-1.8-3.9-1.7-4.8
		c-2.8-1.6-5.8-2.8-8.9-3.8c3,0.3,6.5,1.4,9.3,2.9c1.1-4.7,0.8-7.7,0.3-9.5c-0.2-1-0.6-1.7-0.8-2.1c-0.6-0.4-1.2-0.8-1.8-1.1
		c-3.9-2.2-7.9-3-9.6-3.1C15,3.7,9.7,4.9,8.2,6.2C7,7.2,5.4,11.4,4.9,13l0,0.1l0,0.1c-0.6,0.8-1.5,2.1-1.5,2.5c0,0.1,0,0.3,0,0.4
		c0.5-0.5,1.9-1.4,4.7-1.4c0,0-1.2,0.2-2.6,1.1c-0.8,2.4-1.5,4.8-2,7.2c-0.1,0.6-0.4,1.9-0.5,2.5c-0.1-0.4-0.1-0.9-0.1-1.4
		c-0.8,1.9-1.3,4-0.9,6.1c0.1,0.3,0.1,0.7,0.2,1.1c0.3,1,0.9,1.9,1.7,2.7c3,3.3,7.4,5.1,11.8,5.5c2,0.2,4.1,0.1,6.2-0.1
		c0.9-0.1,1.9-0.2,2.8-0.4c-0.7,0.3-1.4,0.5-2.2,0.7c-3.7,1-7.7,0.9-11.4-0.2c-3.8-1.1-8.5-3.9-9.8-7.9c-0.9-3.1-0.1-6.4,1.4-9.2
		c0.1-0.3,0.3-0.6,0.4-0.8c0.1-1.1,0.3-2.2,0.6-3.3c-0.9-0.6-1.5-1.7-1.3-2.7C2.4,14.7,3.6,13,4,12.6c0.3-0.9,2-5.8,3.6-7.2
		C9.2,4,14.8,2.6,18.3,2.7c1.3,0,4.1,0.6,7.2,1.9c0.3-0.3,0.9-0.6,1.9-0.3c1.4,0.5,1.4,1.4,1.3,1.8c3.4,2,7.6,5.4,8.7,11
		c0.3,1.7-0.5,5.4-0.7,6.4c1.4,0.7,2.8,1.6,4,2.7c0.7,0.6,1.4,1.4,1.5,2.4C42.2,29.8,41.1,30.5,40.1,30.7L40.1,30.7z M34,27.5
		l-0.1-0.2c0,0,0.1,0,0.2,0.1c0.1-0.3,0.2-0.5,0.4-0.7c0.2-0.1,0.5-0.2,0.8-0.1c1.1,0.4,0.6,1.7,0.6,1.7s-0.1-1-0.5-1.1
		c0,0.4-0.1,0.9-0.2,1.5c-0.1,0.8-0.6,1.8-1.2,1.9c0.1,0.1,0.2,0.1,0.4,0.1c0.2,0.1,0.5-0.1,0.6-0.2c-0.1,0.1-0.4,0.6-1.1,0.5
		c-0.4-0.1-0.5-0.4-0.5-0.6c0-0.3,0.1-0.6,0.1-0.6c-0.1,0-0.2,0-0.2,0l0.3-0.1c0,0,0.7-0.2,0.9-0.9C34.5,28.1,34,27.5,34,27.5
		L34,27.5z M25.9,16c-0.3,0.4-0.5,0.6-0.7,1.1c0.6-0.4,1-0.6,1.7-1c-0.3-0.1-0.5-0.1-0.8-0.2c0.2-0.3,0.3-0.4,0.5-0.7
		c0.8,0.2,1.2,0.4,1.9,0.6h0c-0.2,0.9-0.4,1.3-0.6,2.2c-0.3-0.1-0.4-0.2-0.7-0.2c0.2-0.6,0.3-0.9,0.5-1.5c-0.1,0-0.2-0.1-0.3-0.1
		c-0.2,0.6-0.3,0.9-0.5,1.5c-1-0.3-1.4-0.4-2.2-0.7c0.2-0.9,0.3-1.4,0.5-2.3c0.3,0.1,0.4,0.1,0.7,0.2c-0.3,0.4-0.4,0.5-0.6,0.9
		C25.4,15.9,25.6,15.9,25.9,16L25.9,16z M29.6,17.2c0,0.2-0.1,0.3-0.1,0.5c-0.1-0.2-0.3-0.3-0.4-0.4c0,0.1,0,0.2-0.1,0.3
		c0.4,0.1,0.6,0.2,1.1,0.4c-0.1,0.3-0.1,0.4-0.2,0.7c-0.7-0.2-1.1-0.4-1.8-0.6c0.3-0.9,0.4-1.4,0.6-2.3c0.6,0.2,0.9,0.4,1.6,0.7
		c0,0.3-0.1,0.4-0.1,0.7c-0.4-0.2-0.6-0.2-1-0.4c0,0.2-0.1,0.2-0.1,0.4C29.4,17.1,29.6,17.2,29.6,17.2L29.6,17.2z M24.5,15.3
		c-0.4-0.1-0.6-0.2-1.1-0.3c0,0.2,0,0.2-0.1,0.4c0.3-0.1,0.5,0,0.5,0c0,0.2-0.1,0.3-0.1,0.5c-0.1-0.2-0.3-0.3-0.4-0.4
		c-0.1,0.4-0.1,0.6-0.2,1c-0.3-0.1-0.5-0.1-0.8-0.1c0.2-1,0.2-1.4,0.5-2.4c0.7,0.1,1.1,0.2,1.8,0.5C24.6,14.8,24.6,15,24.5,15.3
		L24.5,15.3z"/>
</g>
</svg>
