<?xml version="1.0" encoding="UTF-8"?><svg id="a" xmlns="http://www.w3.org/2000/svg" viewBox="0 0 300 300"><defs><style>.b{fill:#212121;}</style></defs><path class="b" d="m77.88,235.11c2.7.56,5.49.84,8.28.84,7.17,0,14.24-1.86,19.64-5.4,4.75-3.16,7.82-7.35,8.75-12.01l-7.17-1.4c-.65,3.44-3.44,5.86-5.59,7.26-5.86,3.91-14.62,5.31-22.34,3.63-11.82-2.61-18.8-10.71-17.04-19.74l-7.17-1.4c-2.51,12.94,6.98,24.76,22.62,28.21Z"/><path class="b" d="m80.4,89.98c-1.21,0-2.33.93-2.33,2.14-.09,1.21.84,2.23,2.05,2.33,1.21,0,2.23-.93,2.33-2.14.09-1.21-.84-2.23-2.05-2.33Z"/><polygon class="b" points="63.55 201.04 76.39 205.98 96.69 209.98 78.53 203.28 86.35 178.89 63.55 201.04"/><path class="b" d="m233.44,206.81l-2.05.93s.74.19,1.68.19c0,0-.93,2.05-.93,4.19,0,1.86.74,3.72,3.35,4.38,4.84,1.12,7.17-2.23,7.63-3.17-.56.37-2.42,1.77-4.19,1.3-1.12-.37-2.05-.56-2.51-1.02,4.19-.84,7.17-7.63,8.1-13.41.65-4.1,1.77-7.63,1.68-10.33,3.17.65,3.63,7.35,3.63,7.35,0,0,3.07-8.75-4.28-11.45-2.42-1.02-4.28-.56-5.68.37-1.3.84-2.42,2.42-2.98,4.56-.74-.28-1.3-.37-1.3-.37l1.02,1.21s3.72,4.19,2.89,8.94c-.93,4.65-6.05,6.33-6.05,6.33Z"/><path class="b" d="m292.74,198.34c-.74-6.98-5.77-12.2-10.52-16.66-8.47-7.35-17.87-13.22-27.65-18.43,1.58-6.89,7.45-32.3,5.21-43.85-7.35-38.17-36.12-62.09-59.77-75.59.47-2.79.47-9.31-9.12-12.66-6.33-2.33-10.61.09-12.85,1.96-21.13-8.75-40.5-12.57-49.53-12.75-24.67-.65-62.93,9.03-74.57,18.8-11.08,9.31-22.62,43.29-24.67,49.43-2.33,3.26-10.43,14.52-11.54,19.92-1.4,7.26,2.23,15.08,8.66,18.9-1.86,7.54-3.17,15.27-4.1,22.9-.93,1.86-1.96,3.82-2.89,5.68-10.15,19.18-15.92,41.98-9.5,63.3,9.12,27.18,41.52,46.73,67.68,54.27,25.6,7.45,53.25,8.29,79.04,1.49,5.12-1.3,10.15-2.89,14.99-4.84-6.52,1.02-12.94,2.05-19.36,2.79-14.15,1.68-28.49,2.23-42.64.93-30.26-3.07-60.88-15.17-81.55-37.98-4.84-5.59-9.12-11.73-11.36-18.71-.65-2.42-1.21-4.84-1.58-7.17-2.33-14.34.84-28.86,6.33-42.17.09,3.26.28,6.42.65,9.5.84-4.28,2.7-12.85,3.63-17.13,3.54-16.94,8.19-33.61,13.78-49.99,9.31-6.14,17.78-7.26,17.78-7.35-19.08,0-28.77,6.42-32.49,9.77-.09-.93-.09-1.86.09-2.79.56-2.98,6.52-12.01,10.61-17.5l.28-.47.19-.56c3.44-10.61,14.24-39.66,22.71-46.64,10.33-8.75,46.73-17.69,69.63-17.13,11.08.28,38.82,6.33,65.91,21.23,4,2.23,8.29,4.84,12.57,7.73,1.77,3.16,4,8.01,5.68,14.8,3.17,12.38,5.21,33.61-2.33,65.82-19.64-10.15-43.57-17.5-64.42-19.74,21.13,6.98,42.08,15.08,61.35,26.16-.75,5.77-1.02,20.11,11.36,32.95,0,0-2.98,23.27-1.12,23.37,3.72.28,12.57-17.87,15.36-38.45,1.58.74,3.63,1.77,4.84,2.33,2.05,1.02,4,2.05,6.05,3.16,3.35,2.61,6.61,6.05,8.94,10.52,4.1,7.91,4.38,17.5.65,28.39-8.38,24.95-24.2,27.74-31.93,27.46,3.54-8.56,5.49-17.87,5.77-27,.09-3.82.09-7.54-.37-11.36-2.23,7.26-4.1,14.43-6.42,21.32-7.17,22.16-17.22,38.26-36.49,51.76,15.92-3.72,27.56-14.8,34.72-28.58,1.02.09,2.23.19,3.63.19,2.89,0,6.42-.37,10.33-1.58,7.73-2.42,17.87-8.75,24.76-25.04.47.09.93.19,1.4.28,6.61.93,13.22,1.21,19.83,0,7.45-1.3,14.99-6.33,14.34-14.99Zm-44.87-38.54c-2.23-1.12-4.47-2.23-6.8-3.35-1.49-.74-4.56-2.14-6.05-2.79-6.14-5.4-13.68-10.52-22.16-15.08,7.82-33.33,5.68-55.39,2.42-68.14-1.02-4.1-2.23-7.54-3.44-10.33,17.97,13.41,35.47,33.14,40.77,60.7,1.68,8.56-2.33,28.67-4.75,39.01Z"/><path class="b" d="m42.79,182.89c-3.91-1.3-7.07-3.63-10.43-6.14.93,6.52,7.73,10.33,13.87,10.8,8.01.84,16.2-3.72,19.74-11.08,1.4-2.79,2.89-9.68,3.91-12.75.65-2.7,2.61-9.77,3.35-12.38.28-1.4.84-3.16,1.02-4.56.84-6.42-1.68-13.22-6.52-17.5-10.24-9.22-27-5.31-31.65,7.73-.93,2.79-1.4,5.68-1.86,8.66-.37,2.89-.65,5.77-.65,8.66.93-2.7,3.26-9.68,4.19-12.2l.74-2.05c1.12-3.07,2.98-5.86,5.4-8.01,8.19-7.08,21.32-3.44,24.86,6.8.93,2.42,1.12,5.03.74,7.63-.09-.19-.19-.28-.28-.47-1.4-2.51-3.82-4.28-6.61-5.12-2.79-.74-5.77-.37-8.29,1.12-2.51,1.49-4.38,3.82-5.12,6.61l-3.91,14.62c-.74,2.79-.37,5.77,1.02,8.29,1.49,2.51,3.82,4.38,6.7,5.12.56.19,1.21.28,1.77.37,2.33.19,4.56-.37,6.52-1.49-3.54,6.33-11.17,9.68-18.53,7.35Z"/><path class="b" d="m93.71,90.63c-1.21-.09-2.23.84-2.33,2.05,0,1.21.93,2.23,2.14,2.33,1.21,0,2.23-.93,2.23-2.14.09-1.21-.84-2.23-2.05-2.23Z"/><path class="b" d="m96.97,209.23c-.47-9.4-5.12-22.06-10.15-29.98l10.05,29.88.09.09Z"/><path class="b" d="m210.57,120.11c.33-1.88.48-2.8.76-4.67-4.67-2.06-6.77-2.94-11.19-4.53-1.44,6.3-2.24,9.13-4.16,15.6,4.83,1.81,7.22,2.85,12.2,4.39.57-2.09.82-3.09,1.26-5.06-2.92-.96-4.33-1.48-7.15-2.51.2-.78.29-1.17.48-1.94.79.42,1.79,1.2,2.7,2.68.32-1.35.47-2.02.75-3.34,0,0-1.35-.76-3.18-.48.26-1.1.38-1.65.62-2.75,2.71,1.02,4.07,1.55,6.91,2.62Z"/><path class="b" d="m174.74,102.72c-1.62,6.48-2.23,9.46-3.57,15.89,5.89,1.79,8.77,2.63,15.33,4.63,1.32-4.31,2-6.3,3.29-10.45.93.28,1.39.42,2.3.71-1.25,4.16-1.92,6.16-3.25,10.48,2.02.66,3.02,1.02,5,1.74,1.93-6.41,2.78-9.21,4.33-15.5-.04-.01-.05-.02-.09-.03-4.75-1.62-7.55-2.32-12.87-4.03-1.44,1.9-2.17,2.83-3.58,4.7,2.22.7,3.43,1.04,5.75,1.73-4.97,2.72-7.43,4.09-11.7,7.08,1.91-3.04,2.92-4.48,5.04-7.38-2.2-.69-3.27-1.05-5.43-1.74,1.65-2.49,2.52-3.71,4.32-6.23-1.94-.65-2.91-.97-4.86-1.6Z"/><path class="b" d="m156.39,115.24c2.36.33,3.46.53,5.58.97.52-2.86.74-4.28,1.23-7.12.86.32,1.97,1.01,2.96,2.41.24-1.38.36-2.07.62-3.45,0,0-1.44-.66-3.37-.15.2-1.15.31-1.73.52-2.89,3.01.72,4.48,1.15,7.39,2.03.43-2,.66-3,1.15-5.04-5.04-1.57-7.64-2.33-12.68-3.31-1.64,6.7-1.98,9.93-3.39,16.55Z"/><path class="b" d="m168.46,147.42c-10.98-9.4-28.86-5.59-33.79,7.73-1.02,2.79-1.49,5.77-2.05,8.75-.37,2.98-.74,5.86-.65,8.84.93-2.7,3.54-9.77,4.47-12.38l.74-2.05c1.21-3.17,3.17-6.05,5.77-8.1,8.75-7.26,22.9-3.44,26.72,6.89.93,2.51,1.21,5.21.74,7.82-.09-.09-.09-.28-.19-.37-1.58-2.61-4.1-4.47-7.17-5.31-2.98-.74-6.14-.37-8.84,1.12-2.79,1.49-4.65,3.82-5.49,6.7l-4.1,14.89c-.84,2.89-.37,5.86,1.21,8.47,1.58,2.61,4.1,4.47,7.08,5.21.65.19,1.3.28,1.95.37,2.51.28,4.93-.28,6.98-1.4-3.82,6.42-11.92,9.77-19.83,7.35-4.19-1.4-7.54-3.82-11.17-6.33,1.02,6.61,8.29,10.61,14.89,11.08,8.56.93,17.41-3.72,21.13-11.17,1.49-2.89,3.07-9.87,4-12.94.84-2.79,2.89-10.05,3.54-12.75.37-1.3,1.02-3.17,1.12-4.56.93-6.61-1.86-13.5-7.07-17.87Z"/><path class="b" d="m122.29,98.17c.09-1.21-.84-2.23-2.05-2.33-1.21,0-2.23.93-2.33,2.14,0,1.21.93,2.23,2.14,2.33,1.21,0,2.23-.93,2.23-2.14Z"/><path class="b" d="m129.92,116.61h.56c6.8-.47,8.84-8.66,9.59-11.73,1.12-4.75.84-11.36-2.42-14.71-.65-.56-1.4-1.12-2.23-1.68-3.07-10.43-9.96-19.27-23.65-22.99-4.38-4.75-12.94-15.08-12.57-21.69,0,0-3.72,6.33-4.47,14.06-10.52-19.18-36.31-11.92-36.31-11.92,4.75.37,15.64,21.6,16.76,25.13-8.56-1.3-15.17,4.1-15.17,4.1,7.35,1.4,11.08,3.26,12.94,4.56-1.3.74-2.14,1.86-2.51,3.35-1.4,6.52-6.05,17.32-6.61,18.62-.56,1.02-.56,2.14,0,3.07,1.12,2.14,3.63,2.23,10.24,2.51,5.21.09,12.29.37,21.23,1.58,10.99,1.49,18.9,3.82,24.67,5.49,4.47,1.3,7.45,2.23,9.96,2.23Zm-55.67-14.71c-1.68,0-3.35-.09-4.65-.19,1.58-3.82,4.84-11.73,6.05-17.32,4-.93,15.92-.84,29.42,1.02,14.62,1.96,25.41,5.12,28.77,8.56,1.3,1.3,2.05,5.31,1.02,9.59-1.68,6.7-3.44,7.63-4.65,7.73-1.68.09-4.75-.84-8.66-2.05-5.96-1.68-14.06-4.1-25.51-5.68-9.22-1.21-16.76-1.49-21.78-1.68Z"/><path class="b" d="m107.02,92.5c-1.21-.09-2.23.84-2.33,2.05,0,1.21.93,2.23,2.14,2.33,1.21.09,2.23-.93,2.23-2.14.09-1.21-.84-2.23-2.05-2.23Z"/></svg>