<?xml version="1.0" encoding="utf-8"?>
<!-- Generator: Adobe Illustrator 27.2.0, SVG Export Plug-In . SVG Version: 6.00 Build 0)  -->
<svg version="1.1" id="a" xmlns="http://www.w3.org/2000/svg" xmlns:xlink="http://www.w3.org/1999/xlink" x="0px" y="0px"
	 viewBox="0 0 300 300" style="enable-background:new 0 0 300 300;" xml:space="preserve">
<style type="text/css">
	.st0{fill:#212121;}
	.st1{fill:#F9F9F9;}
</style>
<path class="st0" d="M291.6,196.1L291.6,196.1c-0.9-8.4-6.3-14-11.4-18.8l0,0l-0.2-0.2c-6.7-5.8-14.5-11.1-24.5-16.6
	c2.4-10.7,6.3-30.3,4.3-40.7c-7.2-37.4-34.6-60.9-57.2-74.4c-0.3-4.1-2.2-10.4-11.8-13.9c-6.4-2.3-11.2-0.8-14.3,1.1
	C157.1,24.9,139,21.1,129.4,21c-24.9-0.6-62.5,9-74.5,19.1c-11,9.2-21.6,38.9-24.9,48.8c-4,5.4-10.3,14.9-11.4,20.3
	c-1.5,7.7,1.5,15.8,7.6,20.9c-1.3,6-2.5,12.3-3.3,18.9c-0.2,0.4-0.4,0.8-0.6,1.2c-0.6,1.2-1.2,2.3-1.8,3.5
	c-8.4,15.8-16.7,39.9-9.4,64.1v0.2c4.3,12.7,14,24.9,27.9,35.2c11.7,8.6,26,15.7,40.1,19.7c13.8,4,28,6,42.1,6
	c9.8,0,19.6-1,29.1-2.9c13.9-1.3,26.1-4.4,36.3-9.2c13.3-4,24.1-13.1,31.8-26.4c4.2,0.1,8.3-0.4,12.2-1.7
	c7.6-2.4,17.8-8.5,25.1-23.4c7.1,0.9,13.1,0.8,18.6-0.3C283.5,213.5,292.5,206.9,291.6,196.1z"/>
<path class="st1" d="M210.8,61.5c1.2,2.8,2.4,6.1,3.4,10.2c3.2,12.6,5.3,34.3-2.4,67.1c8.3,4.5,15.8,9.5,21.8,14.9
	c1.5,0.6,4.5,2,6,2.8c2.3,1.1,4.5,2.2,6.7,3.3c2.4-10.2,6.3-30,4.7-38.4C245.7,94.2,228.5,74.8,210.8,61.5L210.8,61.5z"/>
<path class="st1" d="M130.4,112c1.2-0.1,2.9-1,4.6-7.6c1-4.2,0.3-8.2-1-9.4c-3.3-3.4-13.9-6.5-28.3-8.4c-13.3-1.8-25-1.9-29-1
	c-1.2,5.5-4.4,13.3-6,17.1c1.3,0.1,2.9,0.2,4.6,0.2c4.9,0.2,12.4,0.5,21.5,1.7c11.3,1.6,19.2,3.9,25.1,5.6
	C125.7,111.1,128.7,112.1,130.4,112L130.4,112z M81,95.4c-1.2-0.1-2.1-1.1-2-2.3c0-1.2,1.1-2.1,2.3-2.1c1.2,0.1,2.1,1.1,2,2.3
	C83.2,94.5,82.2,95.4,81,95.4z M94.2,95.9c-1.2-0.1-2.1-1.1-2.1-2.3c0.1-1.2,1.1-2.1,2.3-2c1.2,0,2.1,1,2,2.2
	C96.4,95,95.4,95.9,94.2,95.9z M107.4,97.8c-1.2-0.1-2.1-1.1-2.1-2.3c0.1-1.2,1.1-2.1,2.3-2c1.2,0,2.1,1,2,2.2
	C109.6,96.8,108.5,97.9,107.4,97.8z M118.3,98.9c0.1-1.2,1.1-2.1,2.3-2.1c1.2,0.1,2.1,1.1,2,2.3c0,1.2-1,2.1-2.2,2.1
	C119.2,101.1,118.3,100.1,118.3,98.9z"/>
<path class="st1" d="M284.2,178.2L284,178c-6.9-6-14.9-11.5-25.2-17.1c2.5-11,6.5-31.3,4.4-42c-7.4-38.5-35.7-62.8-58.9-76.6
	C204,38,202,31.5,192.1,27.9c-6.6-2.4-11.6-0.8-14.8,1.1c-20-8-38.6-11.8-48.5-12c-25.7-0.6-64.4,9.3-76.8,19.7
	C40.6,46.2,29.7,76.8,26.3,87c-4.1,5.6-10.6,15.3-11.7,20.9c-1.6,8,1.6,16.3,7.9,21.5c-1.4,6.1-2.6,12.6-3.4,19.5
	c-0.2,0.4-0.5,0.8-0.6,1.3c-0.6,1.2-1.3,2.4-1.8,3.6C8,170.2-0.6,194.9,6.9,220v0.2c4.4,13.1,14.4,25.7,28.8,36.3
	c12.1,8.9,26.8,16.1,41.4,20.4c14.2,4.1,28.9,6.2,43.4,6.2c10.1,0,20.2-1,30-3c14.3-1.4,26.9-4.5,37.4-9.4
	c13.7-4.1,24.9-13.5,32.7-27.2c4.3,0.1,8.5-0.5,12.6-1.7c7.8-2.5,18.3-8.7,25.8-24.1c7.3,0.9,13.5,0.8,19.2-0.3
	c9.5-1.7,18.8-8.5,17.9-19.7v-0.1C295,188.9,289.4,183,284.2,178.2L284.2,178.2z M175,165.1c-0.1,1.4-0.7,3.2-1.1,4.5
	c-0.6,2.7-2.7,9.8-3.5,12.6c-0.9,3-2.5,9.9-3.9,12.7c-3.7,7.3-12.4,11.9-20.8,11c-6.5-0.5-13.7-4.4-14.7-10.9
	c3.6,2.5,6.9,4.9,11,6.2c7.8,2.4,15.8-0.9,19.5-7.2c-2,1.1-4.4,1.6-6.9,1.4c-0.6-0.1-1.3-0.2-1.9-0.4c-2.9-0.7-5.4-2.6-7-5.1
	c-1.6-2.6-2-5.5-1.2-8.3l4-14.7c0.8-2.8,2.7-5.1,5.4-6.6c2.7-1.5,5.8-1.8,8.7-1.1c3,0.8,5.5,2.7,7.1,5.2c0.1,0.1,0.1,0.3,0.2,0.4
	c0.5-2.6,0.2-5.2-0.7-7.7c-3.8-10.2-17.7-13.9-26.3-6.8c-2.6,2-4.5,4.9-5.7,8l-0.7,2c-0.9,2.6-3.5,9.5-4.4,12.2
	c-0.1-2.9,0.3-5.8,0.6-8.7c0.6-2.9,1-5.9,2-8.6c4.9-13.1,22.5-16.9,33.3-7.6C173.2,151.9,175.9,158.6,175,165.1L175,165.1z
	 M56.1,176.7c-0.5-0.1-1.2-0.2-1.7-0.4c-2.8-0.7-5.1-2.6-6.6-5c-1.4-2.5-1.7-5.4-1-8.2l3.8-14.4c0.7-2.8,2.6-5,5-6.5
	c2.5-1.5,5.4-1.8,8.2-1.1c2.7,0.8,5.1,2.6,6.5,5c0.1,0.2,0.2,0.3,0.3,0.5c0.4-2.6,0.2-5.1-0.7-7.5c-3.5-10.1-16.4-13.7-24.5-6.7
	c-2.4,2.1-4.2,4.9-5.3,7.9l-0.7,2c-0.9,2.5-3.2,9.4-4.1,12c0-2.8,0.3-5.7,0.6-8.5c0.5-2.9,0.9-5.8,1.8-8.5
	c4.6-12.8,21.1-16.7,31.2-7.6c4.8,4.2,7.2,10.9,6.4,17.2c-0.2,1.4-0.7,3.1-1,4.5c-0.7,2.6-2.7,9.5-3.3,12.2c-1,3-2.5,9.8-3.8,12.6
	c-3.5,7.2-11.5,11.7-19.4,10.9c-6-0.5-12.7-4.2-13.7-10.6c3.3,2.5,6.4,4.8,10.3,6.1c7.2,2.3,14.8-1,18.2-7.2
	C60.6,176.3,58.4,176.9,56.1,176.7L56.1,176.7z M97.4,209.1l-20-3.9l-12.7-4.9l22.5-21.8l-7.7,24L97.4,209.1z M87.6,178.9
	c4.9,7.8,9.5,20.3,10,29.5l-0.1-0.1L87.6,178.9L87.6,178.9z M56.6,206.1l7.1,1.4c-1.7,8.9,5.1,16.9,16.8,19.4
	c7.6,1.6,16.2,0.3,22-3.6c2.1-1.4,4.9-3.8,5.5-7.1l7.1,1.4c-0.9,4.6-3.9,8.7-8.6,11.8c-5.3,3.5-12.3,5.3-19.3,5.3
	c-2.8,0-5.5-0.3-8.2-0.8C63.4,230.5,54.1,218.9,56.6,206.1L56.6,206.1z M96,109.6c-8.8-1.2-15.8-1.5-20.9-1.6
	c-6.5-0.3-9-0.4-10.1-2.5c-0.6-0.9-0.6-2,0-3c0.6-1.3,5.1-11.9,6.5-18.3c0.4-1.5,1.2-2.6,2.5-3.3c-1.8-1.3-5.5-3.1-12.7-4.5
	c0,0,6.5-5.3,14.9-4C75.1,68.9,64.4,48,59.7,47.6c0,0,25.4-7.2,35.8,11.7c0.7-7.6,4.4-13.8,4.4-13.8c-0.4,6.5,8.1,16.7,12.4,21.4
	c13.5,3.7,20.3,12.4,23.3,22.6c0.8,0.6,1.6,1.1,2.2,1.7c3.2,3.3,3.5,9.8,2.4,14.5c-0.7,3-2.8,11.1-9.4,11.6h-0.6
	c-2.5,0-5.4-0.9-9.8-2.2C114.6,113.3,106.8,111,96,109.6L96,109.6z M276.3,212.4c-6.5,1.2-13,0.9-19.5,0c-0.5-0.1-0.9-0.2-1.4-0.3
	c-6.8,16-16.8,22.3-24.4,24.7c-3.9,1.2-7.3,1.6-10.2,1.6c-1.4,0-2.6-0.1-3.6-0.2c-7.1,13.6-18.5,24.5-34.2,28.1
	c19-13.3,28.9-29.1,35.9-51c2.3-6.8,4.1-13.8,6.3-21c0.5,3.8,0.5,7.4,0.4,11.2c-0.3,9-2.2,18.1-5.7,26.6c7.6,0.3,23.2-2.5,31.4-27
	c3.7-10.7,3.4-20.2-0.6-28c-2.3-4.4-5.5-7.8-8.8-10.4c-2-1.1-3.9-2.1-6-3.1c-1.2-0.6-3.2-1.6-4.8-2.3c-2.8,20.3-11.5,38.1-15.1,37.9
	c-1.8-0.1,1.1-23,1.1-23c-12.2-12.6-11.9-26.8-11.2-32.4c-19-10.9-39.6-18.9-60.4-25.8c20.5,2.2,44.1,9.4,63.4,19.4
	c7.4-31.7,5.4-52.6,2.3-64.8c-1.6-6.7-3.9-11.5-5.6-14.6c-4.2-2.8-8.4-5.4-12.4-7.6c-26.7-14.7-54-20.6-64.9-20.9
	c-22.6-0.5-58.4,8.2-68.6,16.9c-8.3,6.9-19,35.5-22.4,45.9l-0.2,0.6l-0.3,0.5c-4,5.4-9.9,14.3-10.5,17.2c-0.2,0.9-0.2,1.8-0.1,2.8
	c3.7-3.3,13.2-9.6,32-9.6c0,0.1-8.3,1.2-17.5,7.2c-5.5,16.1-10.1,32.6-13.6,49.2c-0.9,4.2-2.8,12.6-3.6,16.9c-0.4-3-0.5-6.1-0.6-9.4
	c-5.4,13.1-8.5,27.4-6.2,41.5c0.4,2.3,0.9,4.7,1.6,7.1c2.2,6.9,6.4,12.9,11.2,18.4c20.3,22.5,50.5,34.4,80.3,37.4
	c13.9,1.3,28,0.7,42-0.9c6.3-0.7,12.6-1.7,19.1-2.8c-4.8,1.9-9.7,3.5-14.8,4.8c-25.4,6.7-52.6,5.9-77.8-1.5
	c-25.8-7.4-57.7-26.7-66.7-53.4c-6.3-21-0.6-43.5,9.4-62.3c0.9-1.8,1.9-3.8,2.8-5.6c0.9-7.5,2.2-15.1,4-22.6
	c-6.3-3.8-9.9-11.5-8.5-18.6c1.1-5.3,9.1-16.4,11.4-19.6c2-6.1,13.4-39.5,24.3-48.7c11.5-9.6,49.1-19.2,73.4-18.5
	c8.9,0.2,28,3.9,48.8,12.6c2.2-1.8,6.4-4.2,12.6-1.9c9.4,3.3,9.4,9.7,9,12.5c23.3,13.3,51.6,36.8,58.9,74.4
	c2.2,11.4-3.6,36.4-5.1,43.2c9.6,5.1,18.9,10.9,27.2,18.1c4.7,4.4,9.6,9.5,10.4,16.4C291,206.2,283.6,211.2,276.3,212.4L276.3,212.4
	z M235.1,191l-1-1.2c0,0,0.6,0.1,1.3,0.4c0.6-2.1,1.6-3.7,2.9-4.5c1.4-0.9,3.2-1.4,5.6-0.4c7.2,2.7,4.2,11.3,4.2,11.3
	s-0.5-6.6-3.6-7.2c0.1,2.7-1,6.1-1.6,10.2c-0.9,5.7-3.9,12.4-8,13.2c0.5,0.5,1.4,0.6,2.5,1c1.7,0.5,3.6-0.9,4.1-1.3
	c-0.5,0.9-2.8,4.2-7.5,3.1c-2.6-0.6-3.3-2.5-3.3-4.3c0-2.1,0.9-4.1,0.9-4.1c-0.9,0-1.6-0.2-1.6-0.2l2-0.9c0,0,5-1.6,6-6.2
	C238.8,195.1,235.1,191,235.1,191L235.1,191z M180.1,112.9c-2.1,2.8-3.1,4.3-5,7.3c4.2-2.9,6.6-4.3,11.5-7c-2.3-0.7-3.5-1-5.7-1.7
	c1.4-1.8,2.1-2.8,3.5-4.6c5.2,1.7,8,2.4,12.7,4l0.1,0c-1.5,6.2-2.4,8.9-4.3,15.3c-1.9-0.7-2.9-1.1-4.9-1.7c1.3-4.3,2-6.2,3.2-10.3
	c-0.9-0.3-1.3-0.4-2.3-0.7c-1.3,4.1-1.9,6-3.2,10.3c-6.5-2-9.3-2.8-15.1-4.6c1.3-6.3,1.9-9.3,3.5-15.7c1.9,0.6,2.9,0.9,4.8,1.6
	c-1.8,2.5-2.6,3.7-4.2,6.1C176.9,111.9,177.9,112.3,180.1,112.9L180.1,112.9z M205.2,121.2c-0.3,1.3-0.4,2-0.7,3.3
	c-0.9-1.5-1.9-2.2-2.7-2.6c-0.2,0.8-0.3,1.1-0.5,1.9c2.8,1,4.2,1.5,7.1,2.5c-0.4,1.9-0.7,2.9-1.2,5c-4.9-1.5-7.2-2.5-12-4.3
	c1.9-6.4,2.7-9.2,4.1-15.4c4.4,1.6,6.4,2.4,11,4.5c-0.3,1.8-0.4,2.7-0.7,4.6c-2.8-1.1-4.1-1.6-6.8-2.6c-0.2,1.1-0.4,1.6-0.6,2.7
	C203.9,120.5,205.2,121.2,205.2,121.2L205.2,121.2z M170.8,107.8c-2.9-0.9-4.3-1.3-7.3-2c-0.2,1.1-0.3,1.7-0.5,2.8
	c1.9-0.5,3.3,0.2,3.3,0.2c-0.2,1.4-0.4,2-0.6,3.4c-1-1.4-2.1-2.1-2.9-2.4c-0.5,2.8-0.7,4.2-1.2,7c-2.1-0.4-3.2-0.6-5.5-1
	c1.4-6.5,1.7-9.7,3.3-16.3c5,1,7.5,1.7,12.5,3.3C171.5,104.8,171.3,105.8,170.8,107.8L170.8,107.8z"/>
</svg>
