<?xml version="1.0" encoding="utf-8"?>
<!-- Generator: Adobe Illustrator 26.5.3, SVG Export Plug-In . SVG Version: 6.00 Build 0)  -->
<svg version="1.1" id="a" xmlns="http://www.w3.org/2000/svg" xmlns:xlink="http://www.w3.org/1999/xlink" x="0px" y="0px"
	 viewBox="0 0 43 43" style="enable-background:new 0 0 43 43;" xml:space="preserve">
<style type="text/css">
	.st0{fill:#212121;}
	.st1{fill:#F9F9F9;}
</style>
<g>
	<path class="st0" d="M39.5,26.9L39.5,26.9c-0.1-1-0.7-1.7-1.4-2.2l0,0l0,0c-0.8-0.6-1.7-1.3-2.9-1.9c0.3-1.3,0.7-3.6,0.5-4.8
		c-0.9-4.4-4.1-7.2-6.7-8.7c0-0.5-0.2-1.2-1.4-1.6c-0.7-0.2-1.4-0.1-1.7,0.2c-2.3-0.9-4.4-1.4-5.5-1.4c-2.9-0.1-7.3,1-8.7,2.2
		c-1.3,1-2.5,4.5-2.9,5.6c-0.5,0.6-1.2,1.7-1.4,2.4c-0.2,0.9,0.2,1.8,0.9,2.5C8.3,20,8.1,20.7,8,21.5C8,21.5,8,21.5,8,21.6
		c-0.1,0.2-0.2,0.2-0.2,0.4c-0.9,1.8-1.8,4.6-1,7.5l0,0c0.5,1.5,1.7,2.9,3.3,4.1c1.4,1,3.1,1.8,4.7,2.3c1.6,0.5,3.3,0.7,4.9,0.7
		c1.1,0,2.3-0.1,3.4-0.3c1.6-0.2,3-0.5,4.2-1.1c1.6-0.5,2.8-1.5,3.7-3.1c0.5,0,1-0.1,1.4-0.2c0.9-0.3,2.1-1,2.9-2.7
		c0.9,0.1,1.5,0.1,2.1,0C38.6,28.9,39.7,28.2,39.5,26.9z"/>
	<path class="st1" d="M30,11.1c0.2,0.3,0.3,0.7,0.4,1.2c0.4,1.5,0.6,4.1-0.3,7.9c1,0.6,1.8,1.1,2.5,1.7c0.2,0.1,0.6,0.2,0.7,0.3
		c0.2,0.2,0.6,0.2,0.8,0.4c0.3-1.2,0.7-3.5,0.6-4.5C34.2,15,32.1,12.7,30,11.1L30,11.1z"/>
	<path class="st1" d="M20.7,17.1c0.2,0,0.3-0.1,0.6-0.9c0.1-0.5,0-1-0.1-1.1c-0.4-0.4-1.6-0.8-3.3-1c-1.6-0.2-2.9-0.2-3.4-0.1
		c-0.2,0.6-0.5,1.6-0.7,2c0.2,0,0.3,0,0.6,0c0.6,0,1.4,0.1,2.5,0.2c1.4,0.2,2.2,0.5,2.9,0.6C20.1,16.9,20.4,17.1,20.7,17.1
		L20.7,17.1z M14.9,15.1c-0.2,0-0.2-0.2-0.2-0.2c0-0.2,0.2-0.2,0.2-0.2c0.2,0,0.2,0.2,0.2,0.2C15.1,15,15,15.1,14.9,15.1z
		 M16.5,15.2c-0.2,0-0.2-0.2-0.2-0.2c0-0.2,0.2-0.2,0.2-0.2c0.2,0,0.2,0.1,0.2,0.2S16.5,15.2,16.5,15.2z M18,15.4
		c-0.2,0-0.2-0.2-0.2-0.2c0-0.2,0.2-0.2,0.2-0.2c0.2,0,0.2,0.1,0.2,0.2C18.2,15.3,18.1,15.4,18,15.4z M19.2,15.6
		c0-0.2,0.2-0.2,0.2-0.2c0.2,0,0.2,0.2,0.2,0.2c0,0.2-0.1,0.2-0.2,0.2C19.4,15.8,19.2,15.7,19.2,15.6z"/>
	<path class="st1" d="M38.6,24.8L38.6,24.8c-0.9-0.7-1.7-1.4-2.9-2c0.3-1.3,0.8-3.7,0.5-4.9c-0.9-4.5-4.2-7.3-6.9-9
		c0-0.5-0.2-1.3-1.4-1.7c-0.8-0.3-1.4-0.1-1.7,0.2c-2.4-1-4.5-1.4-5.6-1.4c-2.9-0.1-7.5,1.1-9,2.3c-1.4,1.1-2.6,4.7-3,5.9
		c-0.5,0.6-1.3,1.7-1.4,2.5c-0.2,1,0.2,1.9,1,2.5c-0.2,0.7-0.3,1.5-0.4,2.3c0,0.1-0.1,0.1-0.1,0.2c-0.1,0.2-0.2,0.3-0.2,0.4
		c-1,1.9-2,4.8-1.1,7.7l0,0c0.5,1.5,1.7,3,3.3,4.2c1.4,1,3.1,1.9,4.8,2.4c1.7,0.5,3.3,0.7,5.1,0.7c1.2,0,2.4-0.1,3.5-0.3
		c1.7-0.2,3.2-0.6,4.4-1.1c1.6-0.5,2.9-1.6,3.8-3.2c0.5,0,1-0.1,1.5-0.2c1-0.3,2.1-1,3-2.8c0.9,0.1,1.6,0.1,2.2,0
		c1.1-0.2,2.2-1,2.1-2.3l0,0C39.9,26.1,39.3,25.4,38.6,24.8L38.6,24.8z M25.9,23.3c0,0.2-0.1,0.4-0.2,0.6c-0.1,0.3-0.3,1.1-0.4,1.5
		c-0.1,0.3-0.3,1.2-0.5,1.5c-0.4,0.9-1.4,1.4-2.5,1.3c-0.8-0.1-1.6-0.5-1.7-1.3c0.4,0.3,0.8,0.6,1.3,0.7c1,0.3,1.8-0.1,2.3-0.9
		c-0.2,0.2-0.5,0.2-0.8,0.2c-0.1,0-0.2,0-0.2-0.1c-0.3-0.1-0.6-0.3-0.8-0.6c-0.2-0.3-0.2-0.6-0.2-1l0.5-1.7c0.1-0.3,0.3-0.6,0.6-0.8
		c0.3-0.2,0.6-0.2,1-0.2c0.3,0.1,0.6,0.3,0.9,0.6c0,0,0,0,0,0.1c0.1-0.3,0-0.6-0.1-0.9c-0.5-1.2-2.1-1.6-3.1-0.8
		c-0.3,0.2-0.6,0.6-0.6,1l-0.1,0.2c-0.1,0.3-0.4,1.1-0.5,1.4c0-0.3,0-0.6,0.1-1c0.1-0.3,0.1-0.7,0.2-1c0.6-1.5,2.6-2,3.9-0.9
		C25.7,21.8,26,22.5,25.9,23.3L25.9,23.3z M11.9,24.6c-0.1,0-0.2,0-0.2-0.1c-0.3-0.1-0.6-0.3-0.8-0.6c-0.2-0.3-0.2-0.6-0.1-1
		l0.5-1.7c0.1-0.3,0.3-0.6,0.6-0.8c0.3-0.2,0.6-0.2,1-0.2c0.3,0.1,0.6,0.3,0.8,0.6c0,0,0,0,0,0.1c0.1-0.3,0-0.6-0.1-0.9
		c-0.4-1.2-1.9-1.6-2.9-0.8c-0.3,0.2-0.5,0.6-0.6,1L10,20.6c-0.1,0.3-0.4,1.1-0.5,1.4c0-0.3,0-0.6,0.1-1c0.1-0.3,0.1-0.6,0.2-1
		c0.6-1.5,2.5-2,3.7-0.9c0.6,0.5,0.9,1.3,0.7,2c0,0.2-0.1,0.4-0.1,0.6c-0.2,0.3-0.3,1.1-0.4,1.4c-0.1,0.3-0.3,1.1-0.5,1.5
		c-0.4,0.9-1.4,1.4-2.3,1.3c-0.7-0.1-1.5-0.5-1.6-1.3c0.4,0.3,0.8,0.6,1.3,0.7c0.9,0.2,1.7-0.1,2.1-0.9
		C12.5,24.6,12.2,24.6,11.9,24.6L11.9,24.6z M16.8,28.5L14.4,28l-1.5-0.6l2.6-2.5l-0.9,2.8L16.8,28.5z M15.7,24.9
		c0.6,1,1.1,2.4,1.2,3.4l0,0L15.7,24.9L15.7,24.9z M12,28.1l0.9,0.2c-0.2,1,0.6,2,2,2.3c0.9,0.2,1.9,0,2.5-0.4
		c0.2-0.2,0.6-0.5,0.6-0.9l0.9,0.2c-0.1,0.6-0.5,1-1,1.4c-0.6,0.4-1.4,0.6-2.2,0.6c-0.3,0-0.6,0-1-0.1C12.8,30.9,11.8,29.6,12,28.1
		L12,28.1z M16.6,16.8c-1-0.2-1.8-0.2-2.5-0.2c-0.8,0-1-0.1-1.2-0.3c-0.1-0.1-0.1-0.2,0-0.3c0.1-0.2,0.6-1.4,0.8-2.1
		c0.1-0.2,0.2-0.3,0.3-0.4c-0.2-0.2-0.6-0.4-1.5-0.6c0,0,0.8-0.6,1.7-0.5C14.2,12,13,9.5,12.4,9.5c0,0,2.9-0.9,4.2,1.4
		c0.1-0.9,0.5-1.6,0.5-1.6c-0.1,0.8,1,2,1.4,2.5c1.6,0.4,2.4,1.4,2.7,2.6c0.1,0.1,0.2,0.2,0.2,0.2c0.4,0.4,0.4,1.1,0.3,1.7
		c-0.1,0.3-0.3,1.3-1.1,1.4h-0.1c-0.3,0-0.6-0.1-1.1-0.2C18.8,17.2,17.9,16.9,16.6,16.8L16.6,16.8z M37.8,28.9
		c-0.8,0.2-1.5,0.1-2.3,0c-0.1,0-0.1,0-0.2,0c-0.8,1.9-2,2.6-2.9,2.9c-0.5,0.2-0.9,0.2-1.2,0.2c-0.2,0-0.3,0-0.4,0
		c-0.9,1.6-2.1,2.9-4,3.3c2.2-1.6,3.3-3.4,4.2-6c0.2-0.8,0.5-1.6,0.7-2.5c0.1,0.5,0.1,0.9,0.1,1.4c0,1-0.2,2.1-0.6,3.1
		c0.9,0,2.7-0.3,3.7-3.2c0.4-1.3,0.4-2.4-0.1-3.3c-0.2-0.5-0.6-1-1-1.2c-0.2-0.2-0.5-0.2-0.7-0.4c-0.2-0.1-0.4-0.2-0.6-0.2
		c-0.3,2.4-1.4,4.5-1.7,4.5c-0.2,0,0.2-2.7,0.2-2.7c-1.4-1.5-1.4-3.1-1.4-3.8c-2.2-1.3-4.6-2.2-7.1-3c2.4,0.2,5.2,1.1,7.4,2.3
		c0.9-3.7,0.6-6.1,0.2-7.6c-0.2-0.8-0.5-1.4-0.6-1.7c-0.5-0.3-1-0.6-1.4-0.9c-3.1-1.7-6.3-2.4-7.6-2.5c-2.6-0.2-6.8,0.8-8,1.8
		c-1,0.8-2.2,4.1-2.6,5.4v0.1v0.1c-0.5,0.6-1.2,1.7-1.2,2c0,0.1,0,0.2,0,0.3c0.4-0.4,1.5-1.1,3.7-1.1c0,0-1,0.2-2.1,0.9
		c-0.6,1.9-1.2,3.8-1.6,5.7c-0.1,0.5-0.3,1.5-0.4,2c-0.1-0.3-0.1-0.7-0.1-1.1c-0.6,1.5-1,3.2-0.7,4.8c0.1,0.2,0.1,0.6,0.2,0.9
		c0.2,0.8,0.7,1.5,1.4,2.1c2.4,2.6,5.9,4.1,9.4,4.4c1.6,0.2,3.3,0.1,4.9-0.1c0.7-0.1,1.5-0.2,2.2-0.3c-0.6,0.2-1.1,0.4-1.7,0.6
		c-2.9,0.8-6.1,0.7-9.1-0.2c-3-0.9-6.8-3.1-7.8-6.3c-0.7-2.5-0.1-5.1,1.1-7.3c0.1-0.2,0.2-0.5,0.3-0.6c0.1-0.9,0.2-1.7,0.5-2.6
		c-0.7-0.5-1.2-1.4-1-2.1c0-0.7,1-2.1,1.3-2.4c0.2-0.7,1.6-4.6,2.9-5.7s5.7-2.2,8.5-2.1c1,0,3.3,0.5,5.7,1.5
		c0.2-0.2,0.7-0.5,1.5-0.2c1.1,0.4,1.1,1.1,1,1.4c2.7,1.6,6,4.3,6.9,8.7c0.2,1.4-0.4,4.3-0.6,5.1c1.1,0.6,2.2,1.3,3.2,2.1
		c0.6,0.5,1.1,1.1,1.2,1.9C39.4,28.1,38.6,28.7,37.8,28.9L37.8,28.9z M32.9,26.3l-0.1-0.2C32.8,26.2,32.9,26.2,32.9,26.3
		c0.2-0.3,0.2-0.5,0.4-0.6c0.2-0.1,0.4-0.2,0.6-0.1c0.9,0.3,0.5,1.4,0.5,1.4s-0.1-0.8-0.4-0.9c0,0.3-0.1,0.7-0.2,1.2
		c-0.1,0.6-0.5,1.4-1,1.5c0.1,0.1,0.2,0.1,0.3,0.1c0.2,0.1,0.4-0.1,0.5-0.2c-0.1,0.1-0.3,0.5-0.9,0.4c-0.3-0.1-0.4-0.3-0.4-0.5
		c0-0.2,0.1-0.5,0.1-0.5c-0.1,0-0.2,0-0.2,0l0.2-0.1c0,0,0.6-0.2,0.7-0.7C33.3,26.8,32.9,26.3,32.9,26.3L32.9,26.3z M26.5,17.2
		c-0.2,0.3-0.4,0.5-0.6,0.9c0.5-0.3,0.8-0.5,1.4-0.8c-0.2-0.1-0.4-0.1-0.6-0.2c0.2-0.2,0.2-0.3,0.4-0.6c0.6,0.2,1,0.3,1.5,0.5l0,0
		c-0.2,0.7-0.3,1-0.5,1.7c-0.2-0.1-0.3-0.2-0.6-0.2c0.2-0.5,0.2-0.7,0.4-1.2c-0.1,0-0.2-0.1-0.2-0.1c-0.2,0.5-0.2,0.7-0.4,1.2
		c-0.8-0.2-1.1-0.3-1.7-0.6c0.2-0.7,0.2-1.1,0.4-1.8c0.2,0.1,0.3,0.1,0.6,0.2c-0.2,0.3-0.3,0.4-0.5,0.7
		C26.1,17.1,26.2,17.1,26.5,17.2L26.5,17.2z M29.4,18.1c0,0.2-0.1,0.2-0.1,0.4c-0.1-0.2-0.2-0.2-0.3-0.3c0,0.1,0,0.2-0.1,0.2
		c0.3,0.1,0.5,0.2,0.9,0.3c-0.1,0.2-0.1,0.3-0.2,0.6c-0.6-0.2-0.9-0.3-1.4-0.5c0.2-0.7,0.3-1.1,0.5-1.8c0.5,0.2,0.7,0.3,1.3,0.6
		c0,0.2-0.1,0.3-0.1,0.6c-0.3-0.2-0.5-0.2-0.8-0.3c0,0.2-0.1,0.2-0.1,0.3C29.3,18,29.4,18.1,29.4,18.1L29.4,18.1z M25.4,16.6
		c-0.3-0.1-0.5-0.2-0.9-0.2c0,0.2,0,0.2-0.1,0.3c0.2-0.1,0.4,0,0.4,0c0,0.2-0.1,0.2-0.1,0.4c-0.1-0.2-0.2-0.2-0.3-0.3
		c-0.1,0.3-0.1,0.5-0.2,0.8c-0.2-0.1-0.4-0.1-0.6-0.1c0.2-0.8,0.2-1.1,0.4-1.9c0.6,0.1,0.9,0.2,1.4,0.4
		C25.4,16.2,25.4,16.4,25.4,16.6L25.4,16.6z"/>
</g>
</svg>
