<?xml version="1.0" encoding="utf-8"?>
<!-- Generator: Adobe Illustrator 26.5.3, SVG Export Plug-In . SVG Version: 6.00 Build 0)  -->
<svg version="1.1" xmlns="http://www.w3.org/2000/svg" xmlns:xlink="http://www.w3.org/1999/xlink" x="0px" y="0px"
	 viewBox="0 0 366.6 366.6" style="enable-background:new 0 0 366.6 366.6;" xml:space="preserve">
<style type="text/css">
	.st0{fill:#262626;}
	.st1{fill:#151515;}
</style>
<g id="Capa_3">
	<g id="Capa_2_00000128451887563053178820000002806872535805848494_">
	</g>
	<g id="Capa_2_00000041253878254858373410000010099597066958233528_">
	</g>
	<path class="st0" d="M337.3,187.7c0.9-6,2.7-21.4-0.4-41c-3.4-21.9-13.6-53.3-43.3-78.9c-4.7-9.3-19.2-31.3-56.4-41.9
		c-39.5-11.3-67.3-4-75.3-1.3c-30.5,1.8-57.2,12.4-77.1,30.7c-16.5,15.2-28.3,36-33.2,58.7c-15.5,11.3-22.3,22.2-19.9,31.7
		c2.2,8.4,10.8,12,19.2,14.4l-0.8,3.7c-2,7.7-3.5,16.1-4.7,25.7c-0.2,0.4-0.4,0.8-0.6,1.2c-0.7,1.4-1.4,2.8-2.1,4.2
		c-10.1,19.1-20.3,48.1-11.4,77.7l0.1,0.2c11,32.9,49.2,57.2,82.2,66.7c16.7,4.9,33.8,7.3,50.8,7.3c14.8,0,29.3-1.9,43.3-5.6
		c4.8-1.2,9.7-2.7,14.4-4.5l15.8-3.7c9.8-2.3,18.7-6.8,26.7-13.6l2.6-2.3c4.9-4.6,9.3-10.1,13-16.3c4.7,0,9.4-0.8,13.9-2.2
		c9.9-3.1,23.7-11.2,32.9-32.6c0.3-0.7,7.6-17.6,6.2-36.1C340.8,215.3,338.3,194.3,337.3,187.7z M328.4,188
		c0.5,2.6,4.3,26.2-4.3,39.6l-0.3,0.5l0.1,0.5c2.1,17.1-5.2,33.9-5.3,34.1c-7.8,18.3-19.2,25.2-27.3,27.7c-3.7,1.2-7.6,1.8-11.4,1.8
		c-1.1,0-2.2-0.1-3.1-0.2l-1.8-0.1l-0.5,0.9c-7.2,13.8-17.8,23.9-30.4,29.2c1.6-1.3,3.1-2.6,4.5-3.9l-1.8-2.4
		c-8.1,5-17.2,9-27.2,12.1l0.1,0.6c-4.7,1.8-9.5,3.3-14.4,4.5c-28.6,7.6-59.5,7-89.4-1.7c-30.7-8.8-66.2-31.1-76.2-61
		c-8-26.7,1.4-53.4,10.8-71.1c0.6-1.3,1.3-2.6,2-4c0.4-0.8,0.9-1.7,1.3-2.5l0.1-0.2l0-0.3c1.2-9.8,2.7-18.3,4.7-26l2.8-12.4
		l-1.5-0.3c-12.6-2.7-18.7-5.7-19.7-9.7c-1.5-5.8,5.6-14.7,18.8-23.9l0.5-0.3l0.1-0.6C64,96.7,75,76.5,90.9,61.9
		c18.6-17.1,43.7-27,72.6-28.5l0.2,0l0.2-0.1c3-1.1,14.2-4.6,31.4-4.6c10.9,0,24.2,1.4,39.5,5.8c37.1,10.6,49.4,34,51.5,38.6
		l0.1,0.3l0.3,0.2c28.5,24,38.3,53.8,41.5,74.5c3.2,20.5,0.7,36.4,0.2,39.4l0,0.3L328.4,188z"/>
</g>
<g id="shadow">
	<g>
		<path class="st0" d="M215.2,186.6c26.8,4.4,54.7,17.9,54.7,17.9s5.3-5,5.3-6.4s-5.8-7.9-5.8-7.9s-58.6-12.8-76.2-17.5
			c-17.5-4.6-43-7.5-43-7.5l-33.4-7.3l-5.7,2.2c27,6.3,33.1,10.2,41.8,12.3C161.4,174.7,188.3,182.2,215.2,186.6z"/>
		<path class="st0" d="M322.9,224.7l2,2.6c0,0,8.5-13.2,2.2-36.7c0,0,6.1-27-2.2-58.8s-39.4-57.2-39.4-57.2s-5.6-17.4-22.8-29.2
			S219.1,28.8,202,31.9c0,0,38.6,6.3,55.1,24.6c-63.9-7.3-79,51-79.5,59.8c12.7,3.3,18.6-55,86.5-41.8
			c11.4,6.6,56.3,38.1,49.1,111.8c2.9,11.6,0.3,22.1-0.3,24.5c-3.6-3.1-9.7-8.3-10.6-8.5c-1.3-0.3-15.5-4.3-15.5-4.3l4.8,17.2
			l-4.5-1.6L276.1,243c-0.2,0.5,0,1.1-0.3,1.7c-8.8,26-25.8,72.9-94.9,84.5c-70.5,11.9-108.6-17.9-108.6-17.9s28.4,23.4,68.5,26.8
			c40.1,3.5,97.7,1.3,131.2-38.4c0,0,2.6-4.9,5.5-11.7l3,3.6c0,0,26.5,3.1,34.9-19.4s10.9-30.5,8.9-42.2
			C324,228.1,323.5,226.3,322.9,224.7z M306.1,254.6l-6.9,10.9l-1.3,1.7c0,0-6.9-1.9-12.2,2c-0.9,0.6-1.7,1.5-2.4,2.5
			c1-3.6,1.7-7.1,2.1-10.6c1.4-13.3,13.1-27.4,12.3-40.2c3.7,2.8,9,7.6,11.4,11.9C313.5,241,306.1,254.6,306.1,254.6z"/>
	</g>
</g>
<g id="lines">
	<g id="Capa_2_00000156586631300384316230000010155829623161700998_">
	</g>
	<g>
		<path class="st1" d="M114.1,290.8c3.1,0.6,6.4,1,9.7,1c8.4,0,16.6-2.3,22.9-6.3c5.5-3.7,9.1-8.7,10.2-14l-8.3-1.7
			c-0.8,4-4.1,6.8-6.5,8.4c-6.9,4.5-17,6.2-26.1,4.2c-13.8-3-22-12.5-19.9-23l-8.3-1.7C84.9,272.6,96,286.4,114.1,290.8z"/>
		<path class="st1" d="M219.8,188.3c-12.9-10.9-33.7-6.5-39.4,9c-1.1,3.3-1.7,6.7-2.3,10.2c-0.3,3.5-0.8,6.8-0.7,10.3
			c1.1-3.1,4.2-11.4,5.3-14.3l0.8-2.3c1.4-3.7,3.6-7.1,6.7-9.5c10.2-8.4,26.7-4,31.1,8.1c1,3,1.4,6.1,0.8,9.1
			c-0.1-0.1-0.1-0.3-0.3-0.4c-1.7-3-4.7-5.3-8.3-6.2c-3.5-1-7.1-0.4-10.3,1.3c-3.3,1.7-5.5,4.4-6.4,7.8l-4.8,17.3
			c-1,3.3-0.4,6.8,1.4,9.8c1.7,3,4.7,5.3,8.2,6.1c0.7,0.3,1.5,0.3,2.3,0.4c3,0.3,5.8-0.3,8.2-1.7c-4.4,7.5-13.8,11.4-23,8.5
			c-4.8-1.7-8.8-4.4-12.9-7.4c1.1,7.6,9.6,12.2,17.3,12.9c9.9,1.1,20.2-4.3,24.6-12.9c1.7-3.4,3.6-11.5,4.7-15.1
			c1-3.3,3.4-11.7,4.1-14.9c0.4-1.5,1.1-3.6,1.3-5.3C228.9,201.5,225.6,193.5,219.8,188.3z"/>
		<path class="st1" d="M73.3,229.3c-4.5-1.5-8.3-4.2-12.2-7.1c1,7.6,9,12.1,16.2,12.6c9.4,1,18.9-4.3,23-12.9
			c1.7-3.3,3.4-11.2,4.5-14.9c0.7-3.1,3-11.4,3.8-14.3c0.3-1.5,1-3.6,1.1-5.3c1-7.5-2-15.3-7.6-20.3c-11.9-10.8-31.4-6.2-36.8,9
			c-1.1,3.3-1.7,6.5-2.3,10.1c-0.3,3.4-0.7,6.7-0.7,10.1c1.1-3,3.8-11.2,5-14.2l0.8-2.3c1.3-3.6,3.5-6.9,6.3-9.4
			c9.6-8.2,24.9-4,29,7.9c1,2.8,1.3,5.8,0.8,8.9c-0.1-0.3-0.3-0.3-0.3-0.6c-1.7-3-4.4-5-7.7-6c-3.3-1-6.8-0.4-9.7,1.3
			c-3,1.7-5.1,4.4-6,7.7l-4.5,17c-1,3.3-0.4,6.8,1.1,9.7c1.7,3,4.4,5.1,7.8,6c0.7,0.3,1.4,0.3,2.1,0.4c2.8,0.3,5.4-0.4,7.6-2.1
			C90.7,228.1,81.8,232,73.3,229.3z"/>
		<polygon class="st1" points="97.5,250.8 112.5,256.5 136,261.1 114.9,253.3 124.1,224.9 		"/>
		<path class="st1" d="M124.5,225.4l11.8,34.8C135.7,249.2,130.3,234.6,124.5,225.4z"/>
		<path class="st1" d="M295.3,257.7l-2.3,1c0,0,1,0.3,2,0.3c0,0-1,2.4-1,5c0,2.3,0.8,4.4,3.8,5.1c5.6,1.3,8.3-2.7,8.9-3.7
			c-0.7,0.4-2.8,2.1-5,1.5c-1.3-0.4-2.3-0.6-3-1.1c5-1,8.4-9,9.5-15.6c0.8-4.8,2.1-8.9,2-12.1c3.6,0.7,4.2,8.5,4.2,8.5
			s3.5-10.2-5-13.3c-3-1.1-5-0.6-6.7,0.4c-1.5,1-2.8,2.8-3.5,5.3c-0.8-0.3-1.5-0.4-1.5-0.4l1.1,1.4c0,0,4.3,4.8,3.4,10.5
			C301.2,255.7,295.3,257.7,295.3,257.7z"/>
		<path class="st1" d="M264.1,138c-5.3-2.3-8.5-3.4-14.6-5.8c-1.9,2.1-2.8,3-4.6,5.1c2.5,1,3.9,1.5,6.5,2.5
			c-6.1,2.8-9.1,4.1-14.2,7.2c2.5-3.3,3.7-4.9,6.5-8.1c-2.5-1-3.7-1.5-6.2-2.6c2.1-2.8,3.2-4.1,5.6-6.9c-2.2-0.9-3.3-1.4-5.5-2.3
			c-2.5,7.3-3.6,10.8-5.6,18.1c6.7,2.6,10,3.8,17.4,6.8c1.9-4.9,2.9-7.1,4.8-11.8c1,0.4,1.6,0.6,2.6,1c-1.7,4.7-2.8,6.9-4.7,11.8
			c2.3,0.9,3.4,1.5,5.6,2.4C260.4,148.3,261.7,145.3,264.1,138L264.1,138z"/>
		<path class="st1" d="M260,156.7c5.5,2.5,8,4,13.7,6.3c0.9-2.3,1.3-3.4,2-5.7c-3.3-1.3-4.9-2.2-8.1-3.6c0.3-0.8,0.4-1.2,0.8-2.2
			c0.9,0.5,2,1.6,2.9,3.4c0.4-1.5,0.6-2.3,1.1-3.8c0,0-1.5-1-3.8-1.1c0.3-1.3,0.6-1.8,1-3.1c3,1.4,4.6,2.1,7.8,3.6
			c0.6-2.1,0.9-3.1,1.3-5.3c-5.2-2.8-7.6-4-12.5-6.3C264,146.1,262.8,149.5,260,156.7z"/>
		<path class="st1" d="M233.2,132.1c0.6-2.3,1-3.5,1.8-5.7c-5.6-2.3-8.7-3.4-14.4-5c-2.6,7.6-3.2,11.4-5.5,18.9c2.8,0.7,4,1,6.4,1.7
			c0.9-3.3,1.2-5,2-8.2c0.9,0.4,2.1,1.3,3.1,3c0.3-1.5,0.5-2.3,1-3.9c0,0-1.7-1-3.9-0.5c0.3-1.4,0.5-1.9,0.9-3.3
			C228.1,130.3,229.9,130.8,233.2,132.1z"/>
		<path class="st1" d="M332.8,187.8c0.7-3.9,3-20-0.2-40.7c-3.3-21.5-13.4-52.1-42.8-77c-2.6-5.7-15.6-29.4-53.5-40.2
			c-40.7-11.6-68.2-3-73.2-1.1c-29.9,1.6-55.8,11.7-75.1,29.5c-16.5,15.2-27.9,36.1-32.2,58.8c-7.9,5.5-22.2,16.9-19.8,26
			c1.3,5,8,8.2,21.3,11l-2.5,11.1c-2.3,8.8-3.7,17.8-4.8,26.7c-1.1,2.3-2.3,4.4-3.4,6.7c-11.8,22.3-18.6,48.8-11.1,73.7
			c10.6,31.7,48.3,54.5,78.8,63.2c29.8,8.7,61.9,9.7,92,1.7c6-1.5,11.8-3.4,17.4-5.6c-7.6,1.1-15.1,2.4-22.6,3.3
			c-16.5,1.9-33.2,2.6-49.7,1c-35.2-3.5-70.8-17.6-95-44.2c-5.6-6.4-10.6-13.6-13.2-21.7c-0.8-2.8-1.4-5.6-1.9-8.3
			c-2.7-16.7,1-33.5,7.4-49.1c0,3.8,0.3,7.5,0.7,11.1c1-5,3.1-14.9,4.2-20c3.4-16.2,7.6-32.1,12.6-47.9c9,1.6,20.2,3,34,4.7
			c4.1,0.5,8.1,1,11.9,1.5c25.8,3.3,105.2,20.6,152.5,33.2c1,7.8,4.3,17.9,13.2,27.2c0,0-3.5,27.1-1.3,27.3
			c4.3,0.3,14.6-20.8,17.9-44.7c1.8,0.8,4,1.9,5.4,2.6c6.4,4,13.6,10,18.7,18.5c3.6,8.8,3.6,19.1-0.3,30.7
			c-9.7,29-28.1,32.2-37.2,31.9c4.1-9.9,6.3-20.8,6.7-31.4c0.1-4.4,0.1-8.8-0.4-13.2c-2.6,8.4-4.8,16.7-7.5,24.8
			c-8.3,25.7-20,44.6-42.4,60.2c18.6-4.3,32.1-17.3,40.5-33.3c1.1,0.1,2.6,0.3,4.2,0.3c3.4,0,7.5-0.4,12.1-1.9
			c9-2.8,20.8-10.2,28.8-29.1c0,0,7.6-17.5,5.5-35.5C336.9,215.8,333.7,192.8,332.8,187.8z M323.5,188.7c1,5.1,2.3,17.8,0,27.8
			c-10.5-14.2-25.6-21.6-33.3-23.7c-39.4-12.5-145.2-36-176.9-40c-3.8-0.5-7.9-1-12-1.5c-19.2-2.3-51.2-6.3-56.3-10.7
			c0.7-3,8.9-10.9,17.5-16.7c1-0.7,1.8-1.8,2-3.1c6.5-38,36.1-79.6,99.6-82.5c0.5,0,1-0.2,1.6-0.3c0.3-0.1,27.1-10.5,67.9,1.2
			c37.7,10.8,47.5,34.7,47.9,35.8c0.3,0.8,0.8,1.4,1.4,1.9c22.2,18.4,35.8,42.5,40.3,71.6c3.4,21.8,0.2,38.5,0.1,38.7
			C323.4,187.5,323.4,188.1,323.5,188.7z"/>
		<path class="st1" d="M95.8,114.4c3.5-7.1,6.9-14,10.7-20.6c9.3-16.5,21.5-31.6,37.3-42.1c3.1-2.3,6.5-4.2,9.8-6.2
			c0.2-0.1,0.3-0.3,0.3-0.5c-0.1-0.3-0.3-0.4-0.6-0.3c-3.8,0.9-7.7,2.1-11.3,3.8c-24.5,11-44.4,39.2-46.6,65.9
			C95.4,114.6,95.7,114.7,95.8,114.4z"/>
		<path class="st1" d="M177.2,125.8c4.6-9,8.4-18.2,13.7-26.7C208.4,71.1,235.4,63,267.1,67c0.3,0,0.3-0.3,0.1-0.4
			c-9.6-3.6-20.1-5.2-30.6-4.4c-27.9,2.1-48.9,22.2-57.4,48c-1.6,5-2.6,10.1-3,15.3C176.3,126.1,177,126.2,177.2,125.8z"/>
		<path class="st1" d="M252.2,167.8C144,114.2,95.6,115.6,72.9,121.5c-0.7,0.2-0.5,1.3,0.2,1.2c59.3-3.1,112.2,23.6,178.2,47.1
			C252.6,170.3,253.4,168.4,252.2,167.8z"/>
	</g>
	<g>
		<path class="st1" d="M114.1,290.8c3.1,0.6,6.4,1,9.7,1c8.4,0,16.6-2.3,22.9-6.3c5.5-3.7,9.1-8.7,10.2-14l-8.3-1.7
			c-0.8,4-4.1,6.8-6.5,8.4c-6.9,4.5-17,6.2-26.1,4.2c-13.8-3-22-12.5-19.9-23l-8.3-1.7C84.9,272.6,96,286.4,114.1,290.8z"/>
		<path class="st1" d="M219.8,188.3c-12.9-10.9-33.7-6.5-39.4,9c-1.1,3.3-1.7,6.7-2.3,10.2c-0.3,3.5-0.8,6.8-0.7,10.3
			c1.1-3.1,4.2-11.4,5.3-14.3l0.8-2.3c1.4-3.7,3.6-7.1,6.7-9.5c10.2-8.4,26.7-4,31.1,8.1c1,3,1.4,6.1,0.8,9.1
			c-0.1-0.1-0.1-0.3-0.3-0.4c-1.7-3-4.7-5.3-8.3-6.2c-3.5-1-7.1-0.4-10.3,1.3c-3.3,1.7-5.5,4.4-6.4,7.8l-4.8,17.3
			c-1,3.3-0.4,6.8,1.4,9.8c1.7,3,4.7,5.3,8.2,6.1c0.7,0.3,1.5,0.3,2.3,0.4c3,0.3,5.8-0.3,8.2-1.7c-4.4,7.5-13.8,11.4-23,8.5
			c-4.8-1.7-8.8-4.4-12.9-7.4c1.1,7.6,9.6,12.2,17.3,12.9c9.9,1.1,20.2-4.3,24.6-12.9c1.7-3.4,3.6-11.5,4.7-15.1
			c1-3.3,3.4-11.7,4.1-14.9c0.4-1.5,1.1-3.6,1.3-5.3C228.9,201.5,225.6,193.5,219.8,188.3z"/>
		<path class="st1" d="M73.3,229.3c-4.5-1.5-8.3-4.2-12.2-7.1c1,7.6,9,12.1,16.2,12.6c9.4,1,18.9-4.3,23-12.9
			c1.7-3.3,3.4-11.2,4.5-14.9c0.7-3.1,3-11.4,3.8-14.3c0.3-1.5,1-3.6,1.1-5.3c1-7.5-2-15.3-7.6-20.3c-11.9-10.8-31.4-6.2-36.8,9
			c-1.1,3.3-1.7,6.5-2.3,10.1c-0.3,3.4-0.7,6.7-0.7,10.1c1.1-3,3.8-11.2,5-14.2l0.8-2.3c1.3-3.6,3.5-6.9,6.3-9.4
			c9.6-8.2,24.9-4,29,7.9c1,2.8,1.3,5.8,0.8,8.9c-0.1-0.3-0.3-0.3-0.3-0.6c-1.7-3-4.4-5-7.7-6c-3.3-1-6.8-0.4-9.7,1.3
			c-3,1.7-5.1,4.4-6,7.7l-4.5,17c-1,3.3-0.4,6.8,1.1,9.7c1.7,3,4.4,5.1,7.8,6c0.7,0.3,1.4,0.3,2.1,0.4c2.8,0.3,5.4-0.4,7.6-2.1
			C90.7,228.1,81.8,232,73.3,229.3z"/>
		<polygon class="st1" points="97.5,250.8 112.5,256.5 136,261.1 114.9,253.3 124.1,224.9 		"/>
		<path class="st1" d="M124.5,225.4l11.8,34.8C135.7,249.2,130.3,234.6,124.5,225.4z"/>
		<path class="st1" d="M295.3,257.7l-2.3,1c0,0,1,0.3,2,0.3c0,0-1,2.4-1,5c0,2.3,0.8,4.4,3.8,5.1c5.6,1.3,8.3-2.7,8.9-3.7
			c-0.7,0.4-2.8,2.1-5,1.5c-1.3-0.4-2.3-0.6-3-1.1c5-1,8.4-9,9.5-15.6c0.8-4.8,2.1-8.9,2-12.1c3.6,0.7,4.2,8.5,4.2,8.5
			s3.5-10.2-5-13.3c-3-1.1-5-0.6-6.7,0.4c-1.5,1-2.8,2.8-3.5,5.3c-0.8-0.3-1.5-0.4-1.5-0.4l1.1,1.4c0,0,4.3,4.8,3.4,10.5
			C301.2,255.7,295.3,257.7,295.3,257.7z"/>
	</g>
	<g>
		<path class="st1" d="M114.1,290.8c3.1,0.6,6.4,1,9.7,1c8.4,0,16.6-2.3,22.9-6.3c5.5-3.7,9.1-8.7,10.2-14l-8.3-1.7
			c-0.8,4-4.1,6.8-6.5,8.4c-6.9,4.5-17,6.2-26.1,4.2c-13.8-3-22-12.5-19.9-23l-8.3-1.7C84.9,272.6,96,286.4,114.1,290.8z"/>
		<path class="st1" d="M219.8,188.3c-12.9-10.9-33.7-6.5-39.4,9c-1.1,3.3-1.7,6.7-2.3,10.2c-0.3,3.5-0.8,6.8-0.7,10.3
			c1.1-3.1,4.2-11.4,5.3-14.3l0.8-2.3c1.4-3.7,3.6-7.1,6.7-9.5c10.2-8.4,26.7-4,31.1,8.1c1,3,1.4,6.1,0.8,9.1
			c-0.1-0.1-0.1-0.3-0.3-0.4c-1.7-3-4.7-5.3-8.3-6.2c-3.5-1-7.1-0.4-10.3,1.3c-3.3,1.7-5.5,4.4-6.4,7.8l-4.8,17.3
			c-1,3.3-0.4,6.8,1.4,9.8c1.7,3,4.7,5.3,8.2,6.1c0.7,0.3,1.5,0.3,2.3,0.4c3,0.3,5.8-0.3,8.2-1.7c-4.4,7.5-13.8,11.4-23,8.5
			c-4.8-1.7-8.8-4.4-12.9-7.4c1.1,7.6,9.6,12.2,17.3,12.9c9.9,1.1,20.2-4.3,24.6-12.9c1.7-3.4,3.6-11.5,4.7-15.1
			c1-3.3,3.4-11.7,4.1-14.9c0.4-1.5,1.1-3.6,1.3-5.3C228.9,201.5,225.6,193.5,219.8,188.3z"/>
		<path class="st1" d="M73.3,229.3c-4.5-1.5-8.3-4.2-12.2-7.1c1,7.6,9,12.1,16.2,12.6c9.4,1,18.9-4.3,23-12.9
			c1.7-3.3,3.4-11.2,4.5-14.9c0.7-3.1,3-11.4,3.8-14.3c0.3-1.5,1-3.6,1.1-5.3c1-7.5-2-15.3-7.6-20.3c-11.9-10.8-31.4-6.2-36.8,9
			c-1.1,3.3-1.7,6.5-2.3,10.1c-0.3,3.4-0.7,6.7-0.7,10.1c1.1-3,3.8-11.2,5-14.2l0.8-2.3c1.3-3.6,3.5-6.9,6.3-9.4
			c9.6-8.2,24.9-4,29,7.9c1,2.8,1.3,5.8,0.8,8.9c-0.1-0.3-0.3-0.3-0.3-0.6c-1.7-3-4.4-5-7.7-6c-3.3-1-6.8-0.4-9.7,1.3
			c-3,1.7-5.1,4.4-6,7.7l-4.5,17c-1,3.3-0.4,6.8,1.1,9.7c1.7,3,4.4,5.1,7.8,6c0.7,0.3,1.4,0.3,2.1,0.4c2.8,0.3,5.4-0.4,7.6-2.1
			C90.7,228.1,81.8,232,73.3,229.3z"/>
		<polygon class="st1" points="97.5,250.8 112.5,256.5 136,261.1 114.9,253.3 124.1,224.9 		"/>
		<path class="st1" d="M124.5,225.4l11.8,34.8C135.7,249.2,130.3,234.6,124.5,225.4z"/>
		<path class="st1" d="M295.3,257.7l-2.3,1c0,0,1,0.3,2,0.3c0,0-1,2.4-1,5c0,2.3,0.8,4.4,3.8,5.1c5.6,1.3,8.3-2.7,8.9-3.7
			c-0.7,0.4-2.8,2.1-5,1.5c-1.3-0.4-2.3-0.6-3-1.1c5-1,8.4-9,9.5-15.6c0.8-4.8,2.1-8.9,2-12.1c3.6,0.7,4.2,8.5,4.2,8.5
			s3.5-10.2-5-13.3c-3-1.1-5-0.6-6.7,0.4c-1.5,1-2.8,2.8-3.5,5.3c-0.8-0.3-1.5-0.4-1.5-0.4l1.1,1.4c0,0,4.3,4.8,3.4,10.5
			C301.2,255.7,295.3,257.7,295.3,257.7z"/>
	</g>
</g>
</svg>
