<?xml version="1.0" encoding="UTF-8"?><svg id="a" xmlns="http://www.w3.org/2000/svg" viewBox="0 0 26.49 27.28"><defs><style>.b{fill:none;stroke:#212121;stroke-linecap:round;stroke-linejoin:round;stroke-width:2.5px;}.c{fill:#212121;}</style></defs><path class="c" d="m18.88,24.15c-1.73.96-3.73,1.52-5.85,1.52C6.36,25.66.95,20.26.95,13.59c0-1.89.45-3.67,1.22-5.26C.54,10.67-.29,13.6.09,16.74c.68,5.55,5.27,9.97,10.84,10.49,2.55.24,4.95-.33,6.99-1.46l3.62,1.06c.25.07.5-.13.47-.39l-.16-1.41-2.98-.87Z"/><path class="b" d="m22.92,20.51c1.61-2.05,2.57-4.63,2.57-7.43,0-6.67-5.41-12.08-12.08-12.08S1.34,6.41,1.34,13.08s5.41,12.08,12.08,12.08c2.12,0,4.12-.55,5.85-1.52l4.15,1.21-.5-4.34Z"/><g><path class="c" d="m12.53,17.31c0,.13,0,.24-.02.33s-.03.16-.05.21c-.02.05-.05.09-.08.12-.03.02-.07.04-.11.04h-4.39c-.15,0-.27-.04-.38-.13-.1-.09-.15-.23-.15-.43v-7.62c0-.2.05-.34.15-.43.1-.09.23-.13.38-.13h4.37s.08.01.11.03c.03.02.06.06.08.12.02.06.04.13.05.22s.02.2.02.33c0,.13,0,.23-.02.32s-.03.16-.05.21c-.02.05-.05.09-.08.12-.03.02-.07.04-.11.04h-3.12v2.14h2.64s.08.01.11.04.06.06.08.11c.02.05.04.12.05.21.01.09.02.19.02.32s0,.24-.02.32c-.01.09-.03.15-.05.21s-.05.09-.08.11c-.03.02-.07.03-.11.03h-2.64v2.47h3.15s.08.01.11.04c.03.02.06.06.08.12.02.05.04.12.05.21s.02.2.02.33Z"/><path class="c" d="m19.15,15.39c0,.46-.09.86-.26,1.21-.17.35-.4.64-.7.87-.29.23-.63.41-1.03.52s-.81.18-1.26.18c-.3,0-.58-.02-.84-.07-.26-.05-.49-.11-.69-.18-.2-.07-.36-.14-.5-.22-.13-.08-.23-.14-.29-.2s-.1-.14-.12-.25c-.02-.11-.04-.27-.04-.48,0-.14,0-.26.01-.35,0-.09.02-.17.04-.23.02-.06.05-.1.08-.12s.07-.04.12-.04c.06,0,.15.04.27.11.12.07.26.16.44.25.18.09.4.17.65.25.25.08.54.11.87.11.21,0,.41-.03.58-.08.17-.05.32-.12.44-.22.12-.09.21-.21.28-.35.06-.14.09-.29.09-.47,0-.2-.05-.37-.16-.51-.11-.14-.25-.27-.42-.38-.17-.11-.37-.21-.59-.31-.22-.1-.45-.2-.68-.31-.23-.11-.46-.23-.68-.37-.22-.14-.42-.3-.59-.49-.17-.19-.31-.42-.42-.68-.11-.26-.16-.57-.16-.94,0-.42.08-.79.23-1.1.16-.32.37-.58.63-.79s.57-.37.93-.47c.36-.1.74-.16,1.14-.16.21,0,.41.02.62.05.21.03.4.07.58.13.18.05.34.12.48.18.14.07.23.12.28.17.04.05.08.08.09.12.02.03.03.07.04.12s.02.12.02.2c0,.08,0,.18,0,.29,0,.13,0,.24,0,.33,0,.09-.02.16-.03.22s-.04.1-.07.13c-.03.03-.07.04-.12.04s-.13-.03-.24-.09c-.11-.06-.24-.13-.4-.21-.16-.07-.34-.14-.55-.2-.21-.06-.44-.09-.68-.09-.19,0-.36.02-.51.07s-.27.11-.36.2c-.1.08-.17.18-.22.3s-.07.24-.07.37c0,.19.05.36.16.5.11.14.25.27.43.38s.38.21.61.31c.22.1.46.2.69.31.23.11.46.23.69.37.22.14.43.3.6.49s.32.42.43.68.16.56.16.92Z"/></g></svg>