<?xml version="1.0" encoding="UTF-8"?><svg id="f" xmlns="http://www.w3.org/2000/svg" viewBox="0 0 50 50"><defs><style>.cls-1{fill:#fff;}.cls-2{fill:#cb3837;}</style></defs><path class="cls-2" d="M.09,31.91V15.31H49.91V31.91H24.98v2.78H13.93v-2.78H.09Zm47.06-2.76v-11.05H30.56v11.05h5.56v-8.25h2.73v8.24h2.8v-8.24h2.73v8.25h2.77Zm-19.37-11.06h-11.06v13.83h5.56v-2.76h5.5v-11.07Zm-13.84,0H2.87v11.06h5.56v-8.25h2.72v8.25h2.77v-11.06Z"/><path class="cls-1" d="M47.15,29.15h-2.77v-8.25h-2.73v8.24h-2.8v-8.24h-2.73v8.25h-5.56v-11.05h16.59v11.05Z"/><path class="cls-1" d="M27.77,18.08v11.07h-5.5v2.76h-5.56v-13.83h11.06Zm-2.82,8.26v-5.43h-2.67v5.43h2.67Z"/><path class="cls-1" d="M13.93,18.08v11.06h-2.77v-8.25h-2.72v8.25H2.87v-11.06H13.93Z"/><path class="cls-2" d="M24.95,26.34h-2.67v-5.43h2.67v5.43Z"/></svg>