<?xml version="1.0" encoding="UTF-8"?><svg id="f" xmlns="http://www.w3.org/2000/svg" viewBox="0 0 50 50"><defs><style>.cls-1{fill:#f6009c;}</style></defs><path class="cls-1" d="M42.21,28.46v-6.69c2.87-.42,5.07-2.89,5.07-5.87,0-3.28-2.66-5.93-5.93-5.93-1.85,0-3.5,.85-4.59,2.17l-6.16-3.56c.3-.71,.47-1.49,.47-2.31,0-3.28-2.66-5.93-5.93-5.93s-5.93,2.66-5.93,5.93c0,.85,.18,1.66,.51,2.4l-6.31,3.64c-1.08-1.42-2.8-2.34-4.72-2.34-3.28,0-5.93,2.66-5.93,5.93s2.42,5.69,5.5,5.92v6.6c-3.07,.22-5.5,2.79-5.5,5.92s2.66,5.93,5.93,5.93c1.94,0,3.66-.93,4.74-2.37l6.22,3.59c-.28,.69-.44,1.45-.44,2.24,0,3.28,2.66,5.93,5.93,5.93s5.93-2.66,5.93-5.93c0-.76-.14-1.48-.4-2.15l6.07-3.51c1.09,1.34,2.75,2.2,4.61,2.2,3.28,0,5.93-2.66,5.93-5.93,0-2.98-2.2-5.45-5.07-5.87Zm-32.24,.08v-6.85c2.65-.59,4.63-2.96,4.63-5.79,0-.73-.13-1.42-.37-2.07l6.4-3.69c.22,.25,.45,.48,.7,.69L10.94,28.85c-.31-.13-.64-.23-.97-.31Zm19.83,11.52c-1.09-1.38-2.77-2.27-4.67-2.27s-3.52,.86-4.61,2.2l-6.28-3.62c.12-.32,.21-.66,.27-1l20.97-.13c.07,.46,.2,.91,.37,1.33l-6.05,3.49Zm5.67-6.57l-20.91,.13c-.18-1.56-.97-2.94-2.13-3.88L22.81,11.74c.71,.3,1.49,.47,2.31,.47s1.66-.18,2.4-.51l10.34,17.83c-1.27,.92-2.16,2.34-2.39,3.97Zm5.01-5.04c-.37,.05-.72,.14-1.07,.26L28.99,10.77c.25-.21,.48-.45,.69-.7l6.17,3.56c-.29,.7-.45,1.47-.45,2.27,0,2.98,2.2,5.45,5.06,5.87v6.69Z"/></svg>