<?xml version="1.0" encoding="utf-8"?>
<!-- Generator: Adobe Illustrator 26.5.3, SVG Export Plug-In . SVG Version: 6.00 Build 0)  -->
<svg version="1.1" id="Capa_2_00000083084768941513856740000001876826047197398413_"
	 xmlns="http://www.w3.org/2000/svg" xmlns:xlink="http://www.w3.org/1999/xlink" x="0px" y="0px" viewBox="0 0 50 50"
	 style="enable-background:new 0 0 50 50;" xml:space="preserve">
<style type="text/css">
	.st0{fill:#EEEEEE;}
</style>
<g>
	<g>
		<circle class="st0" cx="25" cy="25" r="11"/>
		<path class="st0" d="M48.4,16.9c-1.1,1.7-2.9,2.7-5.1,2.7h-0.1c0.5,1.7,0.8,3.5,0.8,5.4c0,10.5-8.5,19-19,19S6,35.5,6,25
			S14.5,6,25,6c4,0,7.7,1.3,10.8,3.4c0,0.2,0,0.5,0,0.7c0,3.2,2.6,5.8,5.8,5.8s5.8-2.6,5.8-5.8s-2.6-5.8-5.8-5.8
			c-0.8,0-1.6,0.2-2.3,0.5c-4-2.9-9-4.5-14.3-4.5C11.3,0.2,0.2,11.3,0.2,25s11.1,24.7,24.7,24.7c13.7,0,24.8-11.1,24.8-24.7
			C49.8,22.2,49.3,19.4,48.4,16.9z"/>
	</g>
</g>
</svg>
