<?xml version="1.0" encoding="utf-8"?>
<!-- Generator: Adobe Illustrator 27.2.0, SVG Export Plug-In . SVG Version: 6.00 Build 0)  -->
<svg version="1.1" id="h" xmlns="http://www.w3.org/2000/svg" xmlns:xlink="http://www.w3.org/1999/xlink" x="0px" y="0px"
	 viewBox="0 0 50 50" style="enable-background:new 0 0 50 50;" xml:space="preserve">
<style type="text/css">
	.st0{fill:#EEEEEE;}
</style>
<g>
	<path class="st0" d="M28.7,26.8C27.8,26.2,26.9,26,26,26c-1.6,0-3.2,0-4.8,0c-0.3,0-0.4,0.1-0.4,0.4c0,1,0,2,0,3.1h0c0,1,0,2,0,3.1
		c0,0.3,0.1,0.4,0.4,0.4c1.5,0,2.9,0,4.3,0c0.6,0,1.2-0.1,1.8-0.2c1.2-0.3,2.2-0.9,2.6-2.2c0.1-0.4,0.1-0.9,0.1-1.4
		C29.8,28.1,29.4,27.3,28.7,26.8z"/>
	<path class="st0" d="M21.1,23.3c1,0,2.1,0,3.2,0c0.7,0,1.4-0.1,2-0.2c1.6-0.3,2.9-1.3,2.6-3.4c-0.1-0.9-0.6-1.6-1.4-2.1
		c-0.6-0.3-1.3-0.5-2-0.5c-1.5,0-2.9,0-4.4,0c-0.3,0-0.4,0.1-0.3,0.3c0,0.9,0,1.8,0,2.8l0,0c0,0.9,0,1.9,0,2.8
		C20.7,23.2,20.8,23.3,21.1,23.3z"/>
	<path class="st0" d="M44.5,10.2c0-2.9-2.4-5.3-5.3-5.3H10.8c-3,0-5.3,2.4-5.3,5.3c0,14-5.5,13.5-5.5,13.5v2.7c0,0,5.5-0.8,5.5,13.4
		c0,3,2.4,5.3,5.3,5.3h28.4c3,0,5.3-2.4,5.3-5.3c0-14.2,5.5-13.4,5.5-13.4v-2.7C50,23.7,44.5,24.2,44.5,10.2z M30,34.9
		c-1.1,0.5-2.3,0.7-3.5,0.7c-2.9,0-5.8,0-8.8,0c-0.5,0-0.5,0-0.5-0.5c0-6.8,0-13.6,0-20.4c0-0.5,0-0.5,0.4-0.5c2.8,0,5.6,0,8.3,0
		c1.6,0,3,0.3,4.3,1.2c1.6,1.2,2.3,2.8,2,4.7c-0.3,2.1-1.5,3.4-3.6,4c0,0-0.1,0-0.1,0l0,0c2.1,0.4,3.8,1.3,4.5,3.4
		C34,30.2,33.3,33.5,30,34.9z"/>
</g>
</svg>
