<?xml version="1.0" encoding="utf-8"?>
<!-- Generator: Adobe Illustrator 27.2.0, SVG Export Plug-In . SVG Version: 6.00 Build 0)  -->
<svg version="1.1" id="i" xmlns="http://www.w3.org/2000/svg" xmlns:xlink="http://www.w3.org/1999/xlink" x="0px" y="0px"
	 viewBox="0 0 50 50" style="enable-background:new 0 0 50 50;" xml:space="preserve">
<style type="text/css">
	.st0{fill:#EEEEEE;}
</style>
<g>
	<path class="st0" d="M29.3,26.3c-1.4-3.3-2.8-6.6-4.2-10c-1.4,3.4-2.8,6.7-4.2,10H29.3z"/>
	<path class="st0" d="M25.1,0L1.9,8.5l3.3,30.3L25.1,50l19.5-10.9l3.5-30.7L25.1,0z M37.2,38.2c-0.9,0-1.7,0-2.6,0
		c-0.4,0-0.6-0.1-0.7-0.5c-0.8-2.1-1.7-4.2-2.5-6.3c-0.2-0.4-0.4-0.6-0.8-0.6c-3.7,0-7.4,0-11.1,0c-0.4,0-0.6,0.1-0.7,0.5
		c-0.8,2.1-1.7,4.2-2.5,6.3c-0.2,0.4-0.4,0.5-0.8,0.5c-1.6,0-3.2,0-4.9,0l0,0h0c0,0,0,0,0,0c4.8-10.9,9.7-21.7,14.5-32.6
		c4.9,10.9,9.7,21.7,14.5,32.6C38.7,38.2,38,38.2,37.2,38.2z"/>
</g>
</svg>
