<?xml version="1.0" encoding="utf-8"?>
<!-- Generator: Adobe Illustrator 26.5.3, SVG Export Plug-In . SVG Version: 6.00 Build 0)  -->
<svg version="1.1" id="i" xmlns="http://www.w3.org/2000/svg" xmlns:xlink="http://www.w3.org/1999/xlink" x="0px" y="0px"
	 viewBox="0 0 50 50" style="enable-background:new 0 0 50 50;" xml:space="preserve">
<style type="text/css">
	.st0{fill:#EEEEEE;}
</style>
<g>
	<path class="st0" d="M25,50c-0.7,0-1.3-0.2-1.9-0.5L17,45.9c-0.9-0.5-0.5-0.7-0.2-0.8c1.2-0.4,1.5-0.5,2.8-1.2c0.1-0.1,0.3,0,0.5,0
		l4.7,2.8c0.2,0.1,0.4,0.1,0.6,0l18.3-10.6c0.2-0.1,0.3-0.3,0.3-0.5V14.4c0-0.2-0.1-0.4-0.3-0.5L25.2,3.3c-0.2-0.1-0.4-0.1-0.6,0
		L6.4,13.9c-0.2,0.1-0.3,0.3-0.3,0.5v21.2c0,0.2,0.1,0.4,0.3,0.5l5,2.9c2.7,1.4,4.4-0.2,4.4-1.8v-21c0-0.3,0.2-0.6,0.6-0.6h2.3
		c0.3,0,0.6,0.2,0.6,0.6v20.9c0,3.6-2,5.7-5.4,5.7c-1.1,0-1.9,0-4.2-1.1l-5-2.7c-1.2-0.7-1.9-2-1.9-3.4V14.4c0-1.4,0.7-2.7,1.9-3.4
		L23.1,0.5c1.1-0.6,2.7-0.6,3.9,0l18.3,10.6c1.2,0.7,1.9,2,1.9,3.4v21.2c0,1.4-0.7,2.7-1.9,3.4L26.9,49.6C26.3,49.9,25.6,50,25,50
		L25,50z M30.6,35.4c-8,0-9.7-3.7-9.7-6.8c0-0.3,0.2-0.6,0.6-0.6h2.4c0.3,0,0.5,0.2,0.5,0.5c0.4,2.4,1.4,3.6,6.3,3.6
		c3.9,0,5.5-0.9,5.5-2.9c0-1.2-0.5-2.1-6.5-2.7c-5-0.5-8.1-1.6-8.1-5.6c0-3.7,3.1-5.9,8.4-5.9c5.9,0,8.8,2,9.1,6.4
		c0,0.1,0,0.3-0.1,0.4S38.8,22,38.6,22h-2.4c-0.2,0-0.5-0.2-0.5-0.4c-0.6-2.5-2-3.4-5.7-3.4c-4.2,0-4.7,1.5-4.7,2.6
		c0,1.3,0.6,1.7,6.3,2.5c5.6,0.7,8.3,1.8,8.3,5.7C39.8,33.1,36.5,35.4,30.6,35.4L30.6,35.4z"/>
</g>
</svg>
