<?xml version="1.0" encoding="utf-8"?>
<!-- Generator: Adobe Illustrator 27.2.0, SVG Export Plug-In . SVG Version: 6.00 Build 0)  -->
<svg version="1.1" id="b" xmlns="http://www.w3.org/2000/svg" xmlns:xlink="http://www.w3.org/1999/xlink" x="0px" y="0px"
	 viewBox="0 0 50 50" style="enable-background:new 0 0 50 50;" xml:space="preserve">
<style type="text/css">
	.st0{fill:#EEEEEE;}
</style>
<g>
	<polygon class="st0" points="38.3,25.3 40.3,25.3 40.7,23.3 38.6,23.3 	"/>
	<path class="st0" d="M45.3,11.6L26.4,0.8c-0.9-0.5-2-0.5-2.9,0L4.7,11.6c-0.9,0.5-1.4,1.5-1.4,2.5v21.8c0,1,0.6,2,1.4,2.5
		l18.9,10.9c0.9,0.5,2,0.5,2.9,0l18.9-10.9c0.9-0.5,1.4-1.5,1.4-2.5V14.1C46.7,13.1,46.2,12.2,45.3,11.6z M25.1,39.3
		c-8,0-14.4-6.4-14.4-14.4s6.5-14.4,14.4-14.4c5.4,0,10,2.9,12.5,7.3l-6.3,3.6c-1.2-2.2-3.5-3.6-6.2-3.6c-3.9,0-7.1,3.2-7.1,7.1
		s3.2,7.1,7.1,7.1c2.6,0,4.9-1.4,6.1-3.5h0l6.3,3.7C35,36.4,30.4,39.3,25.1,39.3z M43.1,23.3L43.1,23.3h-1.2l-0.3,2h1.2v1.2h-1.4
		l-0.3,1.9h-1.2l0.3-1.9h-2l-0.3,1.9h-1.2l0.3-1.9h-1v-1.2h1.2l0.3-2h-1.2V22h1.5l0.3-1.8h1.2L38.8,22h2l0.3-1.8h1.2L42.1,22h1V23.3
		z"/>
</g>
</svg>
