<?xml version="1.0" encoding="UTF-8"?><svg id="a" xmlns="http://www.w3.org/2000/svg" viewBox="0 0 50 50"><defs><style>.b{fill:#eee;}</style></defs><path class="b" d="m25,.56L2.08,8.68l3.6,30.11,19.32,10.65,19.32-10.65,3.6-30.11L25,.56Zm7.23,8.55l3.41,3.39-5.08.6-1.73-3.99h3.41Zm-14.68,0h3.41l-1.73,3.99-5.08-.6,3.41-3.39Zm-6.59,3.95l8.63.69,2.06-4.64h.93l-.04,5.65.97.48-.04-6.13h.97v13.87h-1.57l-10.4-3.83-1.49-6.09Zm7.54,24.72l-3.06-3.06v-3.06l3.06,2.66v3.47Zm.08-4.48l-5.85-5.02v-8.04l2.66.85,2.62,2.66,2.18-.48-1.61,2.46v7.58Zm11.86-2.66l-3.31,2.38v.85l3.31-2.22v.89l-3.23,2.38v1.09l3.23-2.42v1.13l-3.27,2.18v.89l3.27-2.18v1.81l-1.37,2.02-1.77,1.57h-4.81l-1.77-1.57-1.37-2.02v-1.81l3.27,2.18v-.89l-3.27-2.18v-1.13l3.23,2.42v-1.09l-3.23-2.38v-.89l3.31,2.22v-.85l-3.31-2.38v-4.44l1.94-2.86,1.21.73h4.81l1.21-.73,1.94,2.86v4.44Zm3.91,4.07l-3.06,3.06v-3.47l3.06-2.66v3.06Zm2.7-6.43l-5.85,5.02v-7.58l-1.61-2.46,2.18.48,2.62-2.66,2.66-.85v8.04Zm.28-9.13l-10.4,3.83h-1.57v-13.87h.97l-.04,6.13.97-.48-.04-5.65h.93l2.06,4.64,8.63-.69-1.49,6.09Z"/></svg>