<?xml version="1.0" encoding="utf-8"?>
<!-- Generator: Adobe Illustrator 27.2.0, SVG Export Plug-In . SVG Version: 6.00 Build 0)  -->
<svg version="1.1" id="Layer_1" xmlns="http://www.w3.org/2000/svg" xmlns:xlink="http://www.w3.org/1999/xlink" x="0px" y="0px"
	 viewBox="0 0 20 20" style="enable-background:new 0 0 20 20;" xml:space="preserve">
<style type="text/css">
	.st0{fill:#212121;}
</style>
<g id="translate">
	<path id="Vector" class="st0" d="M7.6,6.5L6.8,4.1L6.1,6.5H7.6z M8,7.5H5.7l-0.9,2.7c-0.1,0.3-0.4,0.4-0.6,0.3
		c-0.3-0.1-0.4-0.4-0.3-0.6l2.1-6.2C6.1,3.2,6.4,3,6.8,3c0.4,0,0.8,0.3,0.9,0.6l2.1,6.2c0.1,0.3-0.1,0.5-0.3,0.6c-0.1,0-0.1,0-0.2,0
		c-0.2,0-0.4-0.1-0.5-0.3L8,7.5z"/>
	<path id="Vector_2" class="st0" d="M10.9,18.2c0.1,0.1,0.3,0.2,0.4,0.2c0.1,0,0.2,0,0.2-0.1c0.8-0.5,1.5-1,2.1-1.5
		c0.6,0.5,1.2,1,2,1.5c0.1,0,0.2,0.1,0.2,0.1c0.2,0,0.3-0.1,0.4-0.2c0.1-0.2,0.1-0.5-0.2-0.7c-0.7-0.4-1.3-0.9-1.8-1.3
		c1.7-1.9,2-3.6,2.1-4.3H17c0.3,0,0.5-0.2,0.5-0.5S17.3,11,17,11h-2.9V9.6c0-0.3-0.2-0.5-0.5-0.5c-0.1,0-0.2,0.1-0.3,0.1v1.9
		c0,0.3-0.1,0.6-0.2,0.8h2.3c-0.1,0.5-0.4,2-1.8,3.6c-0.8-0.9-1.3-1.8-1.5-2.5c-0.3,0.1-0.5,0.2-0.8,0.2h-0.1c0.3,0.8,0.8,1.9,1.8,3
		c-0.5,0.5-1.1,0.9-1.9,1.3C10.9,17.7,10.8,18,10.9,18.2z M2.4,0.2h8.9c1.2,0,2.1,0.9,2.1,2.1v5.5h4.8c0.8,0,1.5,0.7,1.5,1.5v9
		c0,0.8-0.7,1.5-1.5,1.5H9.1c-0.8,0-1.5-0.7-1.5-1.5v-5.1H2.4c-1.2,0-2.1-0.9-2.1-2.1V2.3C0.3,1.1,1.2,0.2,2.4,0.2z M2.4,12.2h8.9
		c0.6,0,1.1-0.5,1.1-1.1V2.3c0-0.6-0.5-1.1-1.1-1.1H2.4c-0.6,0-1.1,0.5-1.1,1.1v8.9C1.3,11.8,1.8,12.2,2.4,12.2z"/>
</g>
</svg>
