<?xml version="1.0" encoding="UTF-8"?><svg id="a" xmlns="http://www.w3.org/2000/svg" viewBox="0 0 14.4 13.9"><defs><style>.b{fill:#f2f2f2;}</style></defs><path class="b" d="m7.2.07C3.35.07.23,3.19.23,7.04c0,3.27,2.26,6.01,5.3,6.76,0-1.03,0-1.72,0-1.75-.22.02-.42.04-.62.05-.78.04-1.41-.32-1.65-1-.12-.33-.35-.6-.65-.81-.1-.07-.25-.23-.23-.28.07-.16.25-.1.4-.09,0,0,.01,0,.02,0,.39.09.66.34.86.67.41.66,1.08.87,1.8.54.03-.03.06-.06.08-.09.11-.27.21-.55.32-.82-.11-.02-.27-.04-.42-.07-1.38-.24-2.17-1.01-2.39-2.34-.15-.89-.08-1.75.55-2.47.03-.04.04-.12.02-.17-.14-.48-.1-.95.03-1.42.05-.18.14-.23.32-.21.52.07.96.32,1.41.58.08.05.22.07.3.04.92-.21,1.85-.23,2.77-.02.21.05.43,0,.61-.11.38-.25.79-.44,1.25-.5.07,0,.13,0,.18.02.03.02.05.05.08.07.02.03.03.06.04.09.14.48.18.95.04,1.44-.02.06,0,.14.03.18.5.58.63,1.26.59,1.99-.04.8-.37,1.53-.96,2.08-.7.65-1.27.68-1.98.82.38.41.43.91.42,1.43,0,.04,0,.9,0,2.13,3.09-.71,5.4-3.48,5.4-6.78C14.17,3.19,11.05.07,7.2.07Z"/></svg>