<?xml version="1.0" encoding="UTF-8"?><svg id="a" xmlns="http://www.w3.org/2000/svg" viewBox="0 0 14.4 13.9"><defs><style>.b{fill:#f2f2f2;}</style></defs><path class="b" d="m7.2.13C3.43.13.38,3.18.38,6.95s3.05,6.82,6.82,6.82,6.82-3.05,6.82-6.82S10.97.13,7.2.13Zm-2.46,11.23h-1.81v-5.87h1.81v5.87Zm-.91-6.75c-.57,0-1.04-.47-1.04-1.04,0-.58.47-1.06,1.04-1.05.58,0,1.04.47,1.04,1.04,0,.57-.47,1.05-1.04,1.05Zm7.78,6.66v.09s-.05,0-.08,0c-.55,0-1.09,0-1.64,0-.06,0-.07-.02-.07-.08,0-.52,0-1.04,0-1.57,0-.52,0-1.05,0-1.57,0-.21-.04-.41-.13-.6-.15-.28-.39-.44-.69-.5-.28-.06-.55-.03-.81.08-.33.14-.51.41-.61.74-.04.13-.05.26-.05.4,0,1,0,2,0,3v.09h-1.77v-5.87h1.67v.83s.03-.02.03-.03c.46-.57,1.07-.87,1.8-.91.38-.02.75.04,1.1.2.57.27.93.71,1.12,1.3.08.25.13.51.13.78,0,1.2,0,2.41,0,3.61Z"/></svg>