<?xml version="1.0" encoding="UTF-8"?><svg id="i" xmlns="http://www.w3.org/2000/svg" viewBox="0 0 50 50"><defs><style>.k{fill:#fff;}.l{fill:#c3002f;}.m{fill:#dd0031;}</style></defs><polygon class="l" points="25.1 0 48.08 8.39 44.57 39.13 25.1 50 25.1 0"/><polygon class="m" points="25.1 0 1.92 8.49 5.23 38.82 25.1 50 25.1 0"/><path class="k" d="m10.56,38.16c4.85-10.88,9.66-21.66,14.54-32.61,4.86,10.93,9.65,21.72,14.5,32.61-.87,0-1.63,0-2.39,0-.85,0-1.7-.02-2.56,0-.38.01-.57-.11-.71-.47-.82-2.09-1.68-4.17-2.49-6.27-.17-.43-.38-.57-.84-.57-3.71.02-7.43.02-11.14,0-.42,0-.6.14-.74.51-.82,2.09-1.68,4.17-2.49,6.27-.16.41-.37.54-.8.53-1.58-.02-3.16,0-4.89,0Zm14.55-21.92c-1.43,3.44-2.8,6.73-4.18,10.05h8.36c-1.39-3.34-2.75-6.62-4.18-10.05Z"/></svg>