<?xml version="1.0" encoding="UTF-8"?><svg id="a" xmlns="http://www.w3.org/2000/svg" viewBox="0 0 50 50"><defs><style>.b{fill:#fff;}.c{fill:#c3002f;}.d{fill:#dd0031;}</style></defs><polygon class="d" points="25 .56 25 49.44 5.68 38.79 2.08 8.68 25 .56"/><polygon class="c" points="25 .56 25 49.44 44.32 38.79 47.92 8.68 25 .56"/><g><polygon class="b" points="24.42 22.98 24.42 9.11 23.45 9.11 23.49 15.24 22.52 14.76 22.56 9.11 21.63 9.11 19.58 13.75 10.95 13.06 12.44 19.15 22.84 22.98 24.42 22.98"/><polygon class="b" points="20.95 9.11 17.54 9.11 14.13 12.5 19.22 13.1 20.95 9.11"/><polygon class="b" points="18.01 23.75 15.38 21.09 12.72 20.24 12.72 28.29 18.57 33.31 18.57 25.73 20.18 23.27 18.01 23.75"/><polygon class="b" points="15.42 34.72 18.49 37.78 18.49 34.31 15.42 31.65 15.42 34.72"/><polygon class="b" points="30.19 13.75 28.13 9.11 27.21 9.11 27.25 14.76 26.28 15.24 26.32 9.11 25.35 9.11 25.35 22.98 26.92 22.98 37.33 19.15 38.82 13.06 30.19 13.75"/><polygon class="b" points="35.63 12.5 32.23 9.11 28.82 9.11 30.55 13.1 35.63 12.5"/><polygon class="b" points="31.76 23.75 29.59 23.27 31.2 25.73 31.2 33.31 37.05 28.29 37.05 20.24 34.38 21.09 31.76 23.75"/><polygon class="b" points="31.28 37.78 34.34 34.72 34.34 31.65 31.28 34.31 31.28 37.78"/><polygon class="b" points="27.29 24.07 27.2 24.07 22.57 24.07 22.48 24.07 21.27 23.35 19.34 26.21 19.34 30.65 22.64 33.02 22.64 33.87 19.34 31.65 19.34 32.54 22.56 34.92 22.56 36.01 19.34 33.59 19.34 34.72 22.6 36.9 22.6 37.78 19.34 35.61 19.34 37.42 20.71 39.44 22.48 41.01 24.54 41.01 25.22 41.01 27.29 41.01 29.06 39.44 30.43 37.42 30.43 35.61 27.17 37.78 27.17 36.9 30.43 34.72 30.43 33.59 27.21 36.01 27.21 34.92 30.43 32.54 30.43 31.65 27.13 33.87 27.13 33.02 30.43 30.65 30.43 26.21 28.5 23.35 27.29 24.07"/></g></svg>