<?xml version="1.0" encoding="UTF-8"?><svg id="a" xmlns="http://www.w3.org/2000/svg" viewBox="0 0 50 50"><defs><style>.k{fill:#fff;}.l{fill:#512bd4;}</style></defs><rect class="l" x="0" y="0" width="50" height="50"/><g><path class="k" d="m14.33,21.78c0,.18.02.36.03.54,0,.21.02.41.02.62,0,2.98,0,5.97,0,8.95,0,.04,0,.08,0,.13-.05,0-.09.02-.13.02-.59,0-1.19,0-1.78,0-.11,0-.14-.04-.14-.15,0-4.24,0-8.48,0-12.72,0-.04,0-.09.01-.14h.15c.71,0,1.42,0,2.13,0,.12,0,.2.04.26.14,1.93,3.08,3.86,6.16,5.79,9.24.14.23.28.46.44.72,0-.11-.02-.19-.02-.27-.02-.57-.05-1.14-.05-1.7,0-2.65,0-5.29,0-7.94v-.18h2.03v12.98c-.05,0-.1.01-.15.01-.67,0-1.35,0-2.02,0-.1,0-.15-.03-.21-.11-1.95-3.09-3.91-6.17-5.87-9.26-.17-.27-.31-.56-.46-.84,0-.02-.02-.03-.03-.05,0,0-.01,0-.02,0Z"/><path class="k" d="m25.85,19.05h6.84v1.83h-4.71c0,.06-.01.11-.01.16,0,1.11,0,2.23,0,3.34,0,.16,0,.16.16.16,1.34,0,2.68,0,4.02,0q.18,0,.18.18c0,.5,0,.99,0,1.49,0,.18,0,.18-.18.18-1.33,0-2.67,0-4,0q-.18,0-.18.19c0,1.15,0,2.3,0,3.45q0,.17.17.17c1.55,0,3.11,0,4.66,0q.18,0,.18.18c0,.5,0,1.01,0,1.51,0,.12-.03.16-.16.16-2.28,0-4.55,0-6.83,0-.13,0-.15-.04-.15-.16,0-4.23,0-8.46,0-12.69v-.15Z"/><path class="k" d="m37.31,20.88c-.06,0-.11,0-.16,0-1.11,0-2.22,0-3.33,0-.12,0-.15-.03-.15-.15,0-.52,0-1.04,0-1.56,0-.1.02-.14.13-.14,3.04,0,6.09,0,9.13,0,.11,0,.14.03.14.14,0,.52,0,1.05,0,1.57,0,.12-.04.14-.15.14-1.11,0-2.22,0-3.33,0-.05,0-.1,0-.16,0v.19c0,3.58,0,7.15,0,10.73,0,.04,0,.09,0,.13,0,.08-.03.11-.11.11-.64,0-1.28,0-1.93,0-.07,0-.1-.03-.1-.1,0-.04,0-.07,0-.11,0-3.59,0-7.18,0-10.77v-.18Z"/><path class="k" d="m7.68,31.01c0-.77.72-1.36,1.48-1.23.53.09.9.39,1.05.91.21.7-.32,1.45-1.05,1.53-.45.05-.84-.06-1.15-.39-.22-.23-.34-.5-.33-.82Z"/></g></svg>