<?xml version="1.0" encoding="UTF-8"?><svg id="f" xmlns="http://www.w3.org/2000/svg" viewBox="0 0 50 50"><defs><style>.k{fill:#f24e1e;}.l{fill:#a259ff;}.m{fill:#ff7262;}.n{fill:#1abcfe;}.o{fill:#0acf83;}</style></defs><path class="m" d="m33.52.29h-8.49v16.52s8.49,0,8.49,0c4.56,0,8.26-3.7,8.26-8.26h0c0-4.56-3.7-8.26-8.26-8.26Z"/><path class="k" d="m16.54.29c-4.56,0-8.26,3.7-8.26,8.26h0c0,4.56,3.7,8.26,8.26,8.26h8.47V.29s-8.47,0-8.47,0Z"/><path class="l" d="m16.54,16.74c-4.56,0-8.26,3.7-8.26,8.26h0c0,4.56,3.7,8.26,8.26,8.26h8.47v-16.52s-8.47,0-8.47,0Z"/><path class="o" d="m16.54,33.19c-4.56,0-8.26,3.7-8.26,8.26h0c0,4.56,3.7,8.26,8.26,8.26h0c4.68,0,8.47-3.79,8.47-8.47v-8.05h-8.47Z"/><path class="n" d="m33.75,16.95h-.42c-4.56,0-8.26,3.7-8.26,8.26h0c0,4.56,3.7,8.26,8.26,8.26h0c4.68,0,8.47-3.79,8.47-8.47h0c0-4.45-3.6-8.05-8.05-8.05Z"/></svg>