<?xml version="1.0" encoding="UTF-8"?><svg id="h" xmlns="http://www.w3.org/2000/svg" viewBox="0 0 50 50"><defs><style>.k{fill:#fff;}.l{fill:#7711f7;}</style></defs><path class="l" d="m44.53,10.23c0-2.95-2.39-5.34-5.34-5.34H10.81c-2.95,0-5.34,2.39-5.34,5.34,0,13.96-5.47,13.51-5.47,13.51v2.67s5.47-.84,5.47,13.35c0,2.95,2.39,5.34,5.34,5.34h28.38c2.95,0,5.34-2.39,5.34-5.34,0-14.19,5.47-13.35,5.47-13.35v-2.67s-5.47.46-5.47-13.51Z"/><path class="k" d="m28.67,24.29c2.1.36,3.75,1.33,4.49,3.4.89,2.49.11,5.86-3.2,7.22-1.11.46-2.27.68-3.47.69-2.93.02-5.85.03-8.78.04-.5,0-.5,0-.5-.52,0-6.81,0-13.61,0-20.42,0-.47,0-.47.45-.47,2.78,0,5.56-.02,8.34,0,1.56.01,3.05.31,4.35,1.25,1.61,1.17,2.27,2.8,2,4.73-.29,2.07-1.53,3.43-3.56,4.02-.03,0-.06.02-.13.05Zm-7.93,5.08h0c0,1.02,0,2.04,0,3.06,0,.28.08.37.36.36,1.45-.01,2.89.01,4.34-.02.59-.01,1.19-.07,1.76-.2,1.24-.28,2.23-.91,2.56-2.23.11-.44.13-.91.11-1.36-.04-.92-.44-1.68-1.22-2.21-.81-.56-1.75-.77-2.7-.79-1.61-.05-3.23-.02-4.84-.04-.28,0-.37.1-.36.37.01,1.02,0,2.04,0,3.06Zm0-9.19c0,.93,0,1.86,0,2.79,0,.25.08.33.33.32,1.05-.01,2.11.02,3.16-.01.67-.02,1.35-.07,2-.2,1.6-.34,2.85-1.33,2.64-3.44-.09-.94-.57-1.64-1.4-2.08-.63-.33-1.31-.46-2.01-.47-1.46-.02-2.92,0-4.37-.01-.27,0-.35.09-.34.35.01.92,0,1.84,0,2.76Z"/></svg>