<?xml version="1.0" encoding="UTF-8"?><svg id="a" xmlns="http://www.w3.org/2000/svg" viewBox="0 0 50 50"><defs><style>.b{fill:#8b4081;}</style></defs><polygon class="b" points="27.07 20.59 27.8 19.63 27.8 9.03 21.93 9.03 21.93 19.63 22.65 20.59 27.07 20.59"/><polygon class="b" points="20.16 25.46 21.46 21.23 20.75 20.26 10.61 17.16 8.9 22.78 19.03 25.87 20.16 25.46"/><polygon class="b" points="24.09 29.27 20.43 26.79 19.29 27.19 13.36 35.97 18.23 39.26 24.15 30.47 24.09 29.27"/><polygon class="b" points="30.7 25.87 40.84 22.78 39.12 17.16 28.98 20.26 28.27 21.23 29.57 25.46 30.7 25.87"/><polygon class="b" points="29.3 26.79 25.64 29.27 25.58 30.47 31.5 39.26 36.37 35.97 30.44 27.19 29.3 26.79"/><rect class="b" x="28.3" y="14.09" width="7.71" height="1.36" transform="translate(.76 31.1) rotate(-52.15)"/><rect class="b" x="17.05" y="10.69" width="1.36" height="7.71" transform="translate(-5.14 12.86) rotate(-35.15)"/><rect class="b" x="9.44" y="27.59" width="7.71" height="1.36" transform="translate(-8.15 5.55) rotate(-18.15)"/><rect class="b" x="24.18" y="33.04" width="1.36" height="7.71" transform="translate(-.74 .51) rotate(-1.15)"/><rect class="b" x="35.8" y="24.42" width="1.36" height="7.71" transform="translate(-1.92 53.87) rotate(-71.47)"/><path class="b" d="m25,0C11.19,0,0,11.19,0,25s11.19,25,25,25,25-11.19,25-25S38.81,0,25,0Zm0,44.96c-11.01,0-19.96-8.96-19.96-19.96S13.99,5.04,25,5.04s19.96,8.96,19.96,19.96-8.96,19.96-19.96,19.96Z"/></svg>