<?xml version="1.0" encoding="UTF-8"?><svg id="f" xmlns="http://www.w3.org/2000/svg" viewBox="0 0 50 50"><defs><style>.cls-1{fill:#073042;}.cls-2{fill:#fff;}.cls-3{fill:#4285f4;}.cls-4{fill:#3ddc84;}.cls-5{fill:#afafaf;}</style></defs><path class="cls-5" d="M16.92,3.94c1.16,.04,2.33,.03,3.42-.42,.69-.28,1.33-.68,1.99-1.03,.47-.24,.93-.5,1.41-.7,.92-.38,1.86-.32,2.75,.08,.52,.23,1.02,.51,1.5,.82,1.36,.89,2.85,1.3,4.47,1.25,.48-.01,.95-.02,1.43-.05,1.69-.12,2.98,.53,3.88,1.96,.18,.28,.37,.55,.53,.84,.88,1.61,2.23,2.7,3.85,3.48,.47,.23,.95,.45,1.42,.7,1.1,.61,1.7,1.56,1.86,2.8,.12,.91,.2,1.83,.35,2.73,.22,1.35,.83,2.55,1.66,3.63,.19,.25,.38,.5,.57,.75,1.03,1.35,1.17,2.8,.53,4.35-.3,.71-.61,1.42-.85,2.16-.47,1.42-.39,2.87-.09,4.31,.18,.86,.27,1.73,0,2.6-.31,.99-1,1.69-1.79,2.3-.85,.65-1.66,1.33-2.25,2.24-.54,.83-.88,1.74-1.19,2.67-.19,.57-.39,1.15-.68,1.67-.58,1.07-1.59,1.56-2.73,1.83-.73,.17-1.47,.3-2.19,.5-1.3,.37-2.37,1.13-3.32,2.08-.25,.25-.51,.5-.77,.75-1.15,1.1-2.48,1.46-4.02,1.04-.7-.19-1.39-.41-2.09-.57-1.49-.34-2.94-.15-4.37,.32-.51,.17-1.03,.3-1.56,.38-1.27,.19-2.34-.25-3.26-1.11-.34-.32-.68-.65-1.01-.98-1.26-1.25-2.8-1.96-4.54-2.26-.57-.1-1.13-.24-1.67-.43-1.23-.44-1.93-1.37-2.33-2.57-.2-.6-.4-1.21-.62-1.81-.53-1.41-1.42-2.54-2.63-3.44-.36-.27-.71-.56-1.04-.86-1.11-1-1.48-2.26-1.25-3.72,.11-.75,.26-1.49,.33-2.25,.12-1.34-.19-2.62-.73-3.85-.19-.44-.37-.88-.54-1.32-.53-1.4-.32-2.71,.55-3.91,.3-.41,.6-.81,.9-1.21,.94-1.24,1.4-2.65,1.56-4.17,.06-.62,.13-1.24,.22-1.85,.24-1.59,1.16-2.64,2.64-3.23,1.08-.43,2.07-1,2.93-1.78,.56-.51,1.04-1.08,1.42-1.73,.21-.35,.41-.7,.63-1.05,.85-1.35,2.08-2.01,3.68-1.98,.35,0,.7,.03,1.05,.05Zm8.07,7.7c-2.11,0-3.87,1.74-3.84,3.85,.02,2.22,1.77,3.93,3.99,3.84,1.96-.08,3.62-1.63,3.65-3.82,.02-2.11-1.71-3.86-3.8-3.87Z"/><g><path class="cls-2" d="M16.92,2.96c1.16,.04,2.33,.03,3.42-.42,.69-.28,1.33-.68,1.99-1.03,.47-.24,.93-.5,1.41-.7,.92-.38,1.86-.32,2.75,.08,.52,.23,1.02,.51,1.5,.82,1.36,.89,2.85,1.3,4.47,1.25,.48-.01,.95-.02,1.43-.05,1.69-.12,2.98,.53,3.88,1.96,.18,.28,.37,.55,.53,.84,.88,1.61,2.23,2.7,3.85,3.48,.47,.23,.95,.45,1.42,.7,1.1,.61,1.7,1.56,1.86,2.8,.12,.91,.2,1.83,.35,2.73,.22,1.35,.83,2.55,1.66,3.63,.19,.25,.38,.5,.57,.75,1.03,1.35,1.17,2.8,.53,4.35-.3,.71-.61,1.42-.85,2.16-.47,1.42-.39,2.87-.09,4.31,.18,.86,.27,1.73,0,2.6-.31,.99-1,1.69-1.79,2.3-.85,.65-1.66,1.33-2.25,2.24-.54,.83-.88,1.74-1.19,2.67-.19,.57-.39,1.15-.68,1.67-.58,1.07-1.59,1.56-2.73,1.83-.73,.17-1.47,.3-2.19,.5-1.3,.37-2.37,1.13-3.32,2.08-.25,.25-.51,.5-.77,.75-1.15,1.1-2.48,1.46-4.02,1.04-.7-.19-1.39-.41-2.09-.57-1.49-.34-2.94-.15-4.37,.32-.51,.17-1.03,.3-1.56,.38-1.27,.19-2.34-.25-3.26-1.11-.34-.32-.68-.65-1.01-.98-1.26-1.25-2.8-1.96-4.54-2.26-.57-.1-1.13-.24-1.67-.43-1.23-.44-1.93-1.37-2.33-2.57-.2-.6-.4-1.21-.62-1.81-.53-1.41-1.42-2.54-2.63-3.44-.36-.27-.71-.56-1.04-.86-1.11-1-1.48-2.26-1.25-3.72,.11-.75,.26-1.49,.33-2.25,.12-1.34-.19-2.62-.73-3.85-.19-.44-.37-.88-.54-1.32-.53-1.4-.32-2.71,.55-3.91,.3-.41,.6-.81,.9-1.21,.94-1.24,1.4-2.65,1.56-4.17,.06-.62,.13-1.24,.22-1.85,.24-1.59,1.16-2.64,2.64-3.23,1.08-.43,2.07-1,2.93-1.78,.56-.51,1.04-1.08,1.42-1.73,.21-.35,.41-.7,.63-1.05,.85-1.35,2.08-2.01,3.68-1.98,.35,0,.7,.03,1.05,.05Zm8.07,7.7c-2.11,0-3.87,1.74-3.84,3.85,.02,2.22,1.77,3.93,3.99,3.84,1.96-.08,3.62-1.63,3.65-3.82,.02-2.11-1.71-3.86-3.8-3.87Z"/><path class="cls-2" d="M24.96,16.61c-1.17,0-2.11-.94-2.11-2.11,0-1.18,.95-2.12,2.13-2.11,1.16,0,2.11,.96,2.1,2.12,0,1.17-.95,2.1-2.12,2.1Z"/></g><path class="cls-3" d="M24.98,6.82h0c.71,0,1.28,.57,1.28,1.28v3.29h-2.56v-3.29c0-.71,.57-1.28,1.28-1.28Z"/><path class="cls-4" d="M42.67,26.82l-2.53-.11c-.03-1.01-.3-2.11-.94-3.29-.56-1.04-1.2-1.83-1.88-2.42l1.4-2.11c.09-.13,.05-.3-.08-.39-.13-.09-.3-.05-.39,.08l-1.38,2.07c-3.31-2.45-7.32-.75-7.32-.75l6.37,13.67s3.94-2.35,4.2-6.28l2.52,.11s0,0,.01,0c.15,0,.27-.12,.28-.27,0-.15-.11-.29-.27-.29Zm-8.53-4.02c-.33,0-.59-.27-.59-.59s.27-.59,.59-.59,.59,.27,.59,.59-.27,.59-.59,.59Zm3.03,6.16c-.33,0-.59-.27-.59-.59s.27-.59,.59-.59,.59,.27,.59,.59-.27,.59-.59,.59Z"/><path class="cls-3" d="M37.47,38.04l-.23-3.27L27.91,15.92l-2.93,2.43,3.96,8.1c-3.01,.75-5.66,.75-7.99,.07l4.06-8.31-2.93-2.43-4.52,9.15c-1.42-.95-2.68-2.22-3.8-3.77-.27-.37-.78-.45-1.15-.19l-2,1.4c-.38,.26-.47,.79-.2,1.16,1.49,2.1,3.29,3.82,5.32,5.09l-2.97,6.01-.23,3.27c-.05,.67,.75,1.05,1.24,.59l2.43-2.27,2.92-5.97c3.51,1.23,7.5,1.31,11.69,.01l2.98,6.1,2.43,2.27c.49,.46,1.29,.08,1.24-.59Z"/><path class="cls-1" d="M24.99,12.51c1.1,0,1.99,.89,1.99,1.99s-.89,1.99-1.99,1.99-1.99-.89-1.99-1.99,.89-1.99,1.99-1.99m0-1.89c-2.15,0-3.88,1.74-3.88,3.88s1.74,3.88,3.88,3.88,3.88-1.74,3.88-3.88-1.74-3.88-3.88-3.88h0Z"/></svg>