<?xml version="1.0" encoding="UTF-8"?><svg id="a" xmlns="http://www.w3.org/2000/svg" xmlns:xlink="http://www.w3.org/1999/xlink" viewBox="0 0 50 50"><defs><style>.d{fill:#2684ff;}.e{fill:url(#b);}.f{fill:url(#c);}</style><linearGradient id="b" x1="10.2" y1="11.91" x2="24.72" y2="26.7" gradientTransform="translate(0 52.16) scale(1 -1)" gradientUnits="userSpaceOnUse"><stop offset="0" stop-color="#0558d2"/><stop offset="1" stop-color="#2684ff"/></linearGradient><linearGradient id="c" x1="43.87" y1="45.63" x2="17.87" y2="20.24" gradientTransform="translate(0 52.16) scale(1 -1)" gradientUnits="userSpaceOnUse"><stop offset="0" stop-color="#0558d2"/><stop offset="1" stop-color="#2684ff"/></linearGradient></defs><path class="e" d="m32.38,24.99c-.1-.12-.16-.21-.24-.29-2.3-2.3-4.54-4.67-6.92-6.88-1.76-1.64-2.92-3.57-3.48-5.86-1.02-4.17-.14-7.93,2.6-11.24.18-.21.38-.4.61-.64.14.13.27.24.39.36,7.67,7.66,15.33,15.33,22.99,22.99,1.03,1.03,1.04,2.09.02,3.11-3.59,3.59-19.36,19.38-22.94,22.98-.33.33-.52.35-.86,0-2.58-2.6-5.17-5.18-7.76-7.77-.5-.5-.5-.57-.02-1.06,1.02-1.03,14.21-14.26,15.23-15.29.12-.12.24-.25.37-.4h0Z"/><path class="f" d="m24.99,49.92c-.17-.16-.3-.27-.42-.4-7.64-7.64-15.27-15.29-22.94-22.91-.97-.97-.99-2.28,0-3.24,2.26-2.18,4.46-4.43,6.68-6.65C9.69,15.34,23.18,1.86,24.55.45c.29-.3.48-.32.79,0,2.61,2.63,5.24,5.25,7.86,7.88.43.43.43.54-.02.99-1.09,1.09-14.27,14.29-15.37,15.37-.24.23-.25.38,0,.63,2.31,2.29,4.53,4.68,6.93,6.88,4.46,4.1,5.33,11.59,1.13,16.78-.26.32-.57.61-.88.94h0Z"/><path class="d" d="m25.22,17.82c2.38,2.22,4.62,4.58,6.92,6.88.06.06.12.14.18.22h16.78c-.02-.5-.28-1-.77-1.49-7.66-7.66-15.33-15.33-22.99-22.99-.12-.12-.25-.23-.39-.36-.23.24-.43.43-.61.64-2.74,3.31-3.63,7.07-2.6,11.24.56,2.29,1.73,4.22,3.48,5.86Z"/></svg>