<?xml version="1.0" encoding="utf-8"?>
<!-- Generator: Adobe Illustrator 27.2.0, SVG Export Plug-In . SVG Version: 6.00 Build 0)  -->
<svg version="1.1" id="f" xmlns="http://www.w3.org/2000/svg" xmlns:xlink="http://www.w3.org/1999/xlink" x="0px" y="0px"
	 viewBox="0 0 50 50" style="enable-background:new 0 0 50 50;" xml:space="preserve">
<style type="text/css">
	.st0{fill:#FE6C37;}
	.st1{fill:#FFFFFF;}
</style>
<g>
	<g>
		<g>
			<g>
				<path class="st0" d="M42.7,7.3C47.4,12,50,18.3,50,25s-2.6,13-7.3,17.7S31.7,50,25,50s-13-2.6-17.7-7.3S0,31.7,0,25
					S2.6,12,7.3,7.3S18.3,0,25,0S38,2.6,42.7,7.3z M38.8,16.5c1.8-1,2.2-4,0.7-5.4c-1,1-2,2-3,3C37.2,14.9,38,15.7,38.8,16.5z
					 M37.9,11.9c0.4-0.4,0.8-0.8,1.2-1.2c-1.3-1.2-3.5-1.2-4.8,0c-1.4,1.2-1.7,3.3-0.6,4.9c1,1.5,3,2,4.7,1.2
					c-0.8-0.8-1.5-1.6-2.3-2.3c-0.3-0.3-0.3-0.5,0-0.8C36.7,13.1,37.2,12.5,37.9,11.9z M34.2,18.8c0.5-0.4,0.5-1,0.3-1.5
					c-0.2-0.5-0.8-0.8-1.3-0.7c-0.3,0.1-0.6,0.3-0.8,0.5c-2.9,2.9-5.8,5.8-8.7,8.7c-0.1,0.1-0.1,0.2-0.2,0.2
					c0.4,0.4,0.8,0.8,1.2,1.2c2.4-2.1,4.8-4.2,7.2-6.3C32.6,20.2,33.4,19.5,34.2,18.8z M33.4,22c0.6-0.9,1.1-1.8,1.3-2.9
					c-3.3,2.9-6.5,5.7-9.8,8.5c0.6,0.6,1.1,1.1,1.7,1.7c0.9-0.9,1.8-1.7,2.7-2.6C30.8,25.2,32.2,23.7,33.4,22z M31.7,17
					c0.4-0.4,0.9-0.7,1.4-1c-0.5-0.4-1.1-0.7-1.8-0.4c-0.8,0.3-1.5,0.6-2.2,1.1c-2.4,1.6-4.5,3.7-6.6,5.8c-0.5,0.5-0.9,0.9-1.4,1.3
					c0.7,0.7,1.3,1.3,2,2c0.1-0.1,0.2-0.3,0.3-0.4C26.2,22.5,28.9,19.8,31.7,17z M26.3,29.7c-0.6-0.6-1.1-1.1-1.7-1.7
					c-0.1-0.1-0.3-0.1-0.4-0.1c-1,0.2-2,0.4-3.1,0.7c-0.2,0.1-0.5,0.2-0.6,0.4c-2.3,2.3-4.7,4.7-7,7c-0.1,0.1-0.2,0.2-0.3,0.4
					c0.8,0.8,1.6,1.6,2.4,2.4c0.1,0.1,0.3,0.1,0.4,0.2c0-0.1,0.1-0.3,0.1-0.4c-0.1-0.4-0.2-0.9-0.3-1.3c-0.1-0.5,0-0.7,0.5-1
					c2.3-1.3,4.5-2.6,6.8-3.9C24,31.5,25.1,30.6,26.3,29.7z M24,27.5c-0.4-0.4-0.7-0.7-0.9-0.9c-0.5,0.4-0.9,0.9-1.4,1.4
					C22.5,27.8,23.2,27.6,24,27.5z M22.4,26c-0.6-0.6-1.1-1.2-1.6-1.6c-0.8,0.8-1.6,1.6-2.5,2.5C19.7,26.5,21.1,26.2,22.4,26z
					 M15.1,39.2c-0.8-0.8-1.6-1.6-2.3-2.3c-0.6,0.6-1.3,1.2-2,2C12.2,39,13.7,39.1,15.1,39.2z"/>
				<path class="st1" d="M39.5,11.1c1.5,1.4,1.1,4.4-0.7,5.4c-0.8-0.8-1.6-1.6-2.4-2.4C37.4,13.1,38.5,12.1,39.5,11.1z M39.7,13.8
					c0-0.2,0-0.4-0.1-0.5c-0.1-0.1-0.2-0.2-0.4-0.3c-0.1,0.2-0.1,0.3-0.2,0.4c-0.1,0.3-0.1,0.6-0.1,0.9c0,0.1,0.1,0.3,0.1,0.4
					c0.1,0,0.3,0,0.4-0.1C39.5,14.3,39.6,14,39.7,13.8z"/>
				<path class="st0" d="M39.6,13.3c0.1,0.1,0.1,0.3,0.1,0.5c-0.1,0.2-0.2,0.5-0.3,0.8c0,0.1-0.2,0.1-0.4,0.1c0-0.1-0.1-0.3-0.1-0.4
					c0-0.3,0.1-0.6,0.1-0.9c0-0.1,0.1-0.3,0.2-0.4C39.3,13.1,39.5,13.1,39.6,13.3z"/>
				<path class="st1" d="M39.1,10.7c-0.4,0.4-0.8,0.8-1.2,1.2c-0.6,0.6-1.2,1.2-1.9,1.8c-0.3,0.3-0.3,0.5,0,0.8
					c0.8,0.7,1.5,1.5,2.3,2.3c-1.7,0.8-3.7,0.3-4.7-1.2c-1.1-1.6-0.8-3.7,0.6-4.9C35.6,9.6,37.7,9.5,39.1,10.7z"/>
				<path class="st1" d="M34.5,17.3c0.2,0.5,0.2,1.1-0.3,1.5c-0.8,0.7-1.6,1.4-2.4,2.1c-2.4,2.1-4.8,4.2-7.2,6.3
					c-0.4-0.4-0.8-0.8-1.2-1.2c0.1-0.1,0.1-0.2,0.2-0.2c2.9-2.9,5.8-5.8,8.7-8.7c0.2-0.2,0.5-0.4,0.8-0.5
					C33.7,16.5,34.2,16.8,34.5,17.3z"/>
				<path class="st1" d="M34.7,19c-0.2,1.1-0.7,2.1-1.3,2.9c-1.2,1.7-2.6,3.2-4.1,4.7c-0.9,0.9-1.8,1.8-2.7,2.6
					c-0.6-0.6-1.1-1.1-1.7-1.7C28.2,24.8,31.4,21.9,34.7,19z"/>
				<path class="st1" d="M33.1,16c-0.5,0.3-1,0.6-1.4,1c-2.8,2.8-5.5,5.5-8.3,8.3c-0.1,0.1-0.2,0.3-0.3,0.4c-0.7-0.7-1.3-1.3-2-2
					c0.4-0.4,0.9-0.9,1.4-1.3c2.1-2,4.2-4.1,6.6-5.8c0.7-0.5,1.4-0.8,2.2-1.1C32,15.3,32.6,15.6,33.1,16z"/>
				<path class="st1" d="M24.6,28c0.6,0.5,1.1,1.1,1.7,1.7c-1.2,0.9-2.2,1.8-3.4,2.5c-2.2,1.4-4.5,2.6-6.8,3.9
					c-0.4,0.2-0.6,0.5-0.5,1c0.1,0.4,0.2,0.9,0.3,1.3c0,0.1-0.1,0.3-0.1,0.4c-0.1,0-0.3-0.1-0.4-0.2c-0.8-0.8-1.6-1.5-2.4-2.4
					c0.1-0.1,0.2-0.3,0.3-0.4c2.3-2.3,4.7-4.7,7-7c0.2-0.2,0.4-0.3,0.6-0.4c1-0.2,2-0.5,3.1-0.7C24.3,27.9,24.5,27.9,24.6,28z"/>
				<path class="st1" d="M23.1,26.6c0.2,0.2,0.5,0.5,0.9,0.9c-0.8,0.2-1.5,0.3-2.2,0.5C22.2,27.5,22.7,27,23.1,26.6z"/>
				<path class="st1" d="M20.8,24.3c0.5,0.5,1,1,1.6,1.6c-1.3,0.3-2.7,0.6-4.1,0.9C19.2,25.9,20,25.1,20.8,24.3z"/>
				<path class="st1" d="M12.8,36.9c0.7,0.7,1.5,1.5,2.3,2.3c-1.4-0.1-2.8-0.2-4.3-0.3C11.5,38.1,12.2,37.5,12.8,36.9z"/>
			</g>
		</g>
	</g>
</g>
</svg>
