<?xml version="1.0" encoding="UTF-8"?><svg id="a" xmlns="http://www.w3.org/2000/svg" viewBox="0 0 50 50"><defs><style>.b{fill:#3c3c41;}.c{fill:#ffdc80;}.d{fill:#107b10;}.e{fill:#ffb900;}.f{fill:#d2d2d2;}</style></defs><g><path class="b" d="m28.43,34.48l2.49,2.35.79-.79-1.26-1.26,2.33-2.62.65-.05c.17-.01.24-.21.12-.33l-.99-.97c1.11-9.08-7.22-7.14-7.22-7.14l3.15,3.15-.66,3.4-.08-.07-3.51.69-3.15-3.15s-1.74,7.9,7.35,6.79Z"/><path class="b" d="m39.02,37.24l-.12.9-2.39,2.32-1.78-1.55-.74.79,8.77,8.3c.97.92,2.5.9,3.45-.05l.07-.07c.99-.99.96-2.6-.05-3.55l-7.21-7.08Z"/></g><polygon class="b" points="44.27 22.81 36.85 29.98 36.85 31.47 35.39 33.18 33.65 33.35 32.05 34.95 33.59 36.49 26.38 43.71 25.14 43.86 21.82 48.12 22.39 48.67 27.02 45.43 27.11 44.35 34.55 37.46 35.9 38.81 37.62 37.09 37.85 35.55 39.33 34.07 40.96 34.01 48.31 26.65 44.27 22.81"/><path class="e" d="m21.63,33.51c-2.12-2.33-1.38-5.85-1.34-5.99.06-.29.28-.53.57-.61.29-.08.6,0,.81.21l2.84,2.84,2.64-.52.46-2.34-2.84-2.84c-.21-.21-.29-.52-.21-.81s.31-.51.6-.57c.16-.04,3.99-.89,6.43,1.31.87.78,1.44,1.83,1.71,3.13V5.71c0-.49-.17-.96-.48-1.34-4.99-6.06-23.21-5.59-28-.02-.33.38-.51.87-.51,1.37v24.94c0,.64.3,1.25.8,1.65,4.49,3.52,13.13,4.74,20.34,3.02-1.63-.21-2.91-.81-3.83-1.82Z"/><ellipse class="f" cx="18.93" cy="5.35" rx="12.72" ry="3.9"/><path class="c" d="m24.51,29.95l2.64-.52.46-2.34-2.84-2.84c-.21-.21-.29-.52-.21-.81s.31-.51.6-.57c.12-.03,2.25-.51,4.35.15v-13.09c-2.48.86-7.68,1.29-7.68,1.29v16.05l2.69,2.69Z"/><g><rect class="d" x="38.59" width="1.9" height="1.65"/><rect class="d" x="41.76" width="1.9" height="1.65"/><rect class="d" x="44.93" width="1.9" height="1.65"/><rect class="d" x="48.1" width="1.9" height="1.65"/><rect class="d" x="48.1" y="2.97" width="1.9" height="1.65"/><rect class="d" x="48.1" y="5.93" width="1.9" height="1.65"/><rect class="d" x="48.1" y="8.9" width="1.9" height="1.65"/></g><g><rect class="d" x="9.51" y="47.75" width="1.9" height="1.65"/><rect class="d" x="6.34" y="47.75" width="1.9" height="1.65"/><rect class="d" x="3.17" y="47.75" width="1.9" height="1.65"/><rect class="d" y="47.75" width="1.9" height="1.65"/><rect class="d" y="44.78" width="1.9" height="1.65"/><rect class="d" y="41.81" width="1.9" height="1.65"/><rect class="d" y="38.85" width="1.9" height="1.65"/></g></svg>