<?xml version="1.0" encoding="utf-8"?>
<!-- Generator: Adobe Illustrator 26.5.3, SVG Export Plug-In . SVG Version: 6.00 Build 0)  -->
<svg version="1.1" id="i" xmlns="http://www.w3.org/2000/svg" xmlns:xlink="http://www.w3.org/1999/xlink" x="0px" y="0px"
	 viewBox="0 0 50 50" style="enable-background:new 0 0 50 50;" xml:space="preserve">
<style type="text/css">
	.st0{fill:#FFFFFF;}
	.st1{fill:#336791;}
</style>
<g>
	<path d="M28.7,49.3c-3.6-0.7-4.6-3.4-5.1-6.5c-0.3-1.9-0.4-3.9-0.5-5.8c-2.9,0.9-5.6,0.8-7.9-0.9c-1.3,0.3-2.4,0.7-3.6,0.7
		c-1.8-0.1-3-1.3-4-2.8c-2.2-3.2-3.4-6.9-4.3-10.7c-0.8-3.1-1.3-6.3-1.9-9.4c0-0.6,0-1.1,0-1.7c0.1-0.5,0.2-0.9,0.2-1.4
		C2,5.7,5.4,2.1,10.6,1.5c3-0.4,5.8,0.2,8.7,1c0.4,0.1,0.9,0.2,1.2,0c2.4-1.3,5-1.5,7.7-1.1c2,0.3,3.8-0.5,5.7-0.7
		c1.1,0,2.1,0,3.2,0c0.2,0.1,0.5,0.2,0.7,0.2c2.3,0.3,4.5,1.1,6.4,2.4c3.2,2.1,4.7,5.1,4.1,9c-0.5,3.6-1.4,7-2.8,10.3
		c-0.9,2-1.9,4-2.9,6.1c0.9-0.1,1.7-0.3,2.5-0.4c1.7-0.3,2.7,0.1,3.5,1.6c0,0.4,0,0.9,0,1.3c-2.1,3.9-5.9,4.3-9.7,4.5
		c-0.3,2.2-0.4,4.2-0.8,6.3c-0.7,3.8-2.7,6.3-6.7,7.1c-0.4,0.1-0.8,0.2-1.2,0.3C29.7,49.3,29.2,49.3,28.7,49.3z M40.3,29.5
		c0.2-0.4,0.4-0.7,0.6-1c3.1-5.2,5.4-10.8,6.1-16.9c0.3-2.7-0.4-4.9-2.6-6.6c-0.5-0.4-0.9-0.8-1.5-1.1c-4-2.4-8.2-2.4-12.6-1.3
		c-0.5,0.1-1.1,0.2-1.7,0.1c-2.7-0.4-5.2-0.4-7.7,1C20.5,4,20,4,19.4,3.8c-2.6-0.9-5.2-1.3-7.9-1.2c-3.9,0.2-7,2.2-8,5.8
		c-0.5,1.9-0.9,4-0.6,6c0.6,4,1.6,8,2.7,12c0.7,2.7,1.8,5.2,3.5,7.4c1.8,2.2,3.8,2.3,5.6,0.1c1.1-1.2,2.1-2.5,3.2-3.7
		c0.2-0.2,0.5-0.4,0.8-0.4c0.7,0.2,1.5,0.4,2.2,0.7c-0.5,0.9-1.2,1.5-2.2,1.7c-0.8,0.2-1.5,0.3-2.2,0.6c-1.2,0.5-1.3,1.7-0.2,2.3
		c0.8,0.4,1.7,0.7,2.6,0.8c1.9,0.3,3.6-0.2,5.3-1.3c0.1,2.5,0.1,5,0.2,7.4c0.1,2.4,0.9,4.6,3.4,5.6c3.4,1.4,7.9-1,8.7-4.6
		c0.2-0.9,0.3-1.9,0.5-2.8c0.3-2,0.5-4.1,0.8-6.1c0.7,0,1.3,0,2,0c2.2,0,4.3-0.5,6.1-1.9c0.7-0.6,1.7-1.1,1.2-2.2
		c-0.5-1.1-1.5-0.6-2.4-0.5C43.3,29.8,41.8,30.2,40.3,29.5z"/>
	<path class="st0" d="M40.3,29.5c1.5,0.7,3,0.3,4.4,0.2c0.9-0.1,1.9-0.6,2.4,0.5c0.5,1.1-0.5,1.7-1.2,2.2c-1.8,1.4-3.9,1.9-6.1,1.9
		c-0.6,0-1.3,0-2,0c-0.3,2-0.5,4-0.8,6.1c-0.1,0.9-0.3,1.9-0.5,2.8c-0.8,3.6-5.2,6-8.7,4.6c-2.5-1-3.3-3.2-3.4-5.6
		c-0.1-2.4,0-4.9-0.2-7.4c-1.7,1.1-3.4,1.6-5.3,1.3c-0.9-0.1-1.8-0.4-2.6-0.8c-1.2-0.6-1-1.8,0.2-2.3c0.7-0.3,1.5-0.5,2.2-0.6
		c1-0.2,1.7-0.8,2.2-1.7c-0.8-0.2-1.5-0.5-2.2-0.7c-0.2,0-0.6,0.2-0.8,0.4c-1.1,1.2-2.2,2.4-3.2,3.7c-1.9,2.1-3.8,2.1-5.6-0.1
		c-1.8-2.2-2.8-4.8-3.5-7.4c-1.1-4-2.1-8-2.7-12c-0.3-1.9,0-4.1,0.6-6c1-3.6,4.1-5.6,8-5.8c2.7-0.1,5.4,0.3,7.9,1.2
		C20,4,20.5,4,21,3.7c2.4-1.3,5-1.4,7.7-1c0.5,0.1,1.1,0.1,1.7-0.1c4.4-1.1,8.6-1.1,12.6,1.3c0.5,0.3,1,0.7,1.5,1.1
		c2.2,1.7,2.9,3.9,2.6,6.6c-0.7,6.1-2.9,11.6-6.1,16.9C40.7,28.8,40.6,29.1,40.3,29.5z M38.2,29.3c-1.2-2.1-2.4-4.1-3.3-6.2
		c-0.8-1.7-1.4-3.5-1.8-5.3c-0.5-2.1,0.7-3.9,2.8-4.4c0.9-0.2,1.8-0.2,2.8-0.3C38,11.3,37,9.8,35.8,8.4C32.9,5.2,29.2,3.6,24.9,4
		c-4.9,0.5-8.3,5.2-8.1,10.4c0.9-0.3,1.9-0.6,2.8-0.9C22,13,24,14,24.5,16.1c0.9,3.5,1.1,7-0.6,10.4c-0.4,0.9-0.7,1.8-1,2.7
		c2.1,0.4,2.9,1.5,3,3.4c0.1,3.3,0.1,6.5,0.2,9.8c0.1,1.7,0.6,3.3,2.5,4c2.6,1,6.1-0.8,6.6-3.5c0.6-3.4,1-6.9,1.3-10.3
		C36.6,31.1,36.8,29.9,38.2,29.3z M18.8,5.2c-2.5-0.9-5-1.2-7.5-1C8.1,4.3,5.7,6,4.9,9c-0.3,1.1-0.6,2.4-0.6,3.5
		c0.4,6.7,2.1,13.1,5.2,19.1c0.4,0.7,0.9,1.3,1.5,1.9c0.7,0.7,1.5,0.7,2.2,0c1.4-1.5,2.7-3,4-4.5c-1.7-1.7-2.5-3.7-2.3-6
		c0.1-1.8,0.2-3.5,0.2-5.3C14.9,13.1,15.7,8.9,18.8,5.2z M32.4,3.7c0,0.1,0,0.2,0.1,0.2c0.1,0.1,0.3,0.2,0.4,0.3
		c3.3,1.9,5.6,4.6,7.1,8.1c0.5,1.2,0.5,2.4,0.4,3.7c-0.2,1.5-0.4,3.1-0.3,4.7c0.2,2.4,0.6,4.8-0.6,7.1c3.1-5,5.3-10.4,6-16.3
		c0.2-2.2-0.4-3.9-2.1-5.3C40.1,3.5,36.4,3.1,32.4,3.7z M21.2,29c0.3-0.9,0.6-1.8,1-2.6c1.6-3.1,1.6-6.3,0.9-9.5
		c-0.3-1.3-1-2-2.3-1.8c-1.1,0.1-2.2,0.6-3.3,0.9c-0.7,0.2-0.9,0.7-0.8,1.4c0,1.7,0.1,3.4-0.1,5C16.1,25.8,17.7,28.3,21.2,29z
		 M39.2,14.8c-0.8,0-1.3,0-1.8,0c-2.3,0-3.1,1.1-2.7,3.3c0.6,3,2.2,5.5,3.7,8.1C39.4,22.5,37.6,18.6,39.2,14.8z M17.5,34.1
		c2.3,1,4.8,0.4,6.2-1.1c0.6-0.7,0.7-1.3,0-1.9c-0.8-0.7-1.1,0-1.5,0.5c-0.7,0.9-1.5,1.8-2.7,2C18.9,33.7,18.3,33.9,17.5,34.1z
		 M45,31.1c-2,0.3-3.8,0.5-5.5-0.3c-0.7-0.3-1.2,0.1-1.4,0.8c-0.1,0.4-0.4,1,0.4,1C40.8,32.8,43,32.6,45,31.1z"/>
	<path class="st1" d="M38.2,29.3c-1.4,0.6-1.7,1.8-1.8,3.2c-0.4,3.4-0.7,6.9-1.3,10.3c-0.5,2.7-4,4.5-6.6,3.5
		c-1.8-0.7-2.4-2.3-2.5-4c-0.2-3.3-0.2-6.5-0.2-9.8c0-1.9-0.9-3-3-3.4c0.3-0.9,0.6-1.9,1-2.7c1.7-3.4,1.5-6.9,0.6-10.4
		C24,14,22,13,19.7,13.5c-1,0.2-1.9,0.6-2.8,0.9C16.6,9.2,20,4.5,24.9,4c4.3-0.4,8,1.2,10.9,4.4c1.2,1.4,2.2,2.9,2.8,4.7
		c-1,0.1-1.9,0.1-2.8,0.3c-2.1,0.5-3.3,2.3-2.8,4.4c0.5,1.8,1.1,3.6,1.8,5.3C35.9,25.2,37.1,27.2,38.2,29.3z"/>
	<path class="st1" d="M18.8,5.2c-3.1,3.7-3.8,7.9-3.7,12.4c0,1.8-0.1,3.5-0.2,5.3c-0.1,2.3,0.7,4.3,2.3,6c-1.3,1.5-2.6,3.1-4,4.5
		c-0.6,0.7-1.5,0.7-2.2,0c-0.6-0.6-1.2-1.2-1.5-1.9c-3-6-4.8-12.4-5.2-19.1C4.2,11.4,4.5,10.1,4.9,9c0.9-3,3.3-4.7,6.4-4.8
		C13.8,4,16.2,4.3,18.8,5.2z"/>
	<path class="st1" d="M32.4,3.7c4-0.6,7.7-0.2,10.9,2.4c1.8,1.4,2.4,3.2,2.1,5.3c-0.7,5.9-2.9,11.3-6,16.3c1.2-2.3,0.8-4.7,0.6-7.1
		c-0.1-1.5,0.1-3.1,0.3-4.7c0.2-1.3,0.1-2.5-0.4-3.7c-1.5-3.5-3.8-6.2-7.1-8.1c-0.2-0.1-0.3-0.2-0.4-0.3C32.5,3.9,32.5,3.8,32.4,3.7
		z"/>
	<path class="st1" d="M21.2,29c-3.5-0.7-5.2-3.2-4.7-6.6c0.2-1.6,0.1-3.3,0.1-5c0-0.7,0.2-1.2,0.8-1.4c1.1-0.3,2.2-0.8,3.3-0.9
		c1.4-0.2,2,0.5,2.3,1.8c0.7,3.3,0.7,6.5-0.9,9.5C21.8,27.2,21.5,28.1,21.2,29z M21.1,15.2c-0.5,0.4-0.8,0.7-1.1,1
		c0.5,0.4,0.9,0.9,1.5,1.1c0.3,0.1,0.8-0.6,1.2-0.9C22.1,16.1,21.7,15.7,21.1,15.2z"/>
	<path class="st1" d="M39.2,14.8c-1.5,3.8,0.2,7.7-0.8,11.4c-1.5-2.6-3.1-5.1-3.7-8.1c-0.4-2.2,0.4-3.3,2.7-3.3
		C37.9,14.8,38.3,14.8,39.2,14.8z M36.6,17.1c0.5-0.6,0.9-1,1.2-1.4c-0.3-0.2-0.7-0.6-1-0.5c-0.5,0.1-0.9,0.5-1.4,0.8
		C35.7,16.3,36.1,16.6,36.6,17.1z"/>
	<path class="st1" d="M17.5,34.1c0.8-0.2,1.3-0.4,1.9-0.5c1.2-0.3,2-1.1,2.7-2c0.4-0.5,0.8-1.2,1.5-0.5c0.7,0.6,0.6,1.3,0,1.9
		C22.3,34.6,19.9,35.1,17.5,34.1z"/>
	<path class="st1" d="M45,31.1c-2,1.6-4.2,1.7-6.5,1.5c-0.8-0.1-0.5-0.6-0.4-1c0.2-0.7,0.7-1.1,1.4-0.8C41.3,31.6,43,31.4,45,31.1z"
		/>
	<path class="st0" d="M21.1,15.2c0.6,0.5,1.1,0.8,1.5,1.2c-0.4,0.3-0.9,1-1.2,0.9c-0.5-0.1-1-0.7-1.5-1.1
		C20.3,15.9,20.6,15.7,21.1,15.2z"/>
	<path class="st0" d="M36.6,17.1c-0.5-0.5-0.9-0.8-1.2-1.1c0.5-0.3,0.9-0.7,1.4-0.8c0.3-0.1,0.7,0.3,1,0.5
		C37.5,16.1,37.1,16.5,36.6,17.1z"/>
</g>
</svg>
