<?xml version="1.0" encoding="utf-8"?>
<!-- Generator: Adobe Illustrator 27.2.0, SVG Export Plug-In . SVG Version: 6.00 Build 0)  -->
<svg version="1.1" id="a" xmlns="http://www.w3.org/2000/svg" xmlns:xlink="http://www.w3.org/1999/xlink" x="0px" y="0px"
	 viewBox="0 0 50 50" style="enable-background:new 0 0 50 50;" xml:space="preserve">
<style type="text/css">
	.st0{fill:#212121;}
</style>
<path class="st0" d="M25,0.6L2.1,8.7l3.6,30.1L25,49.4l19.3-10.7l3.6-30.1L25,0.6z M32.2,9.1l3.4,3.4l-5.1,0.6l-1.7-4L32.2,9.1
	L32.2,9.1z M17.5,9.1H21l-1.7,4l-5.1-0.6L17.5,9.1L17.5,9.1z M11,13.1l8.6,0.7l2.1-4.6h0.9l0,5.6l1,0.5l0-6.1h1V23h-1.6l-10.4-3.8
	L11,13.1L11,13.1z M18.5,37.8l-3.1-3.1v-3.1l3.1,2.7V37.8L18.5,37.8z M18.6,33.3l-5.9-5v-8l2.7,0.9l2.6,2.7l2.2-0.5l-1.6,2.5
	L18.6,33.3L18.6,33.3z M30.4,30.6L27.1,33v0.8l3.3-2.2v0.9l-3.2,2.4V36l3.2-2.4v1.1l-3.3,2.2v0.9l3.3-2.2v1.8l-1.4,2L27.3,41h-4.8
	l-1.8-1.6l-1.4-2v-1.8l3.3,2.2v-0.9l-3.3-2.2v-1.1l3.2,2.4v-1.1l-3.2-2.4v-0.9l3.3,2.2V33l-3.3-2.4v-4.4l1.9-2.9l1.2,0.7h4.8
	l1.2-0.7l1.9,2.9L30.4,30.6L30.4,30.6z M34.3,34.7l-3.1,3.1v-3.5l3.1-2.7V34.7L34.3,34.7z M37,28.3l-5.9,5v-7.6l-1.6-2.5l2.2,0.5
	l2.6-2.7l2.7-0.9V28.3L37,28.3z M37.3,19.1L26.9,23h-1.6V9.1h1l0,6.1l1-0.5l0-5.6h0.9l2.1,4.6l8.6-0.7L37.3,19.1L37.3,19.1z"/>
</svg>
