<?xml version="1.0" encoding="utf-8"?>
<!-- Generator: Adobe Illustrator 27.2.0, SVG Export Plug-In . SVG Version: 6.00 Build 0)  -->
<svg version="1.1" id="a" xmlns="http://www.w3.org/2000/svg" xmlns:xlink="http://www.w3.org/1999/xlink" x="0px" y="0px"
	 viewBox="0 0 50 50" style="enable-background:new 0 0 50 50;" xml:space="preserve">
<style type="text/css">
	.st0{fill:#212121;}
</style>
<path class="st0" d="M0,0v50h50V0H0z M9.2,32.2c-0.4,0.1-0.8-0.1-1.1-0.4c-0.2-0.2-0.3-0.5-0.3-0.8c0-0.8,0.7-1.4,1.5-1.2
	c0.5,0.1,0.9,0.4,1.1,0.9C10.4,31.4,9.9,32.1,9.2,32.2z M23.1,32c0,0-0.1,0-0.2,0c-0.7,0-1.3,0-2,0c-0.1,0-0.2,0-0.2-0.1
	c-2-3.1-3.9-6.2-5.9-9.3c-0.2-0.3-0.3-0.6-0.5-0.8l0,0l0,0l0,0c0,0.2,0,0.4,0,0.5c0,0.2,0,0.4,0,0.6c0,3,0,6,0,9V32h-0.1
	c-0.6,0-1.2,0-1.8,0c-0.1,0-0.1,0-0.1-0.1c0-4.2,0-8.5,0-12.7v-0.1h0.1c0.7,0,1.4,0,2.1,0c0.1,0,0.2,0,0.3,0.1
	c1.9,3.1,3.9,6.2,5.8,9.2c0.1,0.2,0.3,0.5,0.4,0.7c0-0.1,0-0.2,0-0.3c0-0.6-0.1-1.1-0.1-1.7c0-2.6,0-5.3,0-7.9V19h2v13H23.1z
	 M33,31.9c0,0.1,0,0.2-0.2,0.2c-2.3,0-4.5,0-6.8,0c-0.1,0-0.1,0-0.1-0.2c0-4.2,0-8.5,0-12.7V19l0,0h6.8v1.8H28c0,0.1,0,0.1,0,0.2
	c0,1.1,0,2.2,0,3.3c0,0.2,0,0.2,0.2,0.2c1.3,0,2.7,0,4,0c0.1,0,0.2,0.1,0.2,0.2c0,0.5,0,1,0,1.5c0,0.2,0,0.2-0.2,0.2
	c-1.3,0-2.7,0-4,0c-0.1,0-0.2,0.1-0.2,0.2c0,1.1,0,2.3,0,3.5c0,0.1,0.1,0.2,0.2,0.2c1.5,0,3.1,0,4.7,0c0.1,0,0.2,0.1,0.2,0.2
	C33,30.9,33,31.4,33,31.9z M43.1,20.7c0,0.1,0,0.1-0.2,0.1c-1.1,0-2.2,0-3.3,0c-0.1,0-0.1,0-0.2,0V21c0,3.6,0,7.1,0,10.7v0.1
	c0,0.1,0,0.1-0.1,0.1c-0.6,0-1.3,0-1.9,0c-0.1,0-0.1,0-0.1-0.1v-0.1c0-3.6,0-7.2,0-10.8v-0.2c-0.1,0-0.1,0-0.1,0c-1.1,0-2.2,0-3.3,0
	c-0.1,0-0.2,0-0.2-0.2c0-0.5,0-1,0-1.6c0-0.1,0-0.1,0.1-0.1c3,0,6.1,0,9.1,0c0.1,0,0.1,0,0.1,0.1C43.1,19.7,43.1,20.2,43.1,20.7z"/>
</svg>
