<?xml version="1.0" encoding="utf-8"?>
<!-- Generator: Adobe Illustrator 26.5.3, SVG Export Plug-In . SVG Version: 6.00 Build 0)  -->
<svg version="1.1" id="e" xmlns="http://www.w3.org/2000/svg" xmlns:xlink="http://www.w3.org/1999/xlink" x="0px" y="0px"
	 viewBox="0 0 50 50" style="enable-background:new 0 0 50 50;" xml:space="preserve">
<style type="text/css">
	.st0{fill:#212121;}
</style>
<path class="st0" d="M0,21.4c0-0.2,0.1-0.5,0.1-0.7c0.2-1.3,0.8-2.4,1.5-3.4c1.1-1.7,2.5-3.1,4.1-4.3c2.1-1.7,4.4-3,6.8-4.1
	c1.6-0.7,3.1-1.4,4.8-1.8c1.1-0.3,2.2-0.5,3.3-0.7c1-0.1,2-0.2,3-0.1c1.9,0.1,3.7,0.5,5.3,1.4c1.3,0.8,2.2,1.9,2.5,3.4
	c0.2,1.2,0.1,2.4-0.3,3.6c-0.6,1.8-1.6,3.2-2.9,4.6c-1.7,1.7-3.8,2.8-6.1,3.4c-1,0.3-2,0.5-3,0.6c-1.4,0.1-2.9,0.2-4.3-0.2
	c-1.1-0.3-2.1-0.9-2.8-1.8c-0.2-0.2-0.3-0.6-0.4-0.9c0-0.1,0-0.1,0-0.2c0-0.2,0.2-0.3,0.4-0.1c0.1,0,0.1,0.1,0.1,0.1
	c0.7,0.8,1.6,1.2,2.7,1.4c1.1,0.2,2.2,0.2,3.2,0c1.7-0.3,3.4-0.8,4.9-1.6c1.8-0.9,3.4-2.1,4.6-3.8c0.6-0.8,1.1-1.8,1.3-2.8
	c0.2-0.9,0.1-1.7-0.4-2.5c-0.4-0.6-0.9-0.9-1.5-1.1c-0.8-0.3-1.6-0.5-2.4-0.6c-2-0.2-3.9,0.1-5.8,0.6c-2.1,0.6-4.2,1.4-6.1,2.5
	c-1.7,0.9-3.3,1.9-4.8,3.1c-1.2,0.9-2.2,2-3,3.3c-0.6,0.9-0.9,2-1,3.1c0,1,0.3,1.9,0.8,2.7c0.6,1,1.4,1.7,2.3,2.4
	c1,0.9,2.1,1.6,3.2,2.5c0.5,0.4,1,0.9,1.6,1.4c0.1,0.1,0.2,0.1,0.3,0c1.6-0.9,3.2-1.7,4.7-2.6c0.1,0,0.2-0.1,0.2-0.2
	c0.8-1.1,1.9-2,3.1-2.5c0.5-0.2,0.9-0.3,1.4-0.3c0.7,0.1,1.1,0.6,1.3,1.3c0.1,0.6,0.1,1.2,0,1.8c0,0,0,0.1,0,0.1
	c0.1-0.1,0.1-0.1,0.2-0.1c0.4-0.3,1-0.2,1.4,0.1c0.2,0.2,0.2,0.5,0.1,0.7c-0.3,1.1-0.6,2.2-0.9,3.3c-0.2,0.6-0.3,1.3-0.4,1.9
	c-0.1,0.4-0.1,0.8,0,1.2c0.1-0.1,0.2-0.2,0.2-0.3c0.3-0.5,0.6-1.1,0.9-1.7c1-2.1,1.9-4.3,2.9-6.4c0.3-0.8,0.6-1.6,1-2.4
	c0.1-0.3,0.2-0.6,0.2-0.9c0-0.2,0.1-0.3,0.3-0.4c0.3-0.1,0.6-0.2,0.9-0.2c0.5-0.1,0.9-0.1,1.4,0c0.1,0,0.2,0.1,0.3,0.1
	c0.2,0.1,0.2,0.2,0.2,0.5c-0.2,0.6-0.4,1.1-0.5,1.7c-0.1,0.6-0.1,1.3,0,1.9c0.1,0.7,0.4,1.3,0.7,1.9c0,0,0,0,0.1,0.1
	c0,0,0.1-0.1,0.1-0.1c1-1.6,1.9-3.2,2.7-5c0.2-0.5,0.3-1,0.5-1.6c0.1-0.2,0.1-0.4,0.2-0.6c0-0.2,0.2-0.3,0.4-0.4
	c0.7-0.2,1.4-0.3,2.2-0.2c0.1,0,0.2,0.1,0.3,0.1c0.2,0.1,0.3,0.3,0.2,0.5c-0.2,0.6-0.3,1.1-0.5,1.7c-0.2,0.6-0.1,1.3,0,1.9
	c0.1,1,0.7,1.8,1.1,2.6c0.1,0,0.1,0,0.2,0c1-0.5,2.2-0.8,3.3-0.9c1.5-0.2,3,0,4.5,0.6c1.4,0.6,2.5,1.5,3.1,2.9c0.4,1,0.6,1.9,0.2,3
	c-0.3,1-1,1.6-2,2c-0.1,0-0.3,0.1-0.4,0.1c0,0-0.1,0-0.2-0.1c0-0.1,0-0.1,0-0.2c0.1-0.1,0.2-0.2,0.3-0.2c0.6-0.4,1.1-0.9,1.3-1.6
	c0.2-0.7,0-1.4-0.3-2.1c-0.5-1-1.3-1.6-2.3-2.1c-0.8-0.3-1.6-0.5-2.5-0.6c-0.6,0-1.2-0.1-1.7-0.1c-1,0-1.9,0.2-2.9,0.6
	c-0.2,0.1-0.2,0.1-0.1,0.3c0.2,0.6,0.4,1.3,0.3,1.9c0,0.7-0.3,1.3-0.8,1.8c-0.7,0.8-1.6,1.4-2.6,1.8c-0.3,0.1-0.7,0.2-1.1,0.3
	c-0.6,0.1-1.2-0.3-1.3-0.9c-0.1-0.7,0.1-1.3,0.3-1.9c0.5-1.1,1.3-2,2.1-2.8c0.1-0.1,0.3-0.2,0.4-0.4c0-0.1-0.1-0.3-0.2-0.5
	c-0.6-1-0.8-2.1-1.1-3.3c0,0,0-0.1,0-0.1s0-0.1,0-0.1c0,0.1-0.1,0.1-0.1,0.2c-0.8,1.7-1.8,3.3-2.8,4.8c-0.1,0.1-0.1,0.2,0,0.3
	c0.2,0.6,0.4,1.2,0.5,1.8c0.1,1.2-0.2,2.2-1.1,3c-0.9,0.8-2,1.3-3.2,1.5c-0.4,0.1-0.9,0.1-1.3,0c-0.7-0.1-1-0.7-0.6-1.3
	c0.2-0.3,0.4-0.5,0.6-0.8c0.8-1,1.6-1.9,2.4-2.9c0.2-0.2,0.3-0.4,0.5-0.7c0.1-0.1,0.1-0.2,0-0.3c-0.2-0.5-0.5-0.9-0.7-1.4
	c-0.4-0.8-0.6-1.7-0.8-2.6c0,0,0-0.1,0-0.1c0,0.1-0.1,0.2-0.1,0.2c-0.8,1.9-1.6,3.8-2.5,5.6c-0.6,1.2-1.2,2.3-1.9,3.5
	c-0.3,0.5-0.6,1-1.1,1.3c-0.5,0.4-1.1,0.5-1.5,0.1c-0.3-0.3-0.5-0.7-0.5-1.1c-0.1-0.8-0.1-1.6,0-2.3c0-0.1,0-0.2,0-0.3
	c0,0.1-0.1,0.1-0.1,0.2c-0.5,1.1-1,2.2-1.5,3.2c-0.1,0.3-0.4,0.6-0.6,0.8c-0.6,0.6-2,0.6-2.5-0.2c-0.6-0.8-0.9-1.7-1.1-2.6
	c-0.1-0.6-0.2-1.3-0.1-1.9c0.1-1.1,0.2-2.1,0.6-3.1c0-0.1,0-0.1,0.1-0.2c0,0,0,0,0,0c-0.9,0.5-1.9,1.1-2.8,1.6c0,0,0,0.1,0,0.1
	c0.4,0.9,0.6,1.9,0.6,2.9c0,2-0.5,3.8-1.7,5.4c-1.3,1.6-2.9,2.7-5,3.1c-1,0.2-2,0.1-3-0.2c-0.5-0.1-0.8-0.4-1-0.8
	c-0.6-0.9-0.8-1.8-0.7-2.9c0.2-1.5,0.9-2.7,1.9-3.7C4.7,35,6,34.2,7.3,33.4c0.8-0.5,1.6-0.9,2.4-1.3c0.1,0,0.1-0.1,0.2-0.1
	c-0.1-0.1-0.2-0.2-0.3-0.3c-1.1-0.8-2.3-1.6-3.4-2.4c-1.4-1-2.7-2-3.9-3.2c-0.9-0.9-1.6-2-2-3.2c-0.1-0.3-0.1-0.6-0.2-0.9
	c0,0,0-0.1-0.1-0.1C0,21.7,0,21.5,0,21.4L0,21.4z M11.1,33c-0.1,0-0.1,0-0.2,0.1c-1.2,0.7-2.4,1.5-3.6,2.4c-0.7,0.6-1.5,1.2-1.9,2.1
	C5,38.2,4.7,39,4.7,39.8c0,0.7,0.3,1,0.9,1.2c0.5,0.1,0.9,0,1.3-0.1c1.4-0.4,2.4-1.3,3.2-2.4c1-1.3,1.3-2.8,1.1-4.5
	C11.2,33.6,11.1,33.3,11.1,33L11.1,33z M17.2,34.1c0,0.4,0.1,0.8,0.1,1.2c0,0.2,0.1,0.5,0.2,0.7c0.1,0.3,0.4,0.3,0.6,0.1
	c0.1-0.1,0.2-0.2,0.2-0.3c0.1-0.2,0.2-0.4,0.3-0.6c0.9-2.1,1.8-4.2,2.4-6.4c0.1-0.3,0.2-0.7,0.2-1c0.1-0.5-0.1-0.7-0.6-0.5
	c-0.2,0.1-0.4,0.2-0.6,0.3c-0.6,0.4-1,0.9-1.3,1.5C17.8,30.6,17.3,32.2,17.2,34.1z M37.3,31.1C37.3,31.1,37.3,31.1,37.3,31.1
	c-0.1,0-0.1,0-0.2,0.1c-0.9,0.8-1.5,1.7-1.8,2.9c0,0.1,0,0.3-0.1,0.5c0,0.1,0.1,0.2,0.2,0.1c1.4-0.5,2-1.5,1.9-2.9
	C37.4,31.5,37.4,31.3,37.3,31.1L37.3,31.1z M28.2,36.2C28.2,36.2,28.2,36.3,28.2,36.2c0.2,0,0.3,0,0.5,0c0.8-0.4,1.4-1,1.8-1.8
	c0.2-0.3,0.3-0.7,0.2-1.1C29.8,34.3,29,35.3,28.2,36.2z"/>
</svg>
