<?xml version="1.0" encoding="utf-8"?>
<!-- Generator: Adobe Illustrator 27.2.0, SVG Export Plug-In . SVG Version: 6.00 Build 0)  -->
<svg version="1.1" id="a" xmlns="http://www.w3.org/2000/svg" xmlns:xlink="http://www.w3.org/1999/xlink" x="0px" y="0px"
	 viewBox="0 0 50 50" style="enable-background:new 0 0 50 50;" xml:space="preserve">
<style type="text/css">
	.st0{fill:#212121;}
</style>
<path class="st0" d="M38.9,10L38.9,10L31,2.1c-1.1-1.1-2.5-1.6-3.9-1.6c-0.8,0-1.6,0.2-2.4,0.6L8.8,8.8c0,0.1-7.7,15.9-7.7,15.9
	c-1,2.1-0.6,4.7,1.1,6.3l6.6,6.6l1.3,1.3l10.6,10.6h20l0.1-8.8l8.8-0.1v-20L38.9,10z M25.9,2.6c0.5-0.2,0.9-0.3,1.4-0.3
	c0.9,0,1.8,0.4,2.4,1l4.5,4.6H15.1L25.9,2.6z M38.7,47.5H21.5L11.2,37.2c-0.3-0.3-0.4-0.7-0.4-1.1V13.6l27.9,28V47.5z"/>
</svg>
