<?xml version="1.0" encoding="utf-8"?>
<!-- Generator: Adobe Illustrator 27.2.0, SVG Export Plug-In . SVG Version: 6.00 Build 0)  -->
<svg version="1.1" id="j" xmlns="http://www.w3.org/2000/svg" xmlns:xlink="http://www.w3.org/1999/xlink" x="0px" y="0px"
	 viewBox="0 0 50 50" style="enable-background:new 0 0 50 50;" xml:space="preserve">
<style type="text/css">
	.st0{fill:#212121;}
</style>
<path class="st0" d="M0,0v50h50V0H0z M27.3,39c0,1.1-0.2,2.2-0.6,3.2c-0.6,1.6-1.7,2.7-3.3,3.3c-2.2,0.8-4.5,0.8-6.7-0.2
	c-1.6-0.7-2.7-2-3.5-3.6l0,0l0,0l0,0c1.3-0.8,2.5-1.5,3.8-2.3c0.1,0.1,0.1,0.2,0.2,0.2c0.3,0.5,0.6,1,1,1.4c0.5,0.6,1.2,0.8,2,0.8
	c0.2,0,0.4,0,0.6-0.1c1.1-0.2,1.6-0.8,1.7-2c0-0.4,0.1-0.8,0.1-1.1c0-5.1,0-10.3,0-15.4c0-0.2,0.1-0.4,0.4-0.4c1.4,0,2.7,0,4.1,0
	c0.2,0,0.3,0,0.3,0.3C27.3,28.5,27.3,33.8,27.3,39z M45.7,42c-0.7,1.8-2,2.9-3.8,3.5c-1.5,0.5-3,0.7-4.6,0.5c-1.5-0.1-3-0.5-4.3-1.3
	s-2.4-1.9-3.1-3.3c0-0.1-0.1-0.1-0.1-0.2c0,0,0,0,0-0.1l0,0l0,0l0,0c1.3-0.7,2.5-1.5,3.8-2.2c0.1,0.1,0.1,0.2,0.2,0.2
	c0.6,1,1.4,1.8,2.5,2.2c1.3,0.5,2.5,0.6,3.8,0c1.2-0.5,1.6-1.6,1.2-2.8c-0.2-0.5-0.5-0.8-0.9-1.1c-0.7-0.4-1.4-0.8-2.1-1.1
	c-1.1-0.5-2.3-1-3.4-1.6c-0.8-0.4-1.5-1-2.1-1.6c-1-1.1-1.5-2.3-1.6-3.8c-0.1-1.1,0-2.2,0.5-3.3c0.7-1.6,2-2.7,3.6-3.2
	c2.2-0.7,4.3-0.6,6.4,0.3c1.2,0.6,2.4,1.8,3,3c-1.2,0.8-2.4,1.6-3.7,2.3c-0.1-0.2-0.2-0.3-0.3-0.5c-0.5-0.7-1.1-1.2-1.9-1.4
	c-0.5-0.1-1.1-0.1-1.6,0c-1.8,0.5-1.7,2.5-0.9,3.4c0.5,0.5,1.1,0.8,1.7,1.1c1.3,0.6,2.6,1.2,3.9,1.8c1,0.5,1.9,1.1,2.7,2
	c0.9,1.1,1.4,2.3,1.5,3.7C46.2,39.9,46.1,41,45.7,42z"/>
</svg>
