<?xml version="1.0" encoding="utf-8"?>
<!-- Generator: Adobe Illustrator 27.2.0, SVG Export Plug-In . SVG Version: 6.00 Build 0)  -->
<svg version="1.1" id="e" xmlns="http://www.w3.org/2000/svg" xmlns:xlink="http://www.w3.org/1999/xlink" x="0px" y="0px"
	 viewBox="0 0 50 50" style="enable-background:new 0 0 50 50;" xml:space="preserve">
<style type="text/css">
	.st0{fill:#212121;}
</style>
<path class="st0" d="M0,0v50h50V0H0z M29,28h-6.2v17.8l0,0h-5V28.1h-6.2v-3.9H29V28z M42.3,45.2c-3.4,1.5-7,1.3-10.5,0.1
	c-0.4-0.1-0.8-0.8-0.9-1.2c-0.1-1.2,0-2.4,0-3.2l0,0c2.3,0.5,4.4,1.1,6.5,1.4c1.2,0.2,2.7-0.2,3.1-1.7c0.4-1.6-0.8-2.3-2-2.9
	c-1.3-0.7-2.7-1.2-4-1.9c-2.7-1.5-4-3.8-3.6-6.5c0.4-2.6,2.3-4.7,5.3-5.1c2.2-0.3,4.4-0.1,6.7-0.1c1.3,0,2.1,0.6,1.9,2.2
	c-0.1,0.8,0,1.7,0,2.3c-1.9-0.3-3.6-0.7-5.3-0.9c-0.7-0.1-1.5,0.2-2.2,0.5c-1.5,0.7-1.7,2.1-0.5,3.2c0.7,0.6,1.7,1,2.5,1.5
	c1.4,0.8,2.9,1.4,4.2,2.3C47,37.8,46.3,43.4,42.3,45.2z"/>
</svg>
